%TF.GenerationSoftware,KiCad,Pcbnew,8.0.5-dirty*%
%TF.CreationDate,2024-11-08T09:40:44-06:00*%
%TF.ProjectId,buttonbox,62757474-6f6e-4626-9f78-2e6b69636164,rev?*%
%TF.SameCoordinates,Original*%
%TF.FileFunction,Legend,Top*%
%TF.FilePolarity,Positive*%
%FSLAX46Y46*%
G04 Gerber Fmt 4.6, Leading zero omitted, Abs format (unit mm)*
G04 Created by KiCad (PCBNEW 8.0.5-dirty) date 2024-11-08 09:40:44*
%MOMM*%
%LPD*%
G01*
G04 APERTURE LIST*
%ADD10C,0.200000*%
%ADD11C,0.150000*%
%ADD12C,0.120000*%
G04 APERTURE END LIST*
D10*
X66869673Y-90367219D02*
X66869673Y-89367219D01*
X67441101Y-90367219D02*
X67012530Y-89795790D01*
X67441101Y-89367219D02*
X66869673Y-89938647D01*
X67869673Y-89700552D02*
X67869673Y-90367219D01*
X67869673Y-89795790D02*
X67917292Y-89748171D01*
X67917292Y-89748171D02*
X68012530Y-89700552D01*
X68012530Y-89700552D02*
X68155387Y-89700552D01*
X68155387Y-89700552D02*
X68250625Y-89748171D01*
X68250625Y-89748171D02*
X68298244Y-89843409D01*
X68298244Y-89843409D02*
X68298244Y-90367219D01*
X68917292Y-90367219D02*
X68822054Y-90319600D01*
X68822054Y-90319600D02*
X68774435Y-90271980D01*
X68774435Y-90271980D02*
X68726816Y-90176742D01*
X68726816Y-90176742D02*
X68726816Y-89891028D01*
X68726816Y-89891028D02*
X68774435Y-89795790D01*
X68774435Y-89795790D02*
X68822054Y-89748171D01*
X68822054Y-89748171D02*
X68917292Y-89700552D01*
X68917292Y-89700552D02*
X69060149Y-89700552D01*
X69060149Y-89700552D02*
X69155387Y-89748171D01*
X69155387Y-89748171D02*
X69203006Y-89795790D01*
X69203006Y-89795790D02*
X69250625Y-89891028D01*
X69250625Y-89891028D02*
X69250625Y-90176742D01*
X69250625Y-90176742D02*
X69203006Y-90271980D01*
X69203006Y-90271980D02*
X69155387Y-90319600D01*
X69155387Y-90319600D02*
X69060149Y-90367219D01*
X69060149Y-90367219D02*
X68917292Y-90367219D01*
X69679197Y-90367219D02*
X69679197Y-89367219D01*
X69679197Y-89748171D02*
X69774435Y-89700552D01*
X69774435Y-89700552D02*
X69964911Y-89700552D01*
X69964911Y-89700552D02*
X70060149Y-89748171D01*
X70060149Y-89748171D02*
X70107768Y-89795790D01*
X70107768Y-89795790D02*
X70155387Y-89891028D01*
X70155387Y-89891028D02*
X70155387Y-90176742D01*
X70155387Y-90176742D02*
X70107768Y-90271980D01*
X70107768Y-90271980D02*
X70060149Y-90319600D01*
X70060149Y-90319600D02*
X69964911Y-90367219D01*
X69964911Y-90367219D02*
X69774435Y-90367219D01*
X69774435Y-90367219D02*
X69679197Y-90319600D01*
X70917292Y-89843409D02*
X71060149Y-89891028D01*
X71060149Y-89891028D02*
X71107768Y-89938647D01*
X71107768Y-89938647D02*
X71155387Y-90033885D01*
X71155387Y-90033885D02*
X71155387Y-90176742D01*
X71155387Y-90176742D02*
X71107768Y-90271980D01*
X71107768Y-90271980D02*
X71060149Y-90319600D01*
X71060149Y-90319600D02*
X70964911Y-90367219D01*
X70964911Y-90367219D02*
X70583959Y-90367219D01*
X70583959Y-90367219D02*
X70583959Y-89367219D01*
X70583959Y-89367219D02*
X70917292Y-89367219D01*
X70917292Y-89367219D02*
X71012530Y-89414838D01*
X71012530Y-89414838D02*
X71060149Y-89462457D01*
X71060149Y-89462457D02*
X71107768Y-89557695D01*
X71107768Y-89557695D02*
X71107768Y-89652933D01*
X71107768Y-89652933D02*
X71060149Y-89748171D01*
X71060149Y-89748171D02*
X71012530Y-89795790D01*
X71012530Y-89795790D02*
X70917292Y-89843409D01*
X70917292Y-89843409D02*
X70583959Y-89843409D01*
X71726816Y-90367219D02*
X71631578Y-90319600D01*
X71631578Y-90319600D02*
X71583959Y-90271980D01*
X71583959Y-90271980D02*
X71536340Y-90176742D01*
X71536340Y-90176742D02*
X71536340Y-89891028D01*
X71536340Y-89891028D02*
X71583959Y-89795790D01*
X71583959Y-89795790D02*
X71631578Y-89748171D01*
X71631578Y-89748171D02*
X71726816Y-89700552D01*
X71726816Y-89700552D02*
X71869673Y-89700552D01*
X71869673Y-89700552D02*
X71964911Y-89748171D01*
X71964911Y-89748171D02*
X72012530Y-89795790D01*
X72012530Y-89795790D02*
X72060149Y-89891028D01*
X72060149Y-89891028D02*
X72060149Y-90176742D01*
X72060149Y-90176742D02*
X72012530Y-90271980D01*
X72012530Y-90271980D02*
X71964911Y-90319600D01*
X71964911Y-90319600D02*
X71869673Y-90367219D01*
X71869673Y-90367219D02*
X71726816Y-90367219D01*
X72393483Y-90367219D02*
X72917292Y-89700552D01*
X72393483Y-89700552D02*
X72917292Y-90367219D01*
X73964912Y-89700552D02*
X74203007Y-90367219D01*
X74203007Y-90367219D02*
X74441102Y-89700552D01*
X75012531Y-89367219D02*
X75107769Y-89367219D01*
X75107769Y-89367219D02*
X75203007Y-89414838D01*
X75203007Y-89414838D02*
X75250626Y-89462457D01*
X75250626Y-89462457D02*
X75298245Y-89557695D01*
X75298245Y-89557695D02*
X75345864Y-89748171D01*
X75345864Y-89748171D02*
X75345864Y-89986266D01*
X75345864Y-89986266D02*
X75298245Y-90176742D01*
X75298245Y-90176742D02*
X75250626Y-90271980D01*
X75250626Y-90271980D02*
X75203007Y-90319600D01*
X75203007Y-90319600D02*
X75107769Y-90367219D01*
X75107769Y-90367219D02*
X75012531Y-90367219D01*
X75012531Y-90367219D02*
X74917293Y-90319600D01*
X74917293Y-90319600D02*
X74869674Y-90271980D01*
X74869674Y-90271980D02*
X74822055Y-90176742D01*
X74822055Y-90176742D02*
X74774436Y-89986266D01*
X74774436Y-89986266D02*
X74774436Y-89748171D01*
X74774436Y-89748171D02*
X74822055Y-89557695D01*
X74822055Y-89557695D02*
X74869674Y-89462457D01*
X74869674Y-89462457D02*
X74917293Y-89414838D01*
X74917293Y-89414838D02*
X75012531Y-89367219D01*
X75774436Y-90271980D02*
X75822055Y-90319600D01*
X75822055Y-90319600D02*
X75774436Y-90367219D01*
X75774436Y-90367219D02*
X75726817Y-90319600D01*
X75726817Y-90319600D02*
X75774436Y-90271980D01*
X75774436Y-90271980D02*
X75774436Y-90367219D01*
X76774435Y-90367219D02*
X76203007Y-90367219D01*
X76488721Y-90367219D02*
X76488721Y-89367219D01*
X76488721Y-89367219D02*
X76393483Y-89510076D01*
X76393483Y-89510076D02*
X76298245Y-89605314D01*
X76298245Y-89605314D02*
X76203007Y-89652933D01*
D11*
X229407200Y-95333332D02*
X229454819Y-95190475D01*
X229454819Y-95190475D02*
X229454819Y-94952380D01*
X229454819Y-94952380D02*
X229407200Y-94857142D01*
X229407200Y-94857142D02*
X229359580Y-94809523D01*
X229359580Y-94809523D02*
X229264342Y-94761904D01*
X229264342Y-94761904D02*
X229169104Y-94761904D01*
X229169104Y-94761904D02*
X229073866Y-94809523D01*
X229073866Y-94809523D02*
X229026247Y-94857142D01*
X229026247Y-94857142D02*
X228978628Y-94952380D01*
X228978628Y-94952380D02*
X228931009Y-95142856D01*
X228931009Y-95142856D02*
X228883390Y-95238094D01*
X228883390Y-95238094D02*
X228835771Y-95285713D01*
X228835771Y-95285713D02*
X228740533Y-95333332D01*
X228740533Y-95333332D02*
X228645295Y-95333332D01*
X228645295Y-95333332D02*
X228550057Y-95285713D01*
X228550057Y-95285713D02*
X228502438Y-95238094D01*
X228502438Y-95238094D02*
X228454819Y-95142856D01*
X228454819Y-95142856D02*
X228454819Y-94904761D01*
X228454819Y-94904761D02*
X228502438Y-94761904D01*
X228454819Y-94428570D02*
X229454819Y-94190475D01*
X229454819Y-94190475D02*
X228740533Y-93999999D01*
X228740533Y-93999999D02*
X229454819Y-93809523D01*
X229454819Y-93809523D02*
X228454819Y-93571428D01*
X228454819Y-92761904D02*
X228454819Y-92952380D01*
X228454819Y-92952380D02*
X228502438Y-93047618D01*
X228502438Y-93047618D02*
X228550057Y-93095237D01*
X228550057Y-93095237D02*
X228692914Y-93190475D01*
X228692914Y-93190475D02*
X228883390Y-93238094D01*
X228883390Y-93238094D02*
X229264342Y-93238094D01*
X229264342Y-93238094D02*
X229359580Y-93190475D01*
X229359580Y-93190475D02*
X229407200Y-93142856D01*
X229407200Y-93142856D02*
X229454819Y-93047618D01*
X229454819Y-93047618D02*
X229454819Y-92857142D01*
X229454819Y-92857142D02*
X229407200Y-92761904D01*
X229407200Y-92761904D02*
X229359580Y-92714285D01*
X229359580Y-92714285D02*
X229264342Y-92666666D01*
X229264342Y-92666666D02*
X229026247Y-92666666D01*
X229026247Y-92666666D02*
X228931009Y-92714285D01*
X228931009Y-92714285D02*
X228883390Y-92761904D01*
X228883390Y-92761904D02*
X228835771Y-92857142D01*
X228835771Y-92857142D02*
X228835771Y-93047618D01*
X228835771Y-93047618D02*
X228883390Y-93142856D01*
X228883390Y-93142856D02*
X228931009Y-93190475D01*
X228931009Y-93190475D02*
X229026247Y-93238094D01*
X203557200Y-95333332D02*
X203604819Y-95190475D01*
X203604819Y-95190475D02*
X203604819Y-94952380D01*
X203604819Y-94952380D02*
X203557200Y-94857142D01*
X203557200Y-94857142D02*
X203509580Y-94809523D01*
X203509580Y-94809523D02*
X203414342Y-94761904D01*
X203414342Y-94761904D02*
X203319104Y-94761904D01*
X203319104Y-94761904D02*
X203223866Y-94809523D01*
X203223866Y-94809523D02*
X203176247Y-94857142D01*
X203176247Y-94857142D02*
X203128628Y-94952380D01*
X203128628Y-94952380D02*
X203081009Y-95142856D01*
X203081009Y-95142856D02*
X203033390Y-95238094D01*
X203033390Y-95238094D02*
X202985771Y-95285713D01*
X202985771Y-95285713D02*
X202890533Y-95333332D01*
X202890533Y-95333332D02*
X202795295Y-95333332D01*
X202795295Y-95333332D02*
X202700057Y-95285713D01*
X202700057Y-95285713D02*
X202652438Y-95238094D01*
X202652438Y-95238094D02*
X202604819Y-95142856D01*
X202604819Y-95142856D02*
X202604819Y-94904761D01*
X202604819Y-94904761D02*
X202652438Y-94761904D01*
X202604819Y-94428570D02*
X203604819Y-94190475D01*
X203604819Y-94190475D02*
X202890533Y-93999999D01*
X202890533Y-93999999D02*
X203604819Y-93809523D01*
X203604819Y-93809523D02*
X202604819Y-93571428D01*
X202604819Y-92714285D02*
X202604819Y-93190475D01*
X202604819Y-93190475D02*
X203081009Y-93238094D01*
X203081009Y-93238094D02*
X203033390Y-93190475D01*
X203033390Y-93190475D02*
X202985771Y-93095237D01*
X202985771Y-93095237D02*
X202985771Y-92857142D01*
X202985771Y-92857142D02*
X203033390Y-92761904D01*
X203033390Y-92761904D02*
X203081009Y-92714285D01*
X203081009Y-92714285D02*
X203176247Y-92666666D01*
X203176247Y-92666666D02*
X203414342Y-92666666D01*
X203414342Y-92666666D02*
X203509580Y-92714285D01*
X203509580Y-92714285D02*
X203557200Y-92761904D01*
X203557200Y-92761904D02*
X203604819Y-92857142D01*
X203604819Y-92857142D02*
X203604819Y-93095237D01*
X203604819Y-93095237D02*
X203557200Y-93190475D01*
X203557200Y-93190475D02*
X203509580Y-93238094D01*
X177657200Y-95333332D02*
X177704819Y-95190475D01*
X177704819Y-95190475D02*
X177704819Y-94952380D01*
X177704819Y-94952380D02*
X177657200Y-94857142D01*
X177657200Y-94857142D02*
X177609580Y-94809523D01*
X177609580Y-94809523D02*
X177514342Y-94761904D01*
X177514342Y-94761904D02*
X177419104Y-94761904D01*
X177419104Y-94761904D02*
X177323866Y-94809523D01*
X177323866Y-94809523D02*
X177276247Y-94857142D01*
X177276247Y-94857142D02*
X177228628Y-94952380D01*
X177228628Y-94952380D02*
X177181009Y-95142856D01*
X177181009Y-95142856D02*
X177133390Y-95238094D01*
X177133390Y-95238094D02*
X177085771Y-95285713D01*
X177085771Y-95285713D02*
X176990533Y-95333332D01*
X176990533Y-95333332D02*
X176895295Y-95333332D01*
X176895295Y-95333332D02*
X176800057Y-95285713D01*
X176800057Y-95285713D02*
X176752438Y-95238094D01*
X176752438Y-95238094D02*
X176704819Y-95142856D01*
X176704819Y-95142856D02*
X176704819Y-94904761D01*
X176704819Y-94904761D02*
X176752438Y-94761904D01*
X176704819Y-94428570D02*
X177704819Y-94190475D01*
X177704819Y-94190475D02*
X176990533Y-93999999D01*
X176990533Y-93999999D02*
X177704819Y-93809523D01*
X177704819Y-93809523D02*
X176704819Y-93571428D01*
X177038152Y-92761904D02*
X177704819Y-92761904D01*
X176657200Y-92999999D02*
X177371485Y-93238094D01*
X177371485Y-93238094D02*
X177371485Y-92619047D01*
X151957200Y-95333332D02*
X152004819Y-95190475D01*
X152004819Y-95190475D02*
X152004819Y-94952380D01*
X152004819Y-94952380D02*
X151957200Y-94857142D01*
X151957200Y-94857142D02*
X151909580Y-94809523D01*
X151909580Y-94809523D02*
X151814342Y-94761904D01*
X151814342Y-94761904D02*
X151719104Y-94761904D01*
X151719104Y-94761904D02*
X151623866Y-94809523D01*
X151623866Y-94809523D02*
X151576247Y-94857142D01*
X151576247Y-94857142D02*
X151528628Y-94952380D01*
X151528628Y-94952380D02*
X151481009Y-95142856D01*
X151481009Y-95142856D02*
X151433390Y-95238094D01*
X151433390Y-95238094D02*
X151385771Y-95285713D01*
X151385771Y-95285713D02*
X151290533Y-95333332D01*
X151290533Y-95333332D02*
X151195295Y-95333332D01*
X151195295Y-95333332D02*
X151100057Y-95285713D01*
X151100057Y-95285713D02*
X151052438Y-95238094D01*
X151052438Y-95238094D02*
X151004819Y-95142856D01*
X151004819Y-95142856D02*
X151004819Y-94904761D01*
X151004819Y-94904761D02*
X151052438Y-94761904D01*
X151004819Y-94428570D02*
X152004819Y-94190475D01*
X152004819Y-94190475D02*
X151290533Y-93999999D01*
X151290533Y-93999999D02*
X152004819Y-93809523D01*
X152004819Y-93809523D02*
X151004819Y-93571428D01*
X151004819Y-93285713D02*
X151004819Y-92666666D01*
X151004819Y-92666666D02*
X151385771Y-92999999D01*
X151385771Y-92999999D02*
X151385771Y-92857142D01*
X151385771Y-92857142D02*
X151433390Y-92761904D01*
X151433390Y-92761904D02*
X151481009Y-92714285D01*
X151481009Y-92714285D02*
X151576247Y-92666666D01*
X151576247Y-92666666D02*
X151814342Y-92666666D01*
X151814342Y-92666666D02*
X151909580Y-92714285D01*
X151909580Y-92714285D02*
X151957200Y-92761904D01*
X151957200Y-92761904D02*
X152004819Y-92857142D01*
X152004819Y-92857142D02*
X152004819Y-93142856D01*
X152004819Y-93142856D02*
X151957200Y-93238094D01*
X151957200Y-93238094D02*
X151909580Y-93285713D01*
X126057200Y-95333332D02*
X126104819Y-95190475D01*
X126104819Y-95190475D02*
X126104819Y-94952380D01*
X126104819Y-94952380D02*
X126057200Y-94857142D01*
X126057200Y-94857142D02*
X126009580Y-94809523D01*
X126009580Y-94809523D02*
X125914342Y-94761904D01*
X125914342Y-94761904D02*
X125819104Y-94761904D01*
X125819104Y-94761904D02*
X125723866Y-94809523D01*
X125723866Y-94809523D02*
X125676247Y-94857142D01*
X125676247Y-94857142D02*
X125628628Y-94952380D01*
X125628628Y-94952380D02*
X125581009Y-95142856D01*
X125581009Y-95142856D02*
X125533390Y-95238094D01*
X125533390Y-95238094D02*
X125485771Y-95285713D01*
X125485771Y-95285713D02*
X125390533Y-95333332D01*
X125390533Y-95333332D02*
X125295295Y-95333332D01*
X125295295Y-95333332D02*
X125200057Y-95285713D01*
X125200057Y-95285713D02*
X125152438Y-95238094D01*
X125152438Y-95238094D02*
X125104819Y-95142856D01*
X125104819Y-95142856D02*
X125104819Y-94904761D01*
X125104819Y-94904761D02*
X125152438Y-94761904D01*
X125104819Y-94428570D02*
X126104819Y-94190475D01*
X126104819Y-94190475D02*
X125390533Y-93999999D01*
X125390533Y-93999999D02*
X126104819Y-93809523D01*
X126104819Y-93809523D02*
X125104819Y-93571428D01*
X125200057Y-93238094D02*
X125152438Y-93190475D01*
X125152438Y-93190475D02*
X125104819Y-93095237D01*
X125104819Y-93095237D02*
X125104819Y-92857142D01*
X125104819Y-92857142D02*
X125152438Y-92761904D01*
X125152438Y-92761904D02*
X125200057Y-92714285D01*
X125200057Y-92714285D02*
X125295295Y-92666666D01*
X125295295Y-92666666D02*
X125390533Y-92666666D01*
X125390533Y-92666666D02*
X125533390Y-92714285D01*
X125533390Y-92714285D02*
X126104819Y-93285713D01*
X126104819Y-93285713D02*
X126104819Y-92666666D01*
X100057200Y-95333332D02*
X100104819Y-95190475D01*
X100104819Y-95190475D02*
X100104819Y-94952380D01*
X100104819Y-94952380D02*
X100057200Y-94857142D01*
X100057200Y-94857142D02*
X100009580Y-94809523D01*
X100009580Y-94809523D02*
X99914342Y-94761904D01*
X99914342Y-94761904D02*
X99819104Y-94761904D01*
X99819104Y-94761904D02*
X99723866Y-94809523D01*
X99723866Y-94809523D02*
X99676247Y-94857142D01*
X99676247Y-94857142D02*
X99628628Y-94952380D01*
X99628628Y-94952380D02*
X99581009Y-95142856D01*
X99581009Y-95142856D02*
X99533390Y-95238094D01*
X99533390Y-95238094D02*
X99485771Y-95285713D01*
X99485771Y-95285713D02*
X99390533Y-95333332D01*
X99390533Y-95333332D02*
X99295295Y-95333332D01*
X99295295Y-95333332D02*
X99200057Y-95285713D01*
X99200057Y-95285713D02*
X99152438Y-95238094D01*
X99152438Y-95238094D02*
X99104819Y-95142856D01*
X99104819Y-95142856D02*
X99104819Y-94904761D01*
X99104819Y-94904761D02*
X99152438Y-94761904D01*
X99104819Y-94428570D02*
X100104819Y-94190475D01*
X100104819Y-94190475D02*
X99390533Y-93999999D01*
X99390533Y-93999999D02*
X100104819Y-93809523D01*
X100104819Y-93809523D02*
X99104819Y-93571428D01*
X100104819Y-92666666D02*
X100104819Y-93238094D01*
X100104819Y-92952380D02*
X99104819Y-92952380D01*
X99104819Y-92952380D02*
X99247676Y-93047618D01*
X99247676Y-93047618D02*
X99342914Y-93142856D01*
X99342914Y-93142856D02*
X99390533Y-93238094D01*
D12*
%TO.C,SW6*%
X230090000Y-96310000D02*
X230090000Y-91700000D01*
X232850000Y-96310000D02*
X230090000Y-96310000D01*
X234950000Y-96310000D02*
X235550000Y-96310000D01*
X237250000Y-96310000D02*
X238050000Y-96310000D01*
X239750000Y-96310000D02*
X242710000Y-96310000D01*
X242710000Y-91700000D02*
X242710000Y-96310000D01*
X230100000Y-87300000D02*
X230100000Y-82690000D01*
X230100000Y-82690000D02*
X232800000Y-82690000D01*
X235000000Y-82690000D02*
X237800000Y-82690000D01*
X240000000Y-82690000D02*
X242710000Y-82690000D01*
X242710000Y-82690000D02*
X242710000Y-87300000D01*
%TO.C,SW5*%
X204090000Y-96310000D02*
X204090000Y-91700000D01*
X206850000Y-96310000D02*
X204090000Y-96310000D01*
X208950000Y-96310000D02*
X209550000Y-96310000D01*
X211250000Y-96310000D02*
X212050000Y-96310000D01*
X213750000Y-96310000D02*
X216710000Y-96310000D01*
X216710000Y-91700000D02*
X216710000Y-96310000D01*
X204100000Y-87300000D02*
X204100000Y-82690000D01*
X204100000Y-82690000D02*
X206800000Y-82690000D01*
X209000000Y-82690000D02*
X211800000Y-82690000D01*
X214000000Y-82690000D02*
X216710000Y-82690000D01*
X216710000Y-82690000D02*
X216710000Y-87300000D01*
%TO.C,SW4*%
X178190000Y-96310000D02*
X178190000Y-91700000D01*
X180950000Y-96310000D02*
X178190000Y-96310000D01*
X183050000Y-96310000D02*
X183650000Y-96310000D01*
X185350000Y-96310000D02*
X186150000Y-96310000D01*
X187850000Y-96310000D02*
X190810000Y-96310000D01*
X190810000Y-91700000D02*
X190810000Y-96310000D01*
X178200000Y-87300000D02*
X178200000Y-82690000D01*
X178200000Y-82690000D02*
X180900000Y-82690000D01*
X183100000Y-82690000D02*
X185900000Y-82690000D01*
X188100000Y-82690000D02*
X190810000Y-82690000D01*
X190810000Y-82690000D02*
X190810000Y-87300000D01*
%TO.C,SW3*%
X152490000Y-96310000D02*
X152490000Y-91700000D01*
X155250000Y-96310000D02*
X152490000Y-96310000D01*
X157350000Y-96310000D02*
X157950000Y-96310000D01*
X159650000Y-96310000D02*
X160450000Y-96310000D01*
X162150000Y-96310000D02*
X165110000Y-96310000D01*
X165110000Y-91700000D02*
X165110000Y-96310000D01*
X152500000Y-87300000D02*
X152500000Y-82690000D01*
X152500000Y-82690000D02*
X155200000Y-82690000D01*
X157400000Y-82690000D02*
X160200000Y-82690000D01*
X162400000Y-82690000D02*
X165110000Y-82690000D01*
X165110000Y-82690000D02*
X165110000Y-87300000D01*
%TO.C,SW2*%
X126590000Y-96310000D02*
X126590000Y-91700000D01*
X129350000Y-96310000D02*
X126590000Y-96310000D01*
X131450000Y-96310000D02*
X132050000Y-96310000D01*
X133750000Y-96310000D02*
X134550000Y-96310000D01*
X136250000Y-96310000D02*
X139210000Y-96310000D01*
X139210000Y-91700000D02*
X139210000Y-96310000D01*
X126600000Y-87300000D02*
X126600000Y-82690000D01*
X126600000Y-82690000D02*
X129300000Y-82690000D01*
X131500000Y-82690000D02*
X134300000Y-82690000D01*
X136500000Y-82690000D02*
X139210000Y-82690000D01*
X139210000Y-82690000D02*
X139210000Y-87300000D01*
%TO.C,SW1*%
X100590000Y-96310000D02*
X100590000Y-91700000D01*
X103350000Y-96310000D02*
X100590000Y-96310000D01*
X105450000Y-96310000D02*
X106050000Y-96310000D01*
X107750000Y-96310000D02*
X108550000Y-96310000D01*
X110250000Y-96310000D02*
X113210000Y-96310000D01*
X113210000Y-91700000D02*
X113210000Y-96310000D01*
X100600000Y-87300000D02*
X100600000Y-82690000D01*
X100600000Y-82690000D02*
X103300000Y-82690000D01*
X105500000Y-82690000D02*
X108300000Y-82690000D01*
X110500000Y-82690000D02*
X113210000Y-82690000D01*
X113210000Y-82690000D02*
X113210000Y-87300000D01*
%TD*%
M02*
