%TF.GenerationSoftware,KiCad,Pcbnew,8.0.5-dirty*%
%TF.CreationDate,2024-11-08T09:40:44-06:00*%
%TF.ProjectId,buttonbox,62757474-6f6e-4626-9f78-2e6b69636164,rev?*%
%TF.SameCoordinates,Original*%
%TF.FileFunction,Copper,L2,Bot*%
%TF.FilePolarity,Positive*%
%FSLAX46Y46*%
G04 Gerber Fmt 4.6, Leading zero omitted, Abs format (unit mm)*
G04 Created by KiCad (PCBNEW 8.0.5-dirty) date 2024-11-08 09:40:44*
%MOMM*%
%LPD*%
G01*
G04 APERTURE LIST*
G04 Aperture macros list*
%AMRoundRect*
0 Rectangle with rounded corners*
0 $1 Rounding radius*
0 $2 $3 $4 $5 $6 $7 $8 $9 X,Y pos of 4 corners*
0 Add a 4 corners polygon primitive as box body*
4,1,4,$2,$3,$4,$5,$6,$7,$8,$9,$2,$3,0*
0 Add four circle primitives for the rounded corners*
1,1,$1+$1,$2,$3*
1,1,$1+$1,$4,$5*
1,1,$1+$1,$6,$7*
1,1,$1+$1,$8,$9*
0 Add four rect primitives between the rounded corners*
20,1,$1+$1,$2,$3,$4,$5,0*
20,1,$1+$1,$4,$5,$6,$7,0*
20,1,$1+$1,$6,$7,$8,$9,0*
20,1,$1+$1,$8,$9,$2,$3,0*%
G04 Aperture macros list end*
%TA.AperFunction,ComponentPad*%
%ADD10R,1.600000X1.600000*%
%TD*%
%TA.AperFunction,ComponentPad*%
%ADD11O,1.600000X1.600000*%
%TD*%
%TA.AperFunction,ComponentPad*%
%ADD12RoundRect,0.250000X0.550000X-0.550000X0.550000X0.550000X-0.550000X0.550000X-0.550000X-0.550000X0*%
%TD*%
%TA.AperFunction,ComponentPad*%
%ADD13C,1.600000*%
%TD*%
%TA.AperFunction,ComponentPad*%
%ADD14O,3.000000X4.100000*%
%TD*%
G04 APERTURE END LIST*
D10*
%TO.P,Arduino,1,D16*%
%TO.N,D16*%
X93480000Y-97260000D03*
D11*
%TO.P,Arduino,17,D12/A11*%
%TO.N,D12*%
X52840000Y-97260000D03*
%TO.P,Arduino,2,D17*%
%TO.N,D17*%
X90940000Y-97260000D03*
%TO.P,Arduino,18,~D13*%
%TO.N,D13*%
X52840000Y-82020000D03*
%TO.P,Arduino,3,D1/TX*%
%TO.N,D1*%
X88400000Y-97260000D03*
%TO.P,Arduino,19,3V3*%
%TO.N,unconnected-(U1-3V3-Pad19)*%
X55380000Y-82020000D03*
%TO.P,Arduino,4,D0/RX*%
%TO.N,D0*%
X85860000Y-97260000D03*
%TO.P,Arduino,20,AREF*%
%TO.N,unconnected-(U1-AREF-Pad20)*%
X57920000Y-82020000D03*
%TO.P,Arduino,5,RESET*%
%TO.N,unconnected-(U1-RESET-Pad5)*%
X83320000Y-97260000D03*
%TO.P,Arduino,21,A0/D18*%
%TO.N,D18*%
X60460000Y-82020000D03*
%TO.P,Arduino,6,GND*%
%TO.N,GND*%
X80780000Y-97260000D03*
%TO.P,Arduino,22,A1/D19*%
%TO.N,D19*%
X63000000Y-82020000D03*
%TO.P,Arduino,7,D2/SDA*%
%TO.N,D2*%
X78240000Y-97260000D03*
%TO.P,Arduino,23,A2/D20*%
%TO.N,D20*%
X65540000Y-82020000D03*
%TO.P,Arduino,8,~D3/SCL*%
%TO.N,D3*%
X75700000Y-97260000D03*
%TO.P,Arduino,24,A3/D21*%
%TO.N,D21*%
X68080000Y-82020000D03*
%TO.P,Arduino,9,D4/A6*%
%TO.N,D4*%
X73160000Y-97260000D03*
%TO.P,Arduino,25,A4/D22*%
%TO.N,D22*%
X70620000Y-82020000D03*
%TO.P,Arduino,10,~D5*%
%TO.N,D5*%
X70620000Y-97260000D03*
%TO.P,Arduino,26,A5/D23*%
%TO.N,D23*%
X73160000Y-82020000D03*
%TO.P,Arduino,11,~D6/A7*%
%TO.N,D6*%
X68080000Y-97260000D03*
%TO.P,Arduino,27,NC*%
%TO.N,unconnected-(U1-NC-Pad27)*%
X75700000Y-82020000D03*
%TO.P,Arduino,12,D7*%
%TO.N,D7*%
X65540000Y-97260000D03*
%TO.P,Arduino,28,NC*%
%TO.N,unconnected-(U1-NC-Pad28)*%
X78240000Y-82020000D03*
%TO.P,Arduino,13,D8/A8*%
%TO.N,D8*%
X63000000Y-97260000D03*
%TO.P,Arduino,29,+5V*%
%TO.N,unconnected-(U1-+5V-Pad29)*%
X80780000Y-82020000D03*
%TO.P,Arduino,14,~D9/A9*%
%TO.N,D9*%
X60460000Y-97260000D03*
%TO.P,Arduino,30,RESET*%
%TO.N,unconnected-(U1-RESET-Pad30)*%
X83320000Y-82020000D03*
%TO.P,Arduino,15,~D10/A10*%
%TO.N,D10*%
X57920000Y-97260000D03*
%TO.P,Arduino,16,~D11*%
%TO.N,D11*%
X55380000Y-97260000D03*
%TO.P,Arduino,31,GND*%
%TO.N,GND2*%
X85860000Y-82020000D03*
%TO.P,Arduino,32,VIN*%
%TO.N,unconnected-(U1-VIN-Pad32)*%
X88400000Y-82020000D03*
%TO.P,Arduino,33,D14*%
%TO.N,D14*%
X90940000Y-82020000D03*
%TO.P,Arduino,34,D15*%
%TO.N,D15*%
X93480000Y-82020000D03*
%TD*%
D12*
%TO.P,SW6,A,A*%
%TO.N,D8*%
X233900000Y-97000000D03*
D13*
%TO.P,SW6,B,B*%
%TO.N,D19*%
X238900000Y-97000000D03*
%TO.P,SW6,C,C*%
%TO.N,GND*%
X236400000Y-97000000D03*
%TO.P,SW6,S1,S1*%
%TO.N,D20*%
X233900000Y-82500000D03*
%TO.P,SW6,S2,S2*%
%TO.N,GND2*%
X238900000Y-82500000D03*
D14*
%TO.P,SW6,SH*%
%TO.N,N/C*%
X230800000Y-89500000D03*
X242000000Y-89500000D03*
%TD*%
D12*
%TO.P,SW5,A,A*%
%TO.N,D6*%
X207900000Y-97000000D03*
D13*
%TO.P,SW5,B,B*%
%TO.N,D7*%
X212900000Y-97000000D03*
%TO.P,SW5,C,C*%
%TO.N,GND*%
X210400000Y-97000000D03*
%TO.P,SW5,S1,S1*%
%TO.N,D21*%
X207900000Y-82500000D03*
%TO.P,SW5,S2,S2*%
%TO.N,GND2*%
X212900000Y-82500000D03*
D14*
%TO.P,SW5,SH*%
%TO.N,N/C*%
X204800000Y-89500000D03*
X216000000Y-89500000D03*
%TD*%
D12*
%TO.P,SW4,A,A*%
%TO.N,D4*%
X182000000Y-97000000D03*
D13*
%TO.P,SW4,B,B*%
%TO.N,D5*%
X187000000Y-97000000D03*
%TO.P,SW4,C,C*%
%TO.N,GND*%
X184500000Y-97000000D03*
%TO.P,SW4,S1,S1*%
%TO.N,D22*%
X182000000Y-82500000D03*
%TO.P,SW4,S2,S2*%
%TO.N,GND2*%
X187000000Y-82500000D03*
D14*
%TO.P,SW4,SH*%
%TO.N,N/C*%
X178900000Y-89500000D03*
X190100000Y-89500000D03*
%TD*%
D12*
%TO.P,SW3,A,A*%
%TO.N,D2*%
X156300000Y-97000000D03*
D13*
%TO.P,SW3,B,B*%
%TO.N,D3*%
X161300000Y-97000000D03*
%TO.P,SW3,C,C*%
%TO.N,GND*%
X158800000Y-97000000D03*
%TO.P,SW3,S1,S1*%
%TO.N,D23*%
X156300000Y-82500000D03*
%TO.P,SW3,S2,S2*%
%TO.N,GND2*%
X161300000Y-82500000D03*
D14*
%TO.P,SW3,SH*%
%TO.N,N/C*%
X153200000Y-89500000D03*
X164400000Y-89500000D03*
%TD*%
D12*
%TO.P,SW2,A,A*%
%TO.N,D1*%
X130400000Y-97000000D03*
D13*
%TO.P,SW2,B,B*%
%TO.N,D0*%
X135400000Y-97000000D03*
%TO.P,SW2,C,C*%
%TO.N,GND*%
X132900000Y-97000000D03*
%TO.P,SW2,S1,S1*%
%TO.N,D14*%
X130400000Y-82500000D03*
%TO.P,SW2,S2,S2*%
%TO.N,GND2*%
X135400000Y-82500000D03*
D14*
%TO.P,SW2,SH*%
%TO.N,N/C*%
X127300000Y-89500000D03*
X138500000Y-89500000D03*
%TD*%
D12*
%TO.P,SW1,A,A*%
%TO.N,D16*%
X104400000Y-97000000D03*
D13*
%TO.P,SW1,B,B*%
%TO.N,D17*%
X109400000Y-97000000D03*
%TO.P,SW1,C,C*%
%TO.N,GND*%
X106900000Y-97000000D03*
%TO.P,SW1,S1,S1*%
%TO.N,D15*%
X104400000Y-82500000D03*
%TO.P,SW1,S2,S2*%
%TO.N,GND2*%
X109400000Y-82500000D03*
D14*
%TO.P,SW1,SH*%
%TO.N,N/C*%
X101300000Y-89500000D03*
X112500000Y-89500000D03*
%TD*%
%TA.AperFunction,NonConductor*%
G36*
X246942539Y-75020185D02*
G01*
X246988294Y-75072989D01*
X246999500Y-75124500D01*
X246999500Y-103875500D01*
X246979815Y-103942539D01*
X246927011Y-103988294D01*
X246875500Y-103999500D01*
X48124500Y-103999500D01*
X48057461Y-103979815D01*
X48011706Y-103927011D01*
X48000500Y-103875500D01*
X48000500Y-101393713D01*
X49149500Y-101393713D01*
X49149500Y-101606286D01*
X49182753Y-101816239D01*
X49248444Y-102018414D01*
X49344951Y-102207820D01*
X49469890Y-102379786D01*
X49620213Y-102530109D01*
X49792179Y-102655048D01*
X49792181Y-102655049D01*
X49792184Y-102655051D01*
X49981588Y-102751557D01*
X50183757Y-102817246D01*
X50393713Y-102850500D01*
X50393714Y-102850500D01*
X50606286Y-102850500D01*
X50606287Y-102850500D01*
X50816243Y-102817246D01*
X51018412Y-102751557D01*
X51207816Y-102655051D01*
X51229789Y-102639086D01*
X51379786Y-102530109D01*
X51379788Y-102530106D01*
X51379792Y-102530104D01*
X51530104Y-102379792D01*
X51530106Y-102379788D01*
X51530109Y-102379786D01*
X51655048Y-102207820D01*
X51655047Y-102207820D01*
X51655051Y-102207816D01*
X51751557Y-102018412D01*
X51817246Y-101816243D01*
X51850500Y-101606287D01*
X51850500Y-101393713D01*
X243149500Y-101393713D01*
X243149500Y-101606286D01*
X243182753Y-101816239D01*
X243248444Y-102018414D01*
X243344951Y-102207820D01*
X243469890Y-102379786D01*
X243620213Y-102530109D01*
X243792179Y-102655048D01*
X243792181Y-102655049D01*
X243792184Y-102655051D01*
X243981588Y-102751557D01*
X244183757Y-102817246D01*
X244393713Y-102850500D01*
X244393714Y-102850500D01*
X244606286Y-102850500D01*
X244606287Y-102850500D01*
X244816243Y-102817246D01*
X245018412Y-102751557D01*
X245207816Y-102655051D01*
X245229789Y-102639086D01*
X245379786Y-102530109D01*
X245379788Y-102530106D01*
X245379792Y-102530104D01*
X245530104Y-102379792D01*
X245530106Y-102379788D01*
X245530109Y-102379786D01*
X245655048Y-102207820D01*
X245655047Y-102207820D01*
X245655051Y-102207816D01*
X245751557Y-102018412D01*
X245817246Y-101816243D01*
X245850500Y-101606287D01*
X245850500Y-101393713D01*
X245817246Y-101183757D01*
X245751557Y-100981588D01*
X245655051Y-100792184D01*
X245655049Y-100792181D01*
X245655048Y-100792179D01*
X245530109Y-100620213D01*
X245379786Y-100469890D01*
X245207820Y-100344951D01*
X245018414Y-100248444D01*
X245018413Y-100248443D01*
X245018412Y-100248443D01*
X244816243Y-100182754D01*
X244816241Y-100182753D01*
X244816240Y-100182753D01*
X244654957Y-100157208D01*
X244606287Y-100149500D01*
X244393713Y-100149500D01*
X244345042Y-100157208D01*
X244183760Y-100182753D01*
X243981585Y-100248444D01*
X243792179Y-100344951D01*
X243620213Y-100469890D01*
X243469890Y-100620213D01*
X243344951Y-100792179D01*
X243248444Y-100981585D01*
X243182753Y-101183760D01*
X243149500Y-101393713D01*
X51850500Y-101393713D01*
X51817246Y-101183757D01*
X51751557Y-100981588D01*
X51655051Y-100792184D01*
X51655049Y-100792181D01*
X51655048Y-100792179D01*
X51530109Y-100620213D01*
X51379786Y-100469890D01*
X51207820Y-100344951D01*
X51018414Y-100248444D01*
X51018413Y-100248443D01*
X51018412Y-100248443D01*
X50816243Y-100182754D01*
X50816241Y-100182753D01*
X50816240Y-100182753D01*
X50654957Y-100157208D01*
X50606287Y-100149500D01*
X50393713Y-100149500D01*
X50345042Y-100157208D01*
X50183760Y-100182753D01*
X49981585Y-100248444D01*
X49792179Y-100344951D01*
X49620213Y-100469890D01*
X49469890Y-100620213D01*
X49344951Y-100792179D01*
X49248444Y-100981585D01*
X49182753Y-101183760D01*
X49149500Y-101393713D01*
X48000500Y-101393713D01*
X48000500Y-97259998D01*
X51534532Y-97259998D01*
X51534532Y-97260001D01*
X51554364Y-97486686D01*
X51554366Y-97486697D01*
X51613258Y-97706488D01*
X51613261Y-97706497D01*
X51709431Y-97912732D01*
X51709432Y-97912734D01*
X51839954Y-98099141D01*
X52000858Y-98260045D01*
X52000861Y-98260047D01*
X52187266Y-98390568D01*
X52393504Y-98486739D01*
X52613308Y-98545635D01*
X52775230Y-98559801D01*
X52839998Y-98565468D01*
X52840000Y-98565468D01*
X52840002Y-98565468D01*
X52896807Y-98560498D01*
X53066692Y-98545635D01*
X53286496Y-98486739D01*
X53492734Y-98390568D01*
X53679139Y-98260047D01*
X53840047Y-98099139D01*
X53970568Y-97912734D01*
X53997618Y-97854724D01*
X54043790Y-97802285D01*
X54110983Y-97783133D01*
X54177865Y-97803348D01*
X54222382Y-97854725D01*
X54249429Y-97912728D01*
X54249432Y-97912734D01*
X54379954Y-98099141D01*
X54540858Y-98260045D01*
X54540861Y-98260047D01*
X54727266Y-98390568D01*
X54933504Y-98486739D01*
X55153308Y-98545635D01*
X55315230Y-98559801D01*
X55379998Y-98565468D01*
X55380000Y-98565468D01*
X55380002Y-98565468D01*
X55436807Y-98560498D01*
X55606692Y-98545635D01*
X55826496Y-98486739D01*
X56032734Y-98390568D01*
X56219139Y-98260047D01*
X56380047Y-98099139D01*
X56510568Y-97912734D01*
X56537618Y-97854724D01*
X56583790Y-97802285D01*
X56650983Y-97783133D01*
X56717865Y-97803348D01*
X56762382Y-97854725D01*
X56789429Y-97912728D01*
X56789432Y-97912734D01*
X56919954Y-98099141D01*
X57080858Y-98260045D01*
X57080861Y-98260047D01*
X57267266Y-98390568D01*
X57473504Y-98486739D01*
X57693308Y-98545635D01*
X57855230Y-98559801D01*
X57919998Y-98565468D01*
X57920000Y-98565468D01*
X57920002Y-98565468D01*
X57976807Y-98560498D01*
X58146692Y-98545635D01*
X58366496Y-98486739D01*
X58572734Y-98390568D01*
X58759139Y-98260047D01*
X58920047Y-98099139D01*
X59050568Y-97912734D01*
X59077618Y-97854724D01*
X59123790Y-97802285D01*
X59190983Y-97783133D01*
X59257865Y-97803348D01*
X59302382Y-97854725D01*
X59329429Y-97912728D01*
X59329432Y-97912734D01*
X59459954Y-98099141D01*
X59620858Y-98260045D01*
X59620861Y-98260047D01*
X59807266Y-98390568D01*
X60013504Y-98486739D01*
X60233308Y-98545635D01*
X60395230Y-98559801D01*
X60459998Y-98565468D01*
X60460000Y-98565468D01*
X60460002Y-98565468D01*
X60516807Y-98560498D01*
X60686692Y-98545635D01*
X60906496Y-98486739D01*
X61112734Y-98390568D01*
X61299139Y-98260047D01*
X61460047Y-98099139D01*
X61590568Y-97912734D01*
X61617618Y-97854724D01*
X61663790Y-97802285D01*
X61730983Y-97783133D01*
X61797865Y-97803348D01*
X61842382Y-97854725D01*
X61869429Y-97912728D01*
X61869432Y-97912734D01*
X61999954Y-98099141D01*
X62160858Y-98260045D01*
X62160861Y-98260047D01*
X62347266Y-98390568D01*
X62553504Y-98486739D01*
X62773308Y-98545635D01*
X62935230Y-98559801D01*
X62999998Y-98565468D01*
X63000000Y-98565468D01*
X63000002Y-98565468D01*
X63056807Y-98560498D01*
X63226692Y-98545635D01*
X63446496Y-98486739D01*
X63652734Y-98390568D01*
X63839139Y-98260047D01*
X64000047Y-98099139D01*
X64130568Y-97912734D01*
X64157618Y-97854724D01*
X64203790Y-97802285D01*
X64270983Y-97783133D01*
X64337865Y-97803348D01*
X64382382Y-97854725D01*
X64409429Y-97912728D01*
X64409432Y-97912734D01*
X64539954Y-98099141D01*
X64700858Y-98260045D01*
X64700861Y-98260047D01*
X64887266Y-98390568D01*
X65093504Y-98486739D01*
X65313308Y-98545635D01*
X65475230Y-98559801D01*
X65539998Y-98565468D01*
X65540000Y-98565468D01*
X65540002Y-98565468D01*
X65596807Y-98560498D01*
X65766692Y-98545635D01*
X65986496Y-98486739D01*
X66192734Y-98390568D01*
X66379139Y-98260047D01*
X66540047Y-98099139D01*
X66670568Y-97912734D01*
X66697618Y-97854724D01*
X66743790Y-97802285D01*
X66810983Y-97783133D01*
X66877865Y-97803348D01*
X66922382Y-97854725D01*
X66949429Y-97912728D01*
X66949432Y-97912734D01*
X67079954Y-98099141D01*
X67240858Y-98260045D01*
X67240861Y-98260047D01*
X67427266Y-98390568D01*
X67633504Y-98486739D01*
X67853308Y-98545635D01*
X68015230Y-98559801D01*
X68079998Y-98565468D01*
X68080000Y-98565468D01*
X68080002Y-98565468D01*
X68136807Y-98560498D01*
X68306692Y-98545635D01*
X68526496Y-98486739D01*
X68732734Y-98390568D01*
X68919139Y-98260047D01*
X69080047Y-98099139D01*
X69210568Y-97912734D01*
X69237618Y-97854724D01*
X69283790Y-97802285D01*
X69350983Y-97783133D01*
X69417865Y-97803348D01*
X69462382Y-97854725D01*
X69489429Y-97912728D01*
X69489432Y-97912734D01*
X69619954Y-98099141D01*
X69780858Y-98260045D01*
X69780861Y-98260047D01*
X69967266Y-98390568D01*
X70173504Y-98486739D01*
X70393308Y-98545635D01*
X70555230Y-98559801D01*
X70619998Y-98565468D01*
X70620000Y-98565468D01*
X70620002Y-98565468D01*
X70676807Y-98560498D01*
X70846692Y-98545635D01*
X71066496Y-98486739D01*
X71272734Y-98390568D01*
X71459139Y-98260047D01*
X71620047Y-98099139D01*
X71750568Y-97912734D01*
X71777618Y-97854724D01*
X71823790Y-97802285D01*
X71890983Y-97783133D01*
X71957865Y-97803348D01*
X72002382Y-97854725D01*
X72029429Y-97912728D01*
X72029432Y-97912734D01*
X72159954Y-98099141D01*
X72320858Y-98260045D01*
X72320861Y-98260047D01*
X72507266Y-98390568D01*
X72713504Y-98486739D01*
X72933308Y-98545635D01*
X73095230Y-98559801D01*
X73159998Y-98565468D01*
X73160000Y-98565468D01*
X73160002Y-98565468D01*
X73216807Y-98560498D01*
X73386692Y-98545635D01*
X73606496Y-98486739D01*
X73812734Y-98390568D01*
X73999139Y-98260047D01*
X74160047Y-98099139D01*
X74290568Y-97912734D01*
X74317618Y-97854724D01*
X74363790Y-97802285D01*
X74430983Y-97783133D01*
X74497865Y-97803348D01*
X74542382Y-97854725D01*
X74569429Y-97912728D01*
X74569432Y-97912734D01*
X74699954Y-98099141D01*
X74860858Y-98260045D01*
X74860861Y-98260047D01*
X75047266Y-98390568D01*
X75253504Y-98486739D01*
X75473308Y-98545635D01*
X75635230Y-98559801D01*
X75699998Y-98565468D01*
X75700000Y-98565468D01*
X75700002Y-98565468D01*
X75756807Y-98560498D01*
X75926692Y-98545635D01*
X76146496Y-98486739D01*
X76352734Y-98390568D01*
X76539139Y-98260047D01*
X76700047Y-98099139D01*
X76830568Y-97912734D01*
X76857618Y-97854724D01*
X76903790Y-97802285D01*
X76970983Y-97783133D01*
X77037865Y-97803348D01*
X77082382Y-97854725D01*
X77109429Y-97912728D01*
X77109432Y-97912734D01*
X77239954Y-98099141D01*
X77400858Y-98260045D01*
X77400861Y-98260047D01*
X77587266Y-98390568D01*
X77793504Y-98486739D01*
X78013308Y-98545635D01*
X78175230Y-98559801D01*
X78239998Y-98565468D01*
X78240000Y-98565468D01*
X78240002Y-98565468D01*
X78296807Y-98560498D01*
X78466692Y-98545635D01*
X78686496Y-98486739D01*
X78892734Y-98390568D01*
X79079139Y-98260047D01*
X79240047Y-98099139D01*
X79370568Y-97912734D01*
X79397618Y-97854724D01*
X79443790Y-97802285D01*
X79510983Y-97783133D01*
X79577865Y-97803348D01*
X79622382Y-97854725D01*
X79649429Y-97912728D01*
X79649432Y-97912734D01*
X79779954Y-98099141D01*
X79940858Y-98260045D01*
X79940861Y-98260047D01*
X80127266Y-98390568D01*
X80333504Y-98486739D01*
X80553308Y-98545635D01*
X80715230Y-98559801D01*
X80779998Y-98565468D01*
X80780000Y-98565468D01*
X80780002Y-98565468D01*
X80836807Y-98560498D01*
X81006692Y-98545635D01*
X81226496Y-98486739D01*
X81432734Y-98390568D01*
X81619139Y-98260047D01*
X81780047Y-98099139D01*
X81910568Y-97912734D01*
X81937618Y-97854724D01*
X81983790Y-97802285D01*
X82050983Y-97783133D01*
X82117865Y-97803348D01*
X82162382Y-97854725D01*
X82189429Y-97912728D01*
X82189432Y-97912734D01*
X82319954Y-98099141D01*
X82480858Y-98260045D01*
X82480861Y-98260047D01*
X82667266Y-98390568D01*
X82873504Y-98486739D01*
X83093308Y-98545635D01*
X83255230Y-98559801D01*
X83319998Y-98565468D01*
X83320000Y-98565468D01*
X83320002Y-98565468D01*
X83376807Y-98560498D01*
X83546692Y-98545635D01*
X83766496Y-98486739D01*
X83972734Y-98390568D01*
X84159139Y-98260047D01*
X84320047Y-98099139D01*
X84450568Y-97912734D01*
X84477618Y-97854724D01*
X84523790Y-97802285D01*
X84590983Y-97783133D01*
X84657865Y-97803348D01*
X84702382Y-97854725D01*
X84729429Y-97912728D01*
X84729432Y-97912734D01*
X84859954Y-98099141D01*
X85020858Y-98260045D01*
X85020861Y-98260047D01*
X85207266Y-98390568D01*
X85413504Y-98486739D01*
X85633308Y-98545635D01*
X85795230Y-98559801D01*
X85859998Y-98565468D01*
X85860000Y-98565468D01*
X85860002Y-98565468D01*
X85916807Y-98560498D01*
X86086692Y-98545635D01*
X86306496Y-98486739D01*
X86512734Y-98390568D01*
X86699139Y-98260047D01*
X86860047Y-98099139D01*
X86990568Y-97912734D01*
X87017618Y-97854724D01*
X87063790Y-97802285D01*
X87130983Y-97783133D01*
X87197865Y-97803348D01*
X87242382Y-97854725D01*
X87269429Y-97912728D01*
X87269432Y-97912734D01*
X87399954Y-98099141D01*
X87560858Y-98260045D01*
X87560861Y-98260047D01*
X87747266Y-98390568D01*
X87953504Y-98486739D01*
X88173308Y-98545635D01*
X88335230Y-98559801D01*
X88399998Y-98565468D01*
X88400000Y-98565468D01*
X88400002Y-98565468D01*
X88456807Y-98560498D01*
X88626692Y-98545635D01*
X88846496Y-98486739D01*
X89052734Y-98390568D01*
X89239139Y-98260047D01*
X89400047Y-98099139D01*
X89530568Y-97912734D01*
X89557618Y-97854724D01*
X89603790Y-97802285D01*
X89670983Y-97783133D01*
X89737865Y-97803348D01*
X89782382Y-97854725D01*
X89809429Y-97912728D01*
X89809432Y-97912734D01*
X89939954Y-98099141D01*
X90100858Y-98260045D01*
X90100861Y-98260047D01*
X90287266Y-98390568D01*
X90493504Y-98486739D01*
X90713308Y-98545635D01*
X90875230Y-98559801D01*
X90939998Y-98565468D01*
X90940000Y-98565468D01*
X90940002Y-98565468D01*
X90996807Y-98560498D01*
X91166692Y-98545635D01*
X91386496Y-98486739D01*
X91592734Y-98390568D01*
X91779139Y-98260047D01*
X91940047Y-98099139D01*
X91957272Y-98074539D01*
X92011848Y-98030913D01*
X92081346Y-98023718D01*
X92143701Y-98055239D01*
X92179116Y-98115468D01*
X92182138Y-98132406D01*
X92185908Y-98167483D01*
X92236202Y-98302328D01*
X92236206Y-98302335D01*
X92322452Y-98417544D01*
X92322455Y-98417547D01*
X92437664Y-98503793D01*
X92437671Y-98503797D01*
X92572517Y-98554091D01*
X92572516Y-98554091D01*
X92579444Y-98554835D01*
X92632127Y-98560500D01*
X94327872Y-98560499D01*
X94387483Y-98554091D01*
X94522331Y-98503796D01*
X94637546Y-98417546D01*
X94723796Y-98302331D01*
X94774091Y-98167483D01*
X94780500Y-98107873D01*
X94780499Y-96412128D01*
X94779193Y-96399983D01*
X103099500Y-96399983D01*
X103099500Y-97600001D01*
X103099501Y-97600018D01*
X103110000Y-97702796D01*
X103110001Y-97702799D01*
X103140244Y-97794065D01*
X103165186Y-97869334D01*
X103257288Y-98018656D01*
X103381344Y-98142712D01*
X103530666Y-98234814D01*
X103697203Y-98289999D01*
X103799991Y-98300500D01*
X105000008Y-98300499D01*
X105102797Y-98289999D01*
X105269334Y-98234814D01*
X105418656Y-98142712D01*
X105542712Y-98018656D01*
X105634814Y-97869334D01*
X105649112Y-97826185D01*
X105688882Y-97768741D01*
X105753398Y-97741917D01*
X105822174Y-97754231D01*
X105868392Y-97794065D01*
X105899956Y-97839143D01*
X106060858Y-98000045D01*
X106060861Y-98000047D01*
X106247266Y-98130568D01*
X106453504Y-98226739D01*
X106673308Y-98285635D01*
X106835230Y-98299801D01*
X106899998Y-98305468D01*
X106900000Y-98305468D01*
X106900002Y-98305468D01*
X106956807Y-98300498D01*
X107126692Y-98285635D01*
X107346496Y-98226739D01*
X107552734Y-98130568D01*
X107739139Y-98000047D01*
X107900047Y-97839139D01*
X108030568Y-97652734D01*
X108037618Y-97637614D01*
X108083789Y-97585176D01*
X108150982Y-97566023D01*
X108217864Y-97586238D01*
X108262381Y-97637614D01*
X108269432Y-97652733D01*
X108269432Y-97652734D01*
X108399954Y-97839141D01*
X108560858Y-98000045D01*
X108560861Y-98000047D01*
X108747266Y-98130568D01*
X108953504Y-98226739D01*
X109173308Y-98285635D01*
X109335230Y-98299801D01*
X109399998Y-98305468D01*
X109400000Y-98305468D01*
X109400002Y-98305468D01*
X109456807Y-98300498D01*
X109626692Y-98285635D01*
X109846496Y-98226739D01*
X110052734Y-98130568D01*
X110239139Y-98000047D01*
X110400047Y-97839139D01*
X110530568Y-97652734D01*
X110626739Y-97446496D01*
X110685635Y-97226692D01*
X110705468Y-97000000D01*
X110685635Y-96773308D01*
X110626739Y-96553504D01*
X110555151Y-96399983D01*
X129099500Y-96399983D01*
X129099500Y-97600001D01*
X129099501Y-97600018D01*
X129110000Y-97702796D01*
X129110001Y-97702799D01*
X129140244Y-97794065D01*
X129165186Y-97869334D01*
X129257288Y-98018656D01*
X129381344Y-98142712D01*
X129530666Y-98234814D01*
X129697203Y-98289999D01*
X129799991Y-98300500D01*
X131000008Y-98300499D01*
X131102797Y-98289999D01*
X131269334Y-98234814D01*
X131418656Y-98142712D01*
X131542712Y-98018656D01*
X131634814Y-97869334D01*
X131649112Y-97826185D01*
X131688882Y-97768741D01*
X131753398Y-97741917D01*
X131822174Y-97754231D01*
X131868392Y-97794065D01*
X131899956Y-97839143D01*
X132060858Y-98000045D01*
X132060861Y-98000047D01*
X132247266Y-98130568D01*
X132453504Y-98226739D01*
X132673308Y-98285635D01*
X132835230Y-98299801D01*
X132899998Y-98305468D01*
X132900000Y-98305468D01*
X132900002Y-98305468D01*
X132956807Y-98300498D01*
X133126692Y-98285635D01*
X133346496Y-98226739D01*
X133552734Y-98130568D01*
X133739139Y-98000047D01*
X133900047Y-97839139D01*
X134030568Y-97652734D01*
X134037618Y-97637614D01*
X134083789Y-97585176D01*
X134150982Y-97566023D01*
X134217864Y-97586238D01*
X134262381Y-97637614D01*
X134269432Y-97652733D01*
X134269432Y-97652734D01*
X134399954Y-97839141D01*
X134560858Y-98000045D01*
X134560861Y-98000047D01*
X134747266Y-98130568D01*
X134953504Y-98226739D01*
X135173308Y-98285635D01*
X135335230Y-98299801D01*
X135399998Y-98305468D01*
X135400000Y-98305468D01*
X135400002Y-98305468D01*
X135456807Y-98300498D01*
X135626692Y-98285635D01*
X135846496Y-98226739D01*
X136052734Y-98130568D01*
X136239139Y-98000047D01*
X136400047Y-97839139D01*
X136530568Y-97652734D01*
X136626739Y-97446496D01*
X136685635Y-97226692D01*
X136705468Y-97000000D01*
X136685635Y-96773308D01*
X136626739Y-96553504D01*
X136555151Y-96399983D01*
X154999500Y-96399983D01*
X154999500Y-97600001D01*
X154999501Y-97600018D01*
X155010000Y-97702796D01*
X155010001Y-97702799D01*
X155040244Y-97794065D01*
X155065186Y-97869334D01*
X155157288Y-98018656D01*
X155281344Y-98142712D01*
X155430666Y-98234814D01*
X155597203Y-98289999D01*
X155699991Y-98300500D01*
X156900008Y-98300499D01*
X157002797Y-98289999D01*
X157169334Y-98234814D01*
X157318656Y-98142712D01*
X157442712Y-98018656D01*
X157534814Y-97869334D01*
X157549112Y-97826185D01*
X157588882Y-97768741D01*
X157653398Y-97741917D01*
X157722174Y-97754231D01*
X157768392Y-97794065D01*
X157799956Y-97839143D01*
X157960858Y-98000045D01*
X157960861Y-98000047D01*
X158147266Y-98130568D01*
X158353504Y-98226739D01*
X158573308Y-98285635D01*
X158735230Y-98299801D01*
X158799998Y-98305468D01*
X158800000Y-98305468D01*
X158800002Y-98305468D01*
X158856807Y-98300498D01*
X159026692Y-98285635D01*
X159246496Y-98226739D01*
X159452734Y-98130568D01*
X159639139Y-98000047D01*
X159800047Y-97839139D01*
X159930568Y-97652734D01*
X159937618Y-97637614D01*
X159983789Y-97585176D01*
X160050982Y-97566023D01*
X160117864Y-97586238D01*
X160162381Y-97637614D01*
X160169432Y-97652733D01*
X160169432Y-97652734D01*
X160299954Y-97839141D01*
X160460858Y-98000045D01*
X160460861Y-98000047D01*
X160647266Y-98130568D01*
X160853504Y-98226739D01*
X161073308Y-98285635D01*
X161235230Y-98299801D01*
X161299998Y-98305468D01*
X161300000Y-98305468D01*
X161300002Y-98305468D01*
X161356807Y-98300498D01*
X161526692Y-98285635D01*
X161746496Y-98226739D01*
X161952734Y-98130568D01*
X162139139Y-98000047D01*
X162300047Y-97839139D01*
X162430568Y-97652734D01*
X162526739Y-97446496D01*
X162585635Y-97226692D01*
X162605468Y-97000000D01*
X162585635Y-96773308D01*
X162526739Y-96553504D01*
X162455151Y-96399983D01*
X180699500Y-96399983D01*
X180699500Y-97600001D01*
X180699501Y-97600018D01*
X180710000Y-97702796D01*
X180710001Y-97702799D01*
X180740244Y-97794065D01*
X180765186Y-97869334D01*
X180857288Y-98018656D01*
X180981344Y-98142712D01*
X181130666Y-98234814D01*
X181297203Y-98289999D01*
X181399991Y-98300500D01*
X182600008Y-98300499D01*
X182702797Y-98289999D01*
X182869334Y-98234814D01*
X183018656Y-98142712D01*
X183142712Y-98018656D01*
X183234814Y-97869334D01*
X183249112Y-97826185D01*
X183288882Y-97768741D01*
X183353398Y-97741917D01*
X183422174Y-97754231D01*
X183468392Y-97794065D01*
X183499956Y-97839143D01*
X183660858Y-98000045D01*
X183660861Y-98000047D01*
X183847266Y-98130568D01*
X184053504Y-98226739D01*
X184273308Y-98285635D01*
X184435230Y-98299801D01*
X184499998Y-98305468D01*
X184500000Y-98305468D01*
X184500002Y-98305468D01*
X184556807Y-98300498D01*
X184726692Y-98285635D01*
X184946496Y-98226739D01*
X185152734Y-98130568D01*
X185339139Y-98000047D01*
X185500047Y-97839139D01*
X185630568Y-97652734D01*
X185637618Y-97637614D01*
X185683789Y-97585176D01*
X185750982Y-97566023D01*
X185817864Y-97586238D01*
X185862381Y-97637614D01*
X185869432Y-97652733D01*
X185869432Y-97652734D01*
X185999954Y-97839141D01*
X186160858Y-98000045D01*
X186160861Y-98000047D01*
X186347266Y-98130568D01*
X186553504Y-98226739D01*
X186773308Y-98285635D01*
X186935230Y-98299801D01*
X186999998Y-98305468D01*
X187000000Y-98305468D01*
X187000002Y-98305468D01*
X187056807Y-98300498D01*
X187226692Y-98285635D01*
X187446496Y-98226739D01*
X187652734Y-98130568D01*
X187839139Y-98000047D01*
X188000047Y-97839139D01*
X188130568Y-97652734D01*
X188226739Y-97446496D01*
X188285635Y-97226692D01*
X188305468Y-97000000D01*
X188285635Y-96773308D01*
X188226739Y-96553504D01*
X188155151Y-96399983D01*
X206599500Y-96399983D01*
X206599500Y-97600001D01*
X206599501Y-97600018D01*
X206610000Y-97702796D01*
X206610001Y-97702799D01*
X206640244Y-97794065D01*
X206665186Y-97869334D01*
X206757288Y-98018656D01*
X206881344Y-98142712D01*
X207030666Y-98234814D01*
X207197203Y-98289999D01*
X207299991Y-98300500D01*
X208500008Y-98300499D01*
X208602797Y-98289999D01*
X208769334Y-98234814D01*
X208918656Y-98142712D01*
X209042712Y-98018656D01*
X209134814Y-97869334D01*
X209149112Y-97826185D01*
X209188882Y-97768741D01*
X209253398Y-97741917D01*
X209322174Y-97754231D01*
X209368392Y-97794065D01*
X209399956Y-97839143D01*
X209560858Y-98000045D01*
X209560861Y-98000047D01*
X209747266Y-98130568D01*
X209953504Y-98226739D01*
X210173308Y-98285635D01*
X210335230Y-98299801D01*
X210399998Y-98305468D01*
X210400000Y-98305468D01*
X210400002Y-98305468D01*
X210456807Y-98300498D01*
X210626692Y-98285635D01*
X210846496Y-98226739D01*
X211052734Y-98130568D01*
X211239139Y-98000047D01*
X211400047Y-97839139D01*
X211530568Y-97652734D01*
X211537618Y-97637614D01*
X211583789Y-97585176D01*
X211650982Y-97566023D01*
X211717864Y-97586238D01*
X211762381Y-97637614D01*
X211769432Y-97652733D01*
X211769432Y-97652734D01*
X211899954Y-97839141D01*
X212060858Y-98000045D01*
X212060861Y-98000047D01*
X212247266Y-98130568D01*
X212453504Y-98226739D01*
X212673308Y-98285635D01*
X212835230Y-98299801D01*
X212899998Y-98305468D01*
X212900000Y-98305468D01*
X212900002Y-98305468D01*
X212956807Y-98300498D01*
X213126692Y-98285635D01*
X213346496Y-98226739D01*
X213552734Y-98130568D01*
X213739139Y-98000047D01*
X213900047Y-97839139D01*
X214030568Y-97652734D01*
X214126739Y-97446496D01*
X214185635Y-97226692D01*
X214205468Y-97000000D01*
X214185635Y-96773308D01*
X214126739Y-96553504D01*
X214055151Y-96399983D01*
X232599500Y-96399983D01*
X232599500Y-97600001D01*
X232599501Y-97600018D01*
X232610000Y-97702796D01*
X232610001Y-97702799D01*
X232640244Y-97794065D01*
X232665186Y-97869334D01*
X232757288Y-98018656D01*
X232881344Y-98142712D01*
X233030666Y-98234814D01*
X233197203Y-98289999D01*
X233299991Y-98300500D01*
X234500008Y-98300499D01*
X234602797Y-98289999D01*
X234769334Y-98234814D01*
X234918656Y-98142712D01*
X235042712Y-98018656D01*
X235134814Y-97869334D01*
X235149112Y-97826185D01*
X235188882Y-97768741D01*
X235253398Y-97741917D01*
X235322174Y-97754231D01*
X235368392Y-97794065D01*
X235399956Y-97839143D01*
X235560858Y-98000045D01*
X235560861Y-98000047D01*
X235747266Y-98130568D01*
X235953504Y-98226739D01*
X236173308Y-98285635D01*
X236335230Y-98299801D01*
X236399998Y-98305468D01*
X236400000Y-98305468D01*
X236400002Y-98305468D01*
X236456807Y-98300498D01*
X236626692Y-98285635D01*
X236846496Y-98226739D01*
X237052734Y-98130568D01*
X237239139Y-98000047D01*
X237400047Y-97839139D01*
X237530568Y-97652734D01*
X237537618Y-97637614D01*
X237583789Y-97585176D01*
X237650982Y-97566023D01*
X237717864Y-97586238D01*
X237762381Y-97637614D01*
X237769432Y-97652733D01*
X237769432Y-97652734D01*
X237899954Y-97839141D01*
X238060858Y-98000045D01*
X238060861Y-98000047D01*
X238247266Y-98130568D01*
X238453504Y-98226739D01*
X238673308Y-98285635D01*
X238835230Y-98299801D01*
X238899998Y-98305468D01*
X238900000Y-98305468D01*
X238900002Y-98305468D01*
X238956807Y-98300498D01*
X239126692Y-98285635D01*
X239346496Y-98226739D01*
X239552734Y-98130568D01*
X239739139Y-98000047D01*
X239900047Y-97839139D01*
X240030568Y-97652734D01*
X240126739Y-97446496D01*
X240185635Y-97226692D01*
X240205468Y-97000000D01*
X240185635Y-96773308D01*
X240126739Y-96553504D01*
X240030568Y-96347266D01*
X239900047Y-96160861D01*
X239900045Y-96160858D01*
X239739141Y-95999954D01*
X239552734Y-95869432D01*
X239552732Y-95869431D01*
X239346497Y-95773261D01*
X239346488Y-95773258D01*
X239126697Y-95714366D01*
X239126693Y-95714365D01*
X239126692Y-95714365D01*
X239126691Y-95714364D01*
X239126686Y-95714364D01*
X238900002Y-95694532D01*
X238899998Y-95694532D01*
X238673313Y-95714364D01*
X238673302Y-95714366D01*
X238453511Y-95773258D01*
X238453502Y-95773261D01*
X238247267Y-95869431D01*
X238247265Y-95869432D01*
X238060858Y-95999954D01*
X237899954Y-96160858D01*
X237804486Y-96297203D01*
X237769432Y-96347266D01*
X237762380Y-96362387D01*
X237716209Y-96414825D01*
X237649015Y-96433976D01*
X237582134Y-96413760D01*
X237537619Y-96362387D01*
X237530568Y-96347266D01*
X237400047Y-96160861D01*
X237400045Y-96160858D01*
X237239141Y-95999954D01*
X237052734Y-95869432D01*
X237052732Y-95869431D01*
X236846497Y-95773261D01*
X236846488Y-95773258D01*
X236626697Y-95714366D01*
X236626693Y-95714365D01*
X236626692Y-95714365D01*
X236626691Y-95714364D01*
X236626686Y-95714364D01*
X236400002Y-95694532D01*
X236399998Y-95694532D01*
X236173313Y-95714364D01*
X236173302Y-95714366D01*
X235953511Y-95773258D01*
X235953502Y-95773261D01*
X235747267Y-95869431D01*
X235747265Y-95869432D01*
X235560858Y-95999954D01*
X235399955Y-96160857D01*
X235368391Y-96205935D01*
X235313814Y-96249559D01*
X235244315Y-96256751D01*
X235181961Y-96225228D01*
X235149112Y-96173814D01*
X235134814Y-96130666D01*
X235042712Y-95981344D01*
X234918656Y-95857288D01*
X234769334Y-95765186D01*
X234602797Y-95710001D01*
X234602795Y-95710000D01*
X234500010Y-95699500D01*
X233299998Y-95699500D01*
X233299981Y-95699501D01*
X233197203Y-95710000D01*
X233197200Y-95710001D01*
X233030668Y-95765185D01*
X233030663Y-95765187D01*
X232881342Y-95857289D01*
X232757289Y-95981342D01*
X232665187Y-96130663D01*
X232665185Y-96130668D01*
X232655181Y-96160858D01*
X232610001Y-96297203D01*
X232610001Y-96297204D01*
X232610000Y-96297204D01*
X232599500Y-96399983D01*
X214055151Y-96399983D01*
X214030568Y-96347266D01*
X213900047Y-96160861D01*
X213900045Y-96160858D01*
X213739141Y-95999954D01*
X213552734Y-95869432D01*
X213552732Y-95869431D01*
X213346497Y-95773261D01*
X213346488Y-95773258D01*
X213126697Y-95714366D01*
X213126693Y-95714365D01*
X213126692Y-95714365D01*
X213126691Y-95714364D01*
X213126686Y-95714364D01*
X212900002Y-95694532D01*
X212899998Y-95694532D01*
X212673313Y-95714364D01*
X212673302Y-95714366D01*
X212453511Y-95773258D01*
X212453502Y-95773261D01*
X212247267Y-95869431D01*
X212247265Y-95869432D01*
X212060858Y-95999954D01*
X211899954Y-96160858D01*
X211804486Y-96297203D01*
X211769432Y-96347266D01*
X211762380Y-96362387D01*
X211716209Y-96414825D01*
X211649015Y-96433976D01*
X211582134Y-96413760D01*
X211537619Y-96362387D01*
X211530568Y-96347266D01*
X211400047Y-96160861D01*
X211400045Y-96160858D01*
X211239141Y-95999954D01*
X211052734Y-95869432D01*
X211052732Y-95869431D01*
X210846497Y-95773261D01*
X210846488Y-95773258D01*
X210626697Y-95714366D01*
X210626693Y-95714365D01*
X210626692Y-95714365D01*
X210626691Y-95714364D01*
X210626686Y-95714364D01*
X210400002Y-95694532D01*
X210399998Y-95694532D01*
X210173313Y-95714364D01*
X210173302Y-95714366D01*
X209953511Y-95773258D01*
X209953502Y-95773261D01*
X209747267Y-95869431D01*
X209747265Y-95869432D01*
X209560858Y-95999954D01*
X209399955Y-96160857D01*
X209368391Y-96205935D01*
X209313814Y-96249559D01*
X209244315Y-96256751D01*
X209181961Y-96225228D01*
X209149112Y-96173814D01*
X209134814Y-96130666D01*
X209042712Y-95981344D01*
X208918656Y-95857288D01*
X208769334Y-95765186D01*
X208602797Y-95710001D01*
X208602795Y-95710000D01*
X208500010Y-95699500D01*
X207299998Y-95699500D01*
X207299981Y-95699501D01*
X207197203Y-95710000D01*
X207197200Y-95710001D01*
X207030668Y-95765185D01*
X207030663Y-95765187D01*
X206881342Y-95857289D01*
X206757289Y-95981342D01*
X206665187Y-96130663D01*
X206665185Y-96130668D01*
X206655181Y-96160858D01*
X206610001Y-96297203D01*
X206610001Y-96297204D01*
X206610000Y-96297204D01*
X206599500Y-96399983D01*
X188155151Y-96399983D01*
X188130568Y-96347266D01*
X188000047Y-96160861D01*
X188000045Y-96160858D01*
X187839141Y-95999954D01*
X187652734Y-95869432D01*
X187652732Y-95869431D01*
X187446497Y-95773261D01*
X187446488Y-95773258D01*
X187226697Y-95714366D01*
X187226693Y-95714365D01*
X187226692Y-95714365D01*
X187226691Y-95714364D01*
X187226686Y-95714364D01*
X187000002Y-95694532D01*
X186999998Y-95694532D01*
X186773313Y-95714364D01*
X186773302Y-95714366D01*
X186553511Y-95773258D01*
X186553502Y-95773261D01*
X186347267Y-95869431D01*
X186347265Y-95869432D01*
X186160858Y-95999954D01*
X185999954Y-96160858D01*
X185904486Y-96297203D01*
X185869432Y-96347266D01*
X185862380Y-96362387D01*
X185816209Y-96414825D01*
X185749015Y-96433976D01*
X185682134Y-96413760D01*
X185637619Y-96362387D01*
X185630568Y-96347266D01*
X185500047Y-96160861D01*
X185500045Y-96160858D01*
X185339141Y-95999954D01*
X185152734Y-95869432D01*
X185152732Y-95869431D01*
X184946497Y-95773261D01*
X184946488Y-95773258D01*
X184726697Y-95714366D01*
X184726693Y-95714365D01*
X184726692Y-95714365D01*
X184726691Y-95714364D01*
X184726686Y-95714364D01*
X184500002Y-95694532D01*
X184499998Y-95694532D01*
X184273313Y-95714364D01*
X184273302Y-95714366D01*
X184053511Y-95773258D01*
X184053502Y-95773261D01*
X183847267Y-95869431D01*
X183847265Y-95869432D01*
X183660858Y-95999954D01*
X183499955Y-96160857D01*
X183468391Y-96205935D01*
X183413814Y-96249559D01*
X183344315Y-96256751D01*
X183281961Y-96225228D01*
X183249112Y-96173814D01*
X183234814Y-96130666D01*
X183142712Y-95981344D01*
X183018656Y-95857288D01*
X182869334Y-95765186D01*
X182702797Y-95710001D01*
X182702795Y-95710000D01*
X182600010Y-95699500D01*
X181399998Y-95699500D01*
X181399981Y-95699501D01*
X181297203Y-95710000D01*
X181297200Y-95710001D01*
X181130668Y-95765185D01*
X181130663Y-95765187D01*
X180981342Y-95857289D01*
X180857289Y-95981342D01*
X180765187Y-96130663D01*
X180765185Y-96130668D01*
X180755181Y-96160858D01*
X180710001Y-96297203D01*
X180710001Y-96297204D01*
X180710000Y-96297204D01*
X180699500Y-96399983D01*
X162455151Y-96399983D01*
X162430568Y-96347266D01*
X162300047Y-96160861D01*
X162300045Y-96160858D01*
X162139141Y-95999954D01*
X161952734Y-95869432D01*
X161952732Y-95869431D01*
X161746497Y-95773261D01*
X161746488Y-95773258D01*
X161526697Y-95714366D01*
X161526693Y-95714365D01*
X161526692Y-95714365D01*
X161526691Y-95714364D01*
X161526686Y-95714364D01*
X161300002Y-95694532D01*
X161299998Y-95694532D01*
X161073313Y-95714364D01*
X161073302Y-95714366D01*
X160853511Y-95773258D01*
X160853502Y-95773261D01*
X160647267Y-95869431D01*
X160647265Y-95869432D01*
X160460858Y-95999954D01*
X160299954Y-96160858D01*
X160204486Y-96297203D01*
X160169432Y-96347266D01*
X160162380Y-96362387D01*
X160116209Y-96414825D01*
X160049015Y-96433976D01*
X159982134Y-96413760D01*
X159937619Y-96362387D01*
X159930568Y-96347266D01*
X159800047Y-96160861D01*
X159800045Y-96160858D01*
X159639141Y-95999954D01*
X159452734Y-95869432D01*
X159452732Y-95869431D01*
X159246497Y-95773261D01*
X159246488Y-95773258D01*
X159026697Y-95714366D01*
X159026693Y-95714365D01*
X159026692Y-95714365D01*
X159026691Y-95714364D01*
X159026686Y-95714364D01*
X158800002Y-95694532D01*
X158799998Y-95694532D01*
X158573313Y-95714364D01*
X158573302Y-95714366D01*
X158353511Y-95773258D01*
X158353502Y-95773261D01*
X158147267Y-95869431D01*
X158147265Y-95869432D01*
X157960858Y-95999954D01*
X157799955Y-96160857D01*
X157768391Y-96205935D01*
X157713814Y-96249559D01*
X157644315Y-96256751D01*
X157581961Y-96225228D01*
X157549112Y-96173814D01*
X157534814Y-96130666D01*
X157442712Y-95981344D01*
X157318656Y-95857288D01*
X157169334Y-95765186D01*
X157002797Y-95710001D01*
X157002795Y-95710000D01*
X156900010Y-95699500D01*
X155699998Y-95699500D01*
X155699981Y-95699501D01*
X155597203Y-95710000D01*
X155597200Y-95710001D01*
X155430668Y-95765185D01*
X155430663Y-95765187D01*
X155281342Y-95857289D01*
X155157289Y-95981342D01*
X155065187Y-96130663D01*
X155065185Y-96130668D01*
X155055181Y-96160858D01*
X155010001Y-96297203D01*
X155010001Y-96297204D01*
X155010000Y-96297204D01*
X154999500Y-96399983D01*
X136555151Y-96399983D01*
X136530568Y-96347266D01*
X136400047Y-96160861D01*
X136400045Y-96160858D01*
X136239141Y-95999954D01*
X136052734Y-95869432D01*
X136052732Y-95869431D01*
X135846497Y-95773261D01*
X135846488Y-95773258D01*
X135626697Y-95714366D01*
X135626693Y-95714365D01*
X135626692Y-95714365D01*
X135626691Y-95714364D01*
X135626686Y-95714364D01*
X135400002Y-95694532D01*
X135399998Y-95694532D01*
X135173313Y-95714364D01*
X135173302Y-95714366D01*
X134953511Y-95773258D01*
X134953502Y-95773261D01*
X134747267Y-95869431D01*
X134747265Y-95869432D01*
X134560858Y-95999954D01*
X134399954Y-96160858D01*
X134304486Y-96297203D01*
X134269432Y-96347266D01*
X134262380Y-96362387D01*
X134216209Y-96414825D01*
X134149015Y-96433976D01*
X134082134Y-96413760D01*
X134037619Y-96362387D01*
X134030568Y-96347266D01*
X133900047Y-96160861D01*
X133900045Y-96160858D01*
X133739141Y-95999954D01*
X133552734Y-95869432D01*
X133552732Y-95869431D01*
X133346497Y-95773261D01*
X133346488Y-95773258D01*
X133126697Y-95714366D01*
X133126693Y-95714365D01*
X133126692Y-95714365D01*
X133126691Y-95714364D01*
X133126686Y-95714364D01*
X132900002Y-95694532D01*
X132899998Y-95694532D01*
X132673313Y-95714364D01*
X132673302Y-95714366D01*
X132453511Y-95773258D01*
X132453502Y-95773261D01*
X132247267Y-95869431D01*
X132247265Y-95869432D01*
X132060858Y-95999954D01*
X131899955Y-96160857D01*
X131868391Y-96205935D01*
X131813814Y-96249559D01*
X131744315Y-96256751D01*
X131681961Y-96225228D01*
X131649112Y-96173814D01*
X131634814Y-96130666D01*
X131542712Y-95981344D01*
X131418656Y-95857288D01*
X131269334Y-95765186D01*
X131102797Y-95710001D01*
X131102795Y-95710000D01*
X131000010Y-95699500D01*
X129799998Y-95699500D01*
X129799981Y-95699501D01*
X129697203Y-95710000D01*
X129697200Y-95710001D01*
X129530668Y-95765185D01*
X129530663Y-95765187D01*
X129381342Y-95857289D01*
X129257289Y-95981342D01*
X129165187Y-96130663D01*
X129165185Y-96130668D01*
X129155181Y-96160858D01*
X129110001Y-96297203D01*
X129110001Y-96297204D01*
X129110000Y-96297204D01*
X129099500Y-96399983D01*
X110555151Y-96399983D01*
X110530568Y-96347266D01*
X110400047Y-96160861D01*
X110400045Y-96160858D01*
X110239141Y-95999954D01*
X110052734Y-95869432D01*
X110052732Y-95869431D01*
X109846497Y-95773261D01*
X109846488Y-95773258D01*
X109626697Y-95714366D01*
X109626693Y-95714365D01*
X109626692Y-95714365D01*
X109626691Y-95714364D01*
X109626686Y-95714364D01*
X109400002Y-95694532D01*
X109399998Y-95694532D01*
X109173313Y-95714364D01*
X109173302Y-95714366D01*
X108953511Y-95773258D01*
X108953502Y-95773261D01*
X108747267Y-95869431D01*
X108747265Y-95869432D01*
X108560858Y-95999954D01*
X108399954Y-96160858D01*
X108304486Y-96297203D01*
X108269432Y-96347266D01*
X108262380Y-96362387D01*
X108216209Y-96414825D01*
X108149015Y-96433976D01*
X108082134Y-96413760D01*
X108037619Y-96362387D01*
X108030568Y-96347266D01*
X107900047Y-96160861D01*
X107900045Y-96160858D01*
X107739141Y-95999954D01*
X107552734Y-95869432D01*
X107552732Y-95869431D01*
X107346497Y-95773261D01*
X107346488Y-95773258D01*
X107126697Y-95714366D01*
X107126693Y-95714365D01*
X107126692Y-95714365D01*
X107126691Y-95714364D01*
X107126686Y-95714364D01*
X106900002Y-95694532D01*
X106899998Y-95694532D01*
X106673313Y-95714364D01*
X106673302Y-95714366D01*
X106453511Y-95773258D01*
X106453502Y-95773261D01*
X106247267Y-95869431D01*
X106247265Y-95869432D01*
X106060858Y-95999954D01*
X105899955Y-96160857D01*
X105868391Y-96205935D01*
X105813814Y-96249559D01*
X105744315Y-96256751D01*
X105681961Y-96225228D01*
X105649112Y-96173814D01*
X105634814Y-96130666D01*
X105542712Y-95981344D01*
X105418656Y-95857288D01*
X105269334Y-95765186D01*
X105102797Y-95710001D01*
X105102795Y-95710000D01*
X105000010Y-95699500D01*
X103799998Y-95699500D01*
X103799981Y-95699501D01*
X103697203Y-95710000D01*
X103697200Y-95710001D01*
X103530668Y-95765185D01*
X103530663Y-95765187D01*
X103381342Y-95857289D01*
X103257289Y-95981342D01*
X103165187Y-96130663D01*
X103165185Y-96130668D01*
X103155181Y-96160858D01*
X103110001Y-96297203D01*
X103110001Y-96297204D01*
X103110000Y-96297204D01*
X103099500Y-96399983D01*
X94779193Y-96399983D01*
X94774091Y-96352517D01*
X94772132Y-96347265D01*
X94723797Y-96217671D01*
X94723793Y-96217664D01*
X94637547Y-96102455D01*
X94637544Y-96102452D01*
X94522335Y-96016206D01*
X94522328Y-96016202D01*
X94387482Y-95965908D01*
X94387483Y-95965908D01*
X94327883Y-95959501D01*
X94327881Y-95959500D01*
X94327873Y-95959500D01*
X94327864Y-95959500D01*
X92632129Y-95959500D01*
X92632123Y-95959501D01*
X92572516Y-95965908D01*
X92437671Y-96016202D01*
X92437664Y-96016206D01*
X92322455Y-96102452D01*
X92322452Y-96102455D01*
X92236206Y-96217664D01*
X92236202Y-96217671D01*
X92185908Y-96352516D01*
X92182137Y-96387596D01*
X92155398Y-96452146D01*
X92098006Y-96491994D01*
X92028180Y-96494487D01*
X91968092Y-96458834D01*
X91957273Y-96445462D01*
X91940045Y-96420858D01*
X91779141Y-96259954D01*
X91592734Y-96129432D01*
X91592732Y-96129431D01*
X91386497Y-96033261D01*
X91386488Y-96033258D01*
X91166697Y-95974366D01*
X91166693Y-95974365D01*
X91166692Y-95974365D01*
X91166691Y-95974364D01*
X91166686Y-95974364D01*
X90940002Y-95954532D01*
X90939998Y-95954532D01*
X90713313Y-95974364D01*
X90713302Y-95974366D01*
X90493511Y-96033258D01*
X90493502Y-96033261D01*
X90287267Y-96129431D01*
X90287265Y-96129432D01*
X90100858Y-96259954D01*
X89939954Y-96420858D01*
X89809432Y-96607265D01*
X89809431Y-96607267D01*
X89782382Y-96665275D01*
X89736209Y-96717714D01*
X89669016Y-96736866D01*
X89602135Y-96716650D01*
X89557618Y-96665275D01*
X89530568Y-96607267D01*
X89530567Y-96607265D01*
X89400045Y-96420858D01*
X89239141Y-96259954D01*
X89052734Y-96129432D01*
X89052732Y-96129431D01*
X88846497Y-96033261D01*
X88846488Y-96033258D01*
X88626697Y-95974366D01*
X88626693Y-95974365D01*
X88626692Y-95974365D01*
X88626691Y-95974364D01*
X88626686Y-95974364D01*
X88400002Y-95954532D01*
X88399998Y-95954532D01*
X88173313Y-95974364D01*
X88173302Y-95974366D01*
X87953511Y-96033258D01*
X87953502Y-96033261D01*
X87747267Y-96129431D01*
X87747265Y-96129432D01*
X87560858Y-96259954D01*
X87399954Y-96420858D01*
X87269432Y-96607265D01*
X87269431Y-96607267D01*
X87242382Y-96665275D01*
X87196209Y-96717714D01*
X87129016Y-96736866D01*
X87062135Y-96716650D01*
X87017618Y-96665275D01*
X86990568Y-96607267D01*
X86990567Y-96607265D01*
X86860045Y-96420858D01*
X86699141Y-96259954D01*
X86512734Y-96129432D01*
X86512732Y-96129431D01*
X86306497Y-96033261D01*
X86306488Y-96033258D01*
X86086697Y-95974366D01*
X86086693Y-95974365D01*
X86086692Y-95974365D01*
X86086691Y-95974364D01*
X86086686Y-95974364D01*
X85860002Y-95954532D01*
X85859998Y-95954532D01*
X85633313Y-95974364D01*
X85633302Y-95974366D01*
X85413511Y-96033258D01*
X85413502Y-96033261D01*
X85207267Y-96129431D01*
X85207265Y-96129432D01*
X85020858Y-96259954D01*
X84859954Y-96420858D01*
X84729432Y-96607265D01*
X84729431Y-96607267D01*
X84702382Y-96665275D01*
X84656209Y-96717714D01*
X84589016Y-96736866D01*
X84522135Y-96716650D01*
X84477618Y-96665275D01*
X84450568Y-96607267D01*
X84450567Y-96607265D01*
X84320045Y-96420858D01*
X84159141Y-96259954D01*
X83972734Y-96129432D01*
X83972732Y-96129431D01*
X83766497Y-96033261D01*
X83766488Y-96033258D01*
X83546697Y-95974366D01*
X83546693Y-95974365D01*
X83546692Y-95974365D01*
X83546691Y-95974364D01*
X83546686Y-95974364D01*
X83320002Y-95954532D01*
X83319998Y-95954532D01*
X83093313Y-95974364D01*
X83093302Y-95974366D01*
X82873511Y-96033258D01*
X82873502Y-96033261D01*
X82667267Y-96129431D01*
X82667265Y-96129432D01*
X82480858Y-96259954D01*
X82319954Y-96420858D01*
X82189432Y-96607265D01*
X82189431Y-96607267D01*
X82162382Y-96665275D01*
X82116209Y-96717714D01*
X82049016Y-96736866D01*
X81982135Y-96716650D01*
X81937618Y-96665275D01*
X81910568Y-96607267D01*
X81910567Y-96607265D01*
X81780045Y-96420858D01*
X81619141Y-96259954D01*
X81432734Y-96129432D01*
X81432732Y-96129431D01*
X81226497Y-96033261D01*
X81226488Y-96033258D01*
X81006697Y-95974366D01*
X81006693Y-95974365D01*
X81006692Y-95974365D01*
X81006691Y-95974364D01*
X81006686Y-95974364D01*
X80780002Y-95954532D01*
X80779998Y-95954532D01*
X80553313Y-95974364D01*
X80553302Y-95974366D01*
X80333511Y-96033258D01*
X80333502Y-96033261D01*
X80127267Y-96129431D01*
X80127265Y-96129432D01*
X79940858Y-96259954D01*
X79779954Y-96420858D01*
X79649432Y-96607265D01*
X79649431Y-96607267D01*
X79622382Y-96665275D01*
X79576209Y-96717714D01*
X79509016Y-96736866D01*
X79442135Y-96716650D01*
X79397618Y-96665275D01*
X79370568Y-96607267D01*
X79370567Y-96607265D01*
X79240045Y-96420858D01*
X79079141Y-96259954D01*
X78892734Y-96129432D01*
X78892732Y-96129431D01*
X78686497Y-96033261D01*
X78686488Y-96033258D01*
X78466697Y-95974366D01*
X78466693Y-95974365D01*
X78466692Y-95974365D01*
X78466691Y-95974364D01*
X78466686Y-95974364D01*
X78240002Y-95954532D01*
X78239998Y-95954532D01*
X78013313Y-95974364D01*
X78013302Y-95974366D01*
X77793511Y-96033258D01*
X77793502Y-96033261D01*
X77587267Y-96129431D01*
X77587265Y-96129432D01*
X77400858Y-96259954D01*
X77239954Y-96420858D01*
X77109432Y-96607265D01*
X77109431Y-96607267D01*
X77082382Y-96665275D01*
X77036209Y-96717714D01*
X76969016Y-96736866D01*
X76902135Y-96716650D01*
X76857618Y-96665275D01*
X76830568Y-96607267D01*
X76830567Y-96607265D01*
X76700045Y-96420858D01*
X76539141Y-96259954D01*
X76352734Y-96129432D01*
X76352732Y-96129431D01*
X76146497Y-96033261D01*
X76146488Y-96033258D01*
X75926697Y-95974366D01*
X75926693Y-95974365D01*
X75926692Y-95974365D01*
X75926691Y-95974364D01*
X75926686Y-95974364D01*
X75700002Y-95954532D01*
X75699998Y-95954532D01*
X75473313Y-95974364D01*
X75473302Y-95974366D01*
X75253511Y-96033258D01*
X75253502Y-96033261D01*
X75047267Y-96129431D01*
X75047265Y-96129432D01*
X74860858Y-96259954D01*
X74699954Y-96420858D01*
X74569432Y-96607265D01*
X74569431Y-96607267D01*
X74542382Y-96665275D01*
X74496209Y-96717714D01*
X74429016Y-96736866D01*
X74362135Y-96716650D01*
X74317618Y-96665275D01*
X74290568Y-96607267D01*
X74290567Y-96607265D01*
X74160045Y-96420858D01*
X73999141Y-96259954D01*
X73812734Y-96129432D01*
X73812732Y-96129431D01*
X73606497Y-96033261D01*
X73606488Y-96033258D01*
X73386697Y-95974366D01*
X73386693Y-95974365D01*
X73386692Y-95974365D01*
X73386691Y-95974364D01*
X73386686Y-95974364D01*
X73160002Y-95954532D01*
X73159998Y-95954532D01*
X72933313Y-95974364D01*
X72933302Y-95974366D01*
X72713511Y-96033258D01*
X72713502Y-96033261D01*
X72507267Y-96129431D01*
X72507265Y-96129432D01*
X72320858Y-96259954D01*
X72159954Y-96420858D01*
X72029432Y-96607265D01*
X72029431Y-96607267D01*
X72002382Y-96665275D01*
X71956209Y-96717714D01*
X71889016Y-96736866D01*
X71822135Y-96716650D01*
X71777618Y-96665275D01*
X71750568Y-96607267D01*
X71750567Y-96607265D01*
X71620045Y-96420858D01*
X71459141Y-96259954D01*
X71272734Y-96129432D01*
X71272732Y-96129431D01*
X71066497Y-96033261D01*
X71066488Y-96033258D01*
X70846697Y-95974366D01*
X70846693Y-95974365D01*
X70846692Y-95974365D01*
X70846691Y-95974364D01*
X70846686Y-95974364D01*
X70620002Y-95954532D01*
X70619998Y-95954532D01*
X70393313Y-95974364D01*
X70393302Y-95974366D01*
X70173511Y-96033258D01*
X70173502Y-96033261D01*
X69967267Y-96129431D01*
X69967265Y-96129432D01*
X69780858Y-96259954D01*
X69619954Y-96420858D01*
X69489432Y-96607265D01*
X69489431Y-96607267D01*
X69462382Y-96665275D01*
X69416209Y-96717714D01*
X69349016Y-96736866D01*
X69282135Y-96716650D01*
X69237618Y-96665275D01*
X69210568Y-96607267D01*
X69210567Y-96607265D01*
X69080045Y-96420858D01*
X68919141Y-96259954D01*
X68732734Y-96129432D01*
X68732732Y-96129431D01*
X68526497Y-96033261D01*
X68526488Y-96033258D01*
X68306697Y-95974366D01*
X68306693Y-95974365D01*
X68306692Y-95974365D01*
X68306691Y-95974364D01*
X68306686Y-95974364D01*
X68080002Y-95954532D01*
X68079998Y-95954532D01*
X67853313Y-95974364D01*
X67853302Y-95974366D01*
X67633511Y-96033258D01*
X67633502Y-96033261D01*
X67427267Y-96129431D01*
X67427265Y-96129432D01*
X67240858Y-96259954D01*
X67079954Y-96420858D01*
X66949432Y-96607265D01*
X66949431Y-96607267D01*
X66922382Y-96665275D01*
X66876209Y-96717714D01*
X66809016Y-96736866D01*
X66742135Y-96716650D01*
X66697618Y-96665275D01*
X66670568Y-96607267D01*
X66670567Y-96607265D01*
X66540045Y-96420858D01*
X66379141Y-96259954D01*
X66192734Y-96129432D01*
X66192732Y-96129431D01*
X65986497Y-96033261D01*
X65986488Y-96033258D01*
X65766697Y-95974366D01*
X65766693Y-95974365D01*
X65766692Y-95974365D01*
X65766691Y-95974364D01*
X65766686Y-95974364D01*
X65540002Y-95954532D01*
X65539998Y-95954532D01*
X65313313Y-95974364D01*
X65313302Y-95974366D01*
X65093511Y-96033258D01*
X65093502Y-96033261D01*
X64887267Y-96129431D01*
X64887265Y-96129432D01*
X64700858Y-96259954D01*
X64539954Y-96420858D01*
X64409432Y-96607265D01*
X64409431Y-96607267D01*
X64382382Y-96665275D01*
X64336209Y-96717714D01*
X64269016Y-96736866D01*
X64202135Y-96716650D01*
X64157618Y-96665275D01*
X64130568Y-96607267D01*
X64130567Y-96607265D01*
X64000045Y-96420858D01*
X63839141Y-96259954D01*
X63652734Y-96129432D01*
X63652732Y-96129431D01*
X63446497Y-96033261D01*
X63446488Y-96033258D01*
X63226697Y-95974366D01*
X63226693Y-95974365D01*
X63226692Y-95974365D01*
X63226691Y-95974364D01*
X63226686Y-95974364D01*
X63000002Y-95954532D01*
X62999998Y-95954532D01*
X62773313Y-95974364D01*
X62773302Y-95974366D01*
X62553511Y-96033258D01*
X62553502Y-96033261D01*
X62347267Y-96129431D01*
X62347265Y-96129432D01*
X62160858Y-96259954D01*
X61999954Y-96420858D01*
X61869432Y-96607265D01*
X61869431Y-96607267D01*
X61842382Y-96665275D01*
X61796209Y-96717714D01*
X61729016Y-96736866D01*
X61662135Y-96716650D01*
X61617618Y-96665275D01*
X61590568Y-96607267D01*
X61590567Y-96607265D01*
X61460045Y-96420858D01*
X61299141Y-96259954D01*
X61112734Y-96129432D01*
X61112732Y-96129431D01*
X60906497Y-96033261D01*
X60906488Y-96033258D01*
X60686697Y-95974366D01*
X60686693Y-95974365D01*
X60686692Y-95974365D01*
X60686691Y-95974364D01*
X60686686Y-95974364D01*
X60460002Y-95954532D01*
X60459998Y-95954532D01*
X60233313Y-95974364D01*
X60233302Y-95974366D01*
X60013511Y-96033258D01*
X60013502Y-96033261D01*
X59807267Y-96129431D01*
X59807265Y-96129432D01*
X59620858Y-96259954D01*
X59459954Y-96420858D01*
X59329432Y-96607265D01*
X59329431Y-96607267D01*
X59302382Y-96665275D01*
X59256209Y-96717714D01*
X59189016Y-96736866D01*
X59122135Y-96716650D01*
X59077618Y-96665275D01*
X59050568Y-96607267D01*
X59050567Y-96607265D01*
X58920045Y-96420858D01*
X58759141Y-96259954D01*
X58572734Y-96129432D01*
X58572732Y-96129431D01*
X58366497Y-96033261D01*
X58366488Y-96033258D01*
X58146697Y-95974366D01*
X58146693Y-95974365D01*
X58146692Y-95974365D01*
X58146691Y-95974364D01*
X58146686Y-95974364D01*
X57920002Y-95954532D01*
X57919998Y-95954532D01*
X57693313Y-95974364D01*
X57693302Y-95974366D01*
X57473511Y-96033258D01*
X57473502Y-96033261D01*
X57267267Y-96129431D01*
X57267265Y-96129432D01*
X57080858Y-96259954D01*
X56919954Y-96420858D01*
X56789432Y-96607265D01*
X56789431Y-96607267D01*
X56762382Y-96665275D01*
X56716209Y-96717714D01*
X56649016Y-96736866D01*
X56582135Y-96716650D01*
X56537618Y-96665275D01*
X56510568Y-96607267D01*
X56510567Y-96607265D01*
X56380045Y-96420858D01*
X56219141Y-96259954D01*
X56032734Y-96129432D01*
X56032732Y-96129431D01*
X55826497Y-96033261D01*
X55826488Y-96033258D01*
X55606697Y-95974366D01*
X55606693Y-95974365D01*
X55606692Y-95974365D01*
X55606691Y-95974364D01*
X55606686Y-95974364D01*
X55380002Y-95954532D01*
X55379998Y-95954532D01*
X55153313Y-95974364D01*
X55153302Y-95974366D01*
X54933511Y-96033258D01*
X54933502Y-96033261D01*
X54727267Y-96129431D01*
X54727265Y-96129432D01*
X54540858Y-96259954D01*
X54379954Y-96420858D01*
X54249432Y-96607265D01*
X54249431Y-96607267D01*
X54222382Y-96665275D01*
X54176209Y-96717714D01*
X54109016Y-96736866D01*
X54042135Y-96716650D01*
X53997618Y-96665275D01*
X53970568Y-96607267D01*
X53970567Y-96607265D01*
X53840045Y-96420858D01*
X53679141Y-96259954D01*
X53492734Y-96129432D01*
X53492732Y-96129431D01*
X53286497Y-96033261D01*
X53286488Y-96033258D01*
X53066697Y-95974366D01*
X53066693Y-95974365D01*
X53066692Y-95974365D01*
X53066691Y-95974364D01*
X53066686Y-95974364D01*
X52840002Y-95954532D01*
X52839998Y-95954532D01*
X52613313Y-95974364D01*
X52613302Y-95974366D01*
X52393511Y-96033258D01*
X52393502Y-96033261D01*
X52187267Y-96129431D01*
X52187265Y-96129432D01*
X52000858Y-96259954D01*
X51839954Y-96420858D01*
X51709432Y-96607265D01*
X51709431Y-96607267D01*
X51613261Y-96813502D01*
X51613258Y-96813511D01*
X51554366Y-97033302D01*
X51554364Y-97033313D01*
X51534532Y-97259998D01*
X48000500Y-97259998D01*
X48000500Y-88818872D01*
X99299500Y-88818872D01*
X99299500Y-90181127D01*
X99326123Y-90383339D01*
X99333730Y-90441116D01*
X99401602Y-90694418D01*
X99401605Y-90694428D01*
X99501953Y-90936690D01*
X99501958Y-90936700D01*
X99633075Y-91163803D01*
X99792718Y-91371851D01*
X99792726Y-91371860D01*
X99978140Y-91557274D01*
X99978148Y-91557281D01*
X100186196Y-91716924D01*
X100413299Y-91848041D01*
X100413309Y-91848046D01*
X100655571Y-91948394D01*
X100655581Y-91948398D01*
X100908884Y-92016270D01*
X101168880Y-92050500D01*
X101168887Y-92050500D01*
X101431113Y-92050500D01*
X101431120Y-92050500D01*
X101691116Y-92016270D01*
X101944419Y-91948398D01*
X102186697Y-91848043D01*
X102413803Y-91716924D01*
X102621851Y-91557282D01*
X102621855Y-91557277D01*
X102621860Y-91557274D01*
X102807274Y-91371860D01*
X102807277Y-91371855D01*
X102807282Y-91371851D01*
X102966924Y-91163803D01*
X103098043Y-90936697D01*
X103198398Y-90694419D01*
X103266270Y-90441116D01*
X103300500Y-90181120D01*
X103300500Y-88818880D01*
X103300499Y-88818872D01*
X110499500Y-88818872D01*
X110499500Y-90181127D01*
X110526123Y-90383339D01*
X110533730Y-90441116D01*
X110601602Y-90694418D01*
X110601605Y-90694428D01*
X110701953Y-90936690D01*
X110701958Y-90936700D01*
X110833075Y-91163803D01*
X110992718Y-91371851D01*
X110992726Y-91371860D01*
X111178140Y-91557274D01*
X111178148Y-91557281D01*
X111386196Y-91716924D01*
X111613299Y-91848041D01*
X111613309Y-91848046D01*
X111855571Y-91948394D01*
X111855581Y-91948398D01*
X112108884Y-92016270D01*
X112368880Y-92050500D01*
X112368887Y-92050500D01*
X112631113Y-92050500D01*
X112631120Y-92050500D01*
X112891116Y-92016270D01*
X113144419Y-91948398D01*
X113386697Y-91848043D01*
X113613803Y-91716924D01*
X113821851Y-91557282D01*
X113821855Y-91557277D01*
X113821860Y-91557274D01*
X114007274Y-91371860D01*
X114007277Y-91371855D01*
X114007282Y-91371851D01*
X114166924Y-91163803D01*
X114298043Y-90936697D01*
X114398398Y-90694419D01*
X114466270Y-90441116D01*
X114500500Y-90181120D01*
X114500500Y-88818880D01*
X114500499Y-88818872D01*
X125299500Y-88818872D01*
X125299500Y-90181127D01*
X125326123Y-90383339D01*
X125333730Y-90441116D01*
X125401602Y-90694418D01*
X125401605Y-90694428D01*
X125501953Y-90936690D01*
X125501958Y-90936700D01*
X125633075Y-91163803D01*
X125792718Y-91371851D01*
X125792726Y-91371860D01*
X125978140Y-91557274D01*
X125978148Y-91557281D01*
X126186196Y-91716924D01*
X126413299Y-91848041D01*
X126413309Y-91848046D01*
X126655571Y-91948394D01*
X126655581Y-91948398D01*
X126908884Y-92016270D01*
X127168880Y-92050500D01*
X127168887Y-92050500D01*
X127431113Y-92050500D01*
X127431120Y-92050500D01*
X127691116Y-92016270D01*
X127944419Y-91948398D01*
X128186697Y-91848043D01*
X128413803Y-91716924D01*
X128621851Y-91557282D01*
X128621855Y-91557277D01*
X128621860Y-91557274D01*
X128807274Y-91371860D01*
X128807277Y-91371855D01*
X128807282Y-91371851D01*
X128966924Y-91163803D01*
X129098043Y-90936697D01*
X129198398Y-90694419D01*
X129266270Y-90441116D01*
X129300500Y-90181120D01*
X129300500Y-88818880D01*
X129300499Y-88818872D01*
X136499500Y-88818872D01*
X136499500Y-90181127D01*
X136526123Y-90383339D01*
X136533730Y-90441116D01*
X136601602Y-90694418D01*
X136601605Y-90694428D01*
X136701953Y-90936690D01*
X136701958Y-90936700D01*
X136833075Y-91163803D01*
X136992718Y-91371851D01*
X136992726Y-91371860D01*
X137178140Y-91557274D01*
X137178148Y-91557281D01*
X137386196Y-91716924D01*
X137613299Y-91848041D01*
X137613309Y-91848046D01*
X137855571Y-91948394D01*
X137855581Y-91948398D01*
X138108884Y-92016270D01*
X138368880Y-92050500D01*
X138368887Y-92050500D01*
X138631113Y-92050500D01*
X138631120Y-92050500D01*
X138891116Y-92016270D01*
X139144419Y-91948398D01*
X139386697Y-91848043D01*
X139613803Y-91716924D01*
X139821851Y-91557282D01*
X139821855Y-91557277D01*
X139821860Y-91557274D01*
X140007274Y-91371860D01*
X140007277Y-91371855D01*
X140007282Y-91371851D01*
X140166924Y-91163803D01*
X140298043Y-90936697D01*
X140398398Y-90694419D01*
X140466270Y-90441116D01*
X140500500Y-90181120D01*
X140500500Y-88818880D01*
X140500499Y-88818872D01*
X151199500Y-88818872D01*
X151199500Y-90181127D01*
X151226123Y-90383339D01*
X151233730Y-90441116D01*
X151301602Y-90694418D01*
X151301605Y-90694428D01*
X151401953Y-90936690D01*
X151401958Y-90936700D01*
X151533075Y-91163803D01*
X151692718Y-91371851D01*
X151692726Y-91371860D01*
X151878140Y-91557274D01*
X151878148Y-91557281D01*
X152086196Y-91716924D01*
X152313299Y-91848041D01*
X152313309Y-91848046D01*
X152555571Y-91948394D01*
X152555581Y-91948398D01*
X152808884Y-92016270D01*
X153068880Y-92050500D01*
X153068887Y-92050500D01*
X153331113Y-92050500D01*
X153331120Y-92050500D01*
X153591116Y-92016270D01*
X153844419Y-91948398D01*
X154086697Y-91848043D01*
X154313803Y-91716924D01*
X154521851Y-91557282D01*
X154521855Y-91557277D01*
X154521860Y-91557274D01*
X154707274Y-91371860D01*
X154707277Y-91371855D01*
X154707282Y-91371851D01*
X154866924Y-91163803D01*
X154998043Y-90936697D01*
X155098398Y-90694419D01*
X155166270Y-90441116D01*
X155200500Y-90181120D01*
X155200500Y-88818880D01*
X155200499Y-88818872D01*
X162399500Y-88818872D01*
X162399500Y-90181127D01*
X162426123Y-90383339D01*
X162433730Y-90441116D01*
X162501602Y-90694418D01*
X162501605Y-90694428D01*
X162601953Y-90936690D01*
X162601958Y-90936700D01*
X162733075Y-91163803D01*
X162892718Y-91371851D01*
X162892726Y-91371860D01*
X163078140Y-91557274D01*
X163078148Y-91557281D01*
X163286196Y-91716924D01*
X163513299Y-91848041D01*
X163513309Y-91848046D01*
X163755571Y-91948394D01*
X163755581Y-91948398D01*
X164008884Y-92016270D01*
X164268880Y-92050500D01*
X164268887Y-92050500D01*
X164531113Y-92050500D01*
X164531120Y-92050500D01*
X164791116Y-92016270D01*
X165044419Y-91948398D01*
X165286697Y-91848043D01*
X165513803Y-91716924D01*
X165721851Y-91557282D01*
X165721855Y-91557277D01*
X165721860Y-91557274D01*
X165907274Y-91371860D01*
X165907277Y-91371855D01*
X165907282Y-91371851D01*
X166066924Y-91163803D01*
X166198043Y-90936697D01*
X166298398Y-90694419D01*
X166366270Y-90441116D01*
X166400500Y-90181120D01*
X166400500Y-88818880D01*
X166400499Y-88818872D01*
X176899500Y-88818872D01*
X176899500Y-90181127D01*
X176926123Y-90383339D01*
X176933730Y-90441116D01*
X177001602Y-90694418D01*
X177001605Y-90694428D01*
X177101953Y-90936690D01*
X177101958Y-90936700D01*
X177233075Y-91163803D01*
X177392718Y-91371851D01*
X177392726Y-91371860D01*
X177578140Y-91557274D01*
X177578148Y-91557281D01*
X177786196Y-91716924D01*
X178013299Y-91848041D01*
X178013309Y-91848046D01*
X178255571Y-91948394D01*
X178255581Y-91948398D01*
X178508884Y-92016270D01*
X178768880Y-92050500D01*
X178768887Y-92050500D01*
X179031113Y-92050500D01*
X179031120Y-92050500D01*
X179291116Y-92016270D01*
X179544419Y-91948398D01*
X179786697Y-91848043D01*
X180013803Y-91716924D01*
X180221851Y-91557282D01*
X180221855Y-91557277D01*
X180221860Y-91557274D01*
X180407274Y-91371860D01*
X180407277Y-91371855D01*
X180407282Y-91371851D01*
X180566924Y-91163803D01*
X180698043Y-90936697D01*
X180798398Y-90694419D01*
X180866270Y-90441116D01*
X180900500Y-90181120D01*
X180900500Y-88818880D01*
X180900499Y-88818872D01*
X188099500Y-88818872D01*
X188099500Y-90181127D01*
X188126123Y-90383339D01*
X188133730Y-90441116D01*
X188201602Y-90694418D01*
X188201605Y-90694428D01*
X188301953Y-90936690D01*
X188301958Y-90936700D01*
X188433075Y-91163803D01*
X188592718Y-91371851D01*
X188592726Y-91371860D01*
X188778140Y-91557274D01*
X188778148Y-91557281D01*
X188986196Y-91716924D01*
X189213299Y-91848041D01*
X189213309Y-91848046D01*
X189455571Y-91948394D01*
X189455581Y-91948398D01*
X189708884Y-92016270D01*
X189968880Y-92050500D01*
X189968887Y-92050500D01*
X190231113Y-92050500D01*
X190231120Y-92050500D01*
X190491116Y-92016270D01*
X190744419Y-91948398D01*
X190986697Y-91848043D01*
X191213803Y-91716924D01*
X191421851Y-91557282D01*
X191421855Y-91557277D01*
X191421860Y-91557274D01*
X191607274Y-91371860D01*
X191607277Y-91371855D01*
X191607282Y-91371851D01*
X191766924Y-91163803D01*
X191898043Y-90936697D01*
X191998398Y-90694419D01*
X192066270Y-90441116D01*
X192100500Y-90181120D01*
X192100500Y-88818880D01*
X192100499Y-88818872D01*
X202799500Y-88818872D01*
X202799500Y-90181127D01*
X202826123Y-90383339D01*
X202833730Y-90441116D01*
X202901602Y-90694418D01*
X202901605Y-90694428D01*
X203001953Y-90936690D01*
X203001958Y-90936700D01*
X203133075Y-91163803D01*
X203292718Y-91371851D01*
X203292726Y-91371860D01*
X203478140Y-91557274D01*
X203478148Y-91557281D01*
X203686196Y-91716924D01*
X203913299Y-91848041D01*
X203913309Y-91848046D01*
X204155571Y-91948394D01*
X204155581Y-91948398D01*
X204408884Y-92016270D01*
X204668880Y-92050500D01*
X204668887Y-92050500D01*
X204931113Y-92050500D01*
X204931120Y-92050500D01*
X205191116Y-92016270D01*
X205444419Y-91948398D01*
X205686697Y-91848043D01*
X205913803Y-91716924D01*
X206121851Y-91557282D01*
X206121855Y-91557277D01*
X206121860Y-91557274D01*
X206307274Y-91371860D01*
X206307277Y-91371855D01*
X206307282Y-91371851D01*
X206466924Y-91163803D01*
X206598043Y-90936697D01*
X206698398Y-90694419D01*
X206766270Y-90441116D01*
X206800500Y-90181120D01*
X206800500Y-88818880D01*
X206800499Y-88818872D01*
X213999500Y-88818872D01*
X213999500Y-90181127D01*
X214026123Y-90383339D01*
X214033730Y-90441116D01*
X214101602Y-90694418D01*
X214101605Y-90694428D01*
X214201953Y-90936690D01*
X214201958Y-90936700D01*
X214333075Y-91163803D01*
X214492718Y-91371851D01*
X214492726Y-91371860D01*
X214678140Y-91557274D01*
X214678148Y-91557281D01*
X214886196Y-91716924D01*
X215113299Y-91848041D01*
X215113309Y-91848046D01*
X215355571Y-91948394D01*
X215355581Y-91948398D01*
X215608884Y-92016270D01*
X215868880Y-92050500D01*
X215868887Y-92050500D01*
X216131113Y-92050500D01*
X216131120Y-92050500D01*
X216391116Y-92016270D01*
X216644419Y-91948398D01*
X216886697Y-91848043D01*
X217113803Y-91716924D01*
X217321851Y-91557282D01*
X217321855Y-91557277D01*
X217321860Y-91557274D01*
X217507274Y-91371860D01*
X217507277Y-91371855D01*
X217507282Y-91371851D01*
X217666924Y-91163803D01*
X217798043Y-90936697D01*
X217898398Y-90694419D01*
X217966270Y-90441116D01*
X218000500Y-90181120D01*
X218000500Y-88818880D01*
X218000499Y-88818872D01*
X228799500Y-88818872D01*
X228799500Y-90181127D01*
X228826123Y-90383339D01*
X228833730Y-90441116D01*
X228901602Y-90694418D01*
X228901605Y-90694428D01*
X229001953Y-90936690D01*
X229001958Y-90936700D01*
X229133075Y-91163803D01*
X229292718Y-91371851D01*
X229292726Y-91371860D01*
X229478140Y-91557274D01*
X229478148Y-91557281D01*
X229686196Y-91716924D01*
X229913299Y-91848041D01*
X229913309Y-91848046D01*
X230155571Y-91948394D01*
X230155581Y-91948398D01*
X230408884Y-92016270D01*
X230668880Y-92050500D01*
X230668887Y-92050500D01*
X230931113Y-92050500D01*
X230931120Y-92050500D01*
X231191116Y-92016270D01*
X231444419Y-91948398D01*
X231686697Y-91848043D01*
X231913803Y-91716924D01*
X232121851Y-91557282D01*
X232121855Y-91557277D01*
X232121860Y-91557274D01*
X232307274Y-91371860D01*
X232307277Y-91371855D01*
X232307282Y-91371851D01*
X232466924Y-91163803D01*
X232598043Y-90936697D01*
X232698398Y-90694419D01*
X232766270Y-90441116D01*
X232800500Y-90181120D01*
X232800500Y-88818880D01*
X232800499Y-88818872D01*
X239999500Y-88818872D01*
X239999500Y-90181127D01*
X240026123Y-90383339D01*
X240033730Y-90441116D01*
X240101602Y-90694418D01*
X240101605Y-90694428D01*
X240201953Y-90936690D01*
X240201958Y-90936700D01*
X240333075Y-91163803D01*
X240492718Y-91371851D01*
X240492726Y-91371860D01*
X240678140Y-91557274D01*
X240678148Y-91557281D01*
X240886196Y-91716924D01*
X241113299Y-91848041D01*
X241113309Y-91848046D01*
X241355571Y-91948394D01*
X241355581Y-91948398D01*
X241608884Y-92016270D01*
X241868880Y-92050500D01*
X241868887Y-92050500D01*
X242131113Y-92050500D01*
X242131120Y-92050500D01*
X242391116Y-92016270D01*
X242644419Y-91948398D01*
X242886697Y-91848043D01*
X243113803Y-91716924D01*
X243321851Y-91557282D01*
X243321855Y-91557277D01*
X243321860Y-91557274D01*
X243507274Y-91371860D01*
X243507277Y-91371855D01*
X243507282Y-91371851D01*
X243666924Y-91163803D01*
X243798043Y-90936697D01*
X243898398Y-90694419D01*
X243966270Y-90441116D01*
X244000500Y-90181120D01*
X244000500Y-88818880D01*
X243966270Y-88558884D01*
X243898398Y-88305581D01*
X243898394Y-88305571D01*
X243798046Y-88063309D01*
X243798041Y-88063299D01*
X243666924Y-87836196D01*
X243507281Y-87628148D01*
X243507274Y-87628140D01*
X243321860Y-87442726D01*
X243321851Y-87442718D01*
X243113803Y-87283075D01*
X242886700Y-87151958D01*
X242886690Y-87151953D01*
X242644428Y-87051605D01*
X242644421Y-87051603D01*
X242644419Y-87051602D01*
X242391116Y-86983730D01*
X242333339Y-86976123D01*
X242131127Y-86949500D01*
X242131120Y-86949500D01*
X241868880Y-86949500D01*
X241868872Y-86949500D01*
X241637772Y-86979926D01*
X241608884Y-86983730D01*
X241355581Y-87051602D01*
X241355571Y-87051605D01*
X241113309Y-87151953D01*
X241113299Y-87151958D01*
X240886196Y-87283075D01*
X240678148Y-87442718D01*
X240492718Y-87628148D01*
X240333075Y-87836196D01*
X240201958Y-88063299D01*
X240201953Y-88063309D01*
X240101605Y-88305571D01*
X240101602Y-88305581D01*
X240033730Y-88558885D01*
X239999500Y-88818872D01*
X232800499Y-88818872D01*
X232766270Y-88558884D01*
X232698398Y-88305581D01*
X232698394Y-88305571D01*
X232598046Y-88063309D01*
X232598041Y-88063299D01*
X232466924Y-87836196D01*
X232307281Y-87628148D01*
X232307274Y-87628140D01*
X232121860Y-87442726D01*
X232121851Y-87442718D01*
X231913803Y-87283075D01*
X231686700Y-87151958D01*
X231686690Y-87151953D01*
X231444428Y-87051605D01*
X231444421Y-87051603D01*
X231444419Y-87051602D01*
X231191116Y-86983730D01*
X231133339Y-86976123D01*
X230931127Y-86949500D01*
X230931120Y-86949500D01*
X230668880Y-86949500D01*
X230668872Y-86949500D01*
X230437772Y-86979926D01*
X230408884Y-86983730D01*
X230155581Y-87051602D01*
X230155571Y-87051605D01*
X229913309Y-87151953D01*
X229913299Y-87151958D01*
X229686196Y-87283075D01*
X229478148Y-87442718D01*
X229292718Y-87628148D01*
X229133075Y-87836196D01*
X229001958Y-88063299D01*
X229001953Y-88063309D01*
X228901605Y-88305571D01*
X228901602Y-88305581D01*
X228833730Y-88558885D01*
X228799500Y-88818872D01*
X218000499Y-88818872D01*
X217966270Y-88558884D01*
X217898398Y-88305581D01*
X217898394Y-88305571D01*
X217798046Y-88063309D01*
X217798041Y-88063299D01*
X217666924Y-87836196D01*
X217507281Y-87628148D01*
X217507274Y-87628140D01*
X217321860Y-87442726D01*
X217321851Y-87442718D01*
X217113803Y-87283075D01*
X216886700Y-87151958D01*
X216886690Y-87151953D01*
X216644428Y-87051605D01*
X216644421Y-87051603D01*
X216644419Y-87051602D01*
X216391116Y-86983730D01*
X216333339Y-86976123D01*
X216131127Y-86949500D01*
X216131120Y-86949500D01*
X215868880Y-86949500D01*
X215868872Y-86949500D01*
X215637772Y-86979926D01*
X215608884Y-86983730D01*
X215355581Y-87051602D01*
X215355571Y-87051605D01*
X215113309Y-87151953D01*
X215113299Y-87151958D01*
X214886196Y-87283075D01*
X214678148Y-87442718D01*
X214492718Y-87628148D01*
X214333075Y-87836196D01*
X214201958Y-88063299D01*
X214201953Y-88063309D01*
X214101605Y-88305571D01*
X214101602Y-88305581D01*
X214033730Y-88558885D01*
X213999500Y-88818872D01*
X206800499Y-88818872D01*
X206766270Y-88558884D01*
X206698398Y-88305581D01*
X206698394Y-88305571D01*
X206598046Y-88063309D01*
X206598041Y-88063299D01*
X206466924Y-87836196D01*
X206307281Y-87628148D01*
X206307274Y-87628140D01*
X206121860Y-87442726D01*
X206121851Y-87442718D01*
X205913803Y-87283075D01*
X205686700Y-87151958D01*
X205686690Y-87151953D01*
X205444428Y-87051605D01*
X205444421Y-87051603D01*
X205444419Y-87051602D01*
X205191116Y-86983730D01*
X205133339Y-86976123D01*
X204931127Y-86949500D01*
X204931120Y-86949500D01*
X204668880Y-86949500D01*
X204668872Y-86949500D01*
X204437772Y-86979926D01*
X204408884Y-86983730D01*
X204155581Y-87051602D01*
X204155571Y-87051605D01*
X203913309Y-87151953D01*
X203913299Y-87151958D01*
X203686196Y-87283075D01*
X203478148Y-87442718D01*
X203292718Y-87628148D01*
X203133075Y-87836196D01*
X203001958Y-88063299D01*
X203001953Y-88063309D01*
X202901605Y-88305571D01*
X202901602Y-88305581D01*
X202833730Y-88558885D01*
X202799500Y-88818872D01*
X192100499Y-88818872D01*
X192066270Y-88558884D01*
X191998398Y-88305581D01*
X191998394Y-88305571D01*
X191898046Y-88063309D01*
X191898041Y-88063299D01*
X191766924Y-87836196D01*
X191607281Y-87628148D01*
X191607274Y-87628140D01*
X191421860Y-87442726D01*
X191421851Y-87442718D01*
X191213803Y-87283075D01*
X190986700Y-87151958D01*
X190986690Y-87151953D01*
X190744428Y-87051605D01*
X190744421Y-87051603D01*
X190744419Y-87051602D01*
X190491116Y-86983730D01*
X190433339Y-86976123D01*
X190231127Y-86949500D01*
X190231120Y-86949500D01*
X189968880Y-86949500D01*
X189968872Y-86949500D01*
X189737772Y-86979926D01*
X189708884Y-86983730D01*
X189455581Y-87051602D01*
X189455571Y-87051605D01*
X189213309Y-87151953D01*
X189213299Y-87151958D01*
X188986196Y-87283075D01*
X188778148Y-87442718D01*
X188592718Y-87628148D01*
X188433075Y-87836196D01*
X188301958Y-88063299D01*
X188301953Y-88063309D01*
X188201605Y-88305571D01*
X188201602Y-88305581D01*
X188133730Y-88558885D01*
X188099500Y-88818872D01*
X180900499Y-88818872D01*
X180866270Y-88558884D01*
X180798398Y-88305581D01*
X180798394Y-88305571D01*
X180698046Y-88063309D01*
X180698041Y-88063299D01*
X180566924Y-87836196D01*
X180407281Y-87628148D01*
X180407274Y-87628140D01*
X180221860Y-87442726D01*
X180221851Y-87442718D01*
X180013803Y-87283075D01*
X179786700Y-87151958D01*
X179786690Y-87151953D01*
X179544428Y-87051605D01*
X179544421Y-87051603D01*
X179544419Y-87051602D01*
X179291116Y-86983730D01*
X179233339Y-86976123D01*
X179031127Y-86949500D01*
X179031120Y-86949500D01*
X178768880Y-86949500D01*
X178768872Y-86949500D01*
X178537772Y-86979926D01*
X178508884Y-86983730D01*
X178255581Y-87051602D01*
X178255571Y-87051605D01*
X178013309Y-87151953D01*
X178013299Y-87151958D01*
X177786196Y-87283075D01*
X177578148Y-87442718D01*
X177392718Y-87628148D01*
X177233075Y-87836196D01*
X177101958Y-88063299D01*
X177101953Y-88063309D01*
X177001605Y-88305571D01*
X177001602Y-88305581D01*
X176933730Y-88558885D01*
X176899500Y-88818872D01*
X166400499Y-88818872D01*
X166366270Y-88558884D01*
X166298398Y-88305581D01*
X166298394Y-88305571D01*
X166198046Y-88063309D01*
X166198041Y-88063299D01*
X166066924Y-87836196D01*
X165907281Y-87628148D01*
X165907274Y-87628140D01*
X165721860Y-87442726D01*
X165721851Y-87442718D01*
X165513803Y-87283075D01*
X165286700Y-87151958D01*
X165286690Y-87151953D01*
X165044428Y-87051605D01*
X165044421Y-87051603D01*
X165044419Y-87051602D01*
X164791116Y-86983730D01*
X164733339Y-86976123D01*
X164531127Y-86949500D01*
X164531120Y-86949500D01*
X164268880Y-86949500D01*
X164268872Y-86949500D01*
X164037772Y-86979926D01*
X164008884Y-86983730D01*
X163755581Y-87051602D01*
X163755571Y-87051605D01*
X163513309Y-87151953D01*
X163513299Y-87151958D01*
X163286196Y-87283075D01*
X163078148Y-87442718D01*
X162892718Y-87628148D01*
X162733075Y-87836196D01*
X162601958Y-88063299D01*
X162601953Y-88063309D01*
X162501605Y-88305571D01*
X162501602Y-88305581D01*
X162433730Y-88558885D01*
X162399500Y-88818872D01*
X155200499Y-88818872D01*
X155166270Y-88558884D01*
X155098398Y-88305581D01*
X155098394Y-88305571D01*
X154998046Y-88063309D01*
X154998041Y-88063299D01*
X154866924Y-87836196D01*
X154707281Y-87628148D01*
X154707274Y-87628140D01*
X154521860Y-87442726D01*
X154521851Y-87442718D01*
X154313803Y-87283075D01*
X154086700Y-87151958D01*
X154086690Y-87151953D01*
X153844428Y-87051605D01*
X153844421Y-87051603D01*
X153844419Y-87051602D01*
X153591116Y-86983730D01*
X153533339Y-86976123D01*
X153331127Y-86949500D01*
X153331120Y-86949500D01*
X153068880Y-86949500D01*
X153068872Y-86949500D01*
X152837772Y-86979926D01*
X152808884Y-86983730D01*
X152555581Y-87051602D01*
X152555571Y-87051605D01*
X152313309Y-87151953D01*
X152313299Y-87151958D01*
X152086196Y-87283075D01*
X151878148Y-87442718D01*
X151692718Y-87628148D01*
X151533075Y-87836196D01*
X151401958Y-88063299D01*
X151401953Y-88063309D01*
X151301605Y-88305571D01*
X151301602Y-88305581D01*
X151233730Y-88558885D01*
X151199500Y-88818872D01*
X140500499Y-88818872D01*
X140466270Y-88558884D01*
X140398398Y-88305581D01*
X140398394Y-88305571D01*
X140298046Y-88063309D01*
X140298041Y-88063299D01*
X140166924Y-87836196D01*
X140007281Y-87628148D01*
X140007274Y-87628140D01*
X139821860Y-87442726D01*
X139821851Y-87442718D01*
X139613803Y-87283075D01*
X139386700Y-87151958D01*
X139386690Y-87151953D01*
X139144428Y-87051605D01*
X139144421Y-87051603D01*
X139144419Y-87051602D01*
X138891116Y-86983730D01*
X138833339Y-86976123D01*
X138631127Y-86949500D01*
X138631120Y-86949500D01*
X138368880Y-86949500D01*
X138368872Y-86949500D01*
X138137772Y-86979926D01*
X138108884Y-86983730D01*
X137855581Y-87051602D01*
X137855571Y-87051605D01*
X137613309Y-87151953D01*
X137613299Y-87151958D01*
X137386196Y-87283075D01*
X137178148Y-87442718D01*
X136992718Y-87628148D01*
X136833075Y-87836196D01*
X136701958Y-88063299D01*
X136701953Y-88063309D01*
X136601605Y-88305571D01*
X136601602Y-88305581D01*
X136533730Y-88558885D01*
X136499500Y-88818872D01*
X129300499Y-88818872D01*
X129266270Y-88558884D01*
X129198398Y-88305581D01*
X129198394Y-88305571D01*
X129098046Y-88063309D01*
X129098041Y-88063299D01*
X128966924Y-87836196D01*
X128807281Y-87628148D01*
X128807274Y-87628140D01*
X128621860Y-87442726D01*
X128621851Y-87442718D01*
X128413803Y-87283075D01*
X128186700Y-87151958D01*
X128186690Y-87151953D01*
X127944428Y-87051605D01*
X127944421Y-87051603D01*
X127944419Y-87051602D01*
X127691116Y-86983730D01*
X127633339Y-86976123D01*
X127431127Y-86949500D01*
X127431120Y-86949500D01*
X127168880Y-86949500D01*
X127168872Y-86949500D01*
X126937772Y-86979926D01*
X126908884Y-86983730D01*
X126655581Y-87051602D01*
X126655571Y-87051605D01*
X126413309Y-87151953D01*
X126413299Y-87151958D01*
X126186196Y-87283075D01*
X125978148Y-87442718D01*
X125792718Y-87628148D01*
X125633075Y-87836196D01*
X125501958Y-88063299D01*
X125501953Y-88063309D01*
X125401605Y-88305571D01*
X125401602Y-88305581D01*
X125333730Y-88558885D01*
X125299500Y-88818872D01*
X114500499Y-88818872D01*
X114466270Y-88558884D01*
X114398398Y-88305581D01*
X114398394Y-88305571D01*
X114298046Y-88063309D01*
X114298041Y-88063299D01*
X114166924Y-87836196D01*
X114007281Y-87628148D01*
X114007274Y-87628140D01*
X113821860Y-87442726D01*
X113821851Y-87442718D01*
X113613803Y-87283075D01*
X113386700Y-87151958D01*
X113386690Y-87151953D01*
X113144428Y-87051605D01*
X113144421Y-87051603D01*
X113144419Y-87051602D01*
X112891116Y-86983730D01*
X112833339Y-86976123D01*
X112631127Y-86949500D01*
X112631120Y-86949500D01*
X112368880Y-86949500D01*
X112368872Y-86949500D01*
X112137772Y-86979926D01*
X112108884Y-86983730D01*
X111855581Y-87051602D01*
X111855571Y-87051605D01*
X111613309Y-87151953D01*
X111613299Y-87151958D01*
X111386196Y-87283075D01*
X111178148Y-87442718D01*
X110992718Y-87628148D01*
X110833075Y-87836196D01*
X110701958Y-88063299D01*
X110701953Y-88063309D01*
X110601605Y-88305571D01*
X110601602Y-88305581D01*
X110533730Y-88558885D01*
X110499500Y-88818872D01*
X103300499Y-88818872D01*
X103266270Y-88558884D01*
X103198398Y-88305581D01*
X103198394Y-88305571D01*
X103098046Y-88063309D01*
X103098041Y-88063299D01*
X102966924Y-87836196D01*
X102807281Y-87628148D01*
X102807274Y-87628140D01*
X102621860Y-87442726D01*
X102621851Y-87442718D01*
X102413803Y-87283075D01*
X102186700Y-87151958D01*
X102186690Y-87151953D01*
X101944428Y-87051605D01*
X101944421Y-87051603D01*
X101944419Y-87051602D01*
X101691116Y-86983730D01*
X101633339Y-86976123D01*
X101431127Y-86949500D01*
X101431120Y-86949500D01*
X101168880Y-86949500D01*
X101168872Y-86949500D01*
X100937772Y-86979926D01*
X100908884Y-86983730D01*
X100655581Y-87051602D01*
X100655571Y-87051605D01*
X100413309Y-87151953D01*
X100413299Y-87151958D01*
X100186196Y-87283075D01*
X99978148Y-87442718D01*
X99792718Y-87628148D01*
X99633075Y-87836196D01*
X99501958Y-88063299D01*
X99501953Y-88063309D01*
X99401605Y-88305571D01*
X99401602Y-88305581D01*
X99333730Y-88558885D01*
X99299500Y-88818872D01*
X48000500Y-88818872D01*
X48000500Y-82019998D01*
X51534532Y-82019998D01*
X51534532Y-82020001D01*
X51554364Y-82246686D01*
X51554366Y-82246697D01*
X51613258Y-82466488D01*
X51613261Y-82466497D01*
X51709431Y-82672732D01*
X51709432Y-82672734D01*
X51839954Y-82859141D01*
X52000858Y-83020045D01*
X52000861Y-83020047D01*
X52187266Y-83150568D01*
X52393504Y-83246739D01*
X52613308Y-83305635D01*
X52775230Y-83319801D01*
X52839998Y-83325468D01*
X52840000Y-83325468D01*
X52840002Y-83325468D01*
X52896673Y-83320509D01*
X53066692Y-83305635D01*
X53286496Y-83246739D01*
X53492734Y-83150568D01*
X53679139Y-83020047D01*
X53840047Y-82859139D01*
X53970568Y-82672734D01*
X53997618Y-82614724D01*
X54043790Y-82562285D01*
X54110983Y-82543133D01*
X54177865Y-82563348D01*
X54222382Y-82614725D01*
X54249429Y-82672728D01*
X54249432Y-82672734D01*
X54379954Y-82859141D01*
X54540858Y-83020045D01*
X54540861Y-83020047D01*
X54727266Y-83150568D01*
X54933504Y-83246739D01*
X55153308Y-83305635D01*
X55315230Y-83319801D01*
X55379998Y-83325468D01*
X55380000Y-83325468D01*
X55380002Y-83325468D01*
X55436673Y-83320509D01*
X55606692Y-83305635D01*
X55826496Y-83246739D01*
X56032734Y-83150568D01*
X56219139Y-83020047D01*
X56380047Y-82859139D01*
X56510568Y-82672734D01*
X56537618Y-82614724D01*
X56583790Y-82562285D01*
X56650983Y-82543133D01*
X56717865Y-82563348D01*
X56762382Y-82614725D01*
X56789429Y-82672728D01*
X56789432Y-82672734D01*
X56919954Y-82859141D01*
X57080858Y-83020045D01*
X57080861Y-83020047D01*
X57267266Y-83150568D01*
X57473504Y-83246739D01*
X57693308Y-83305635D01*
X57855230Y-83319801D01*
X57919998Y-83325468D01*
X57920000Y-83325468D01*
X57920002Y-83325468D01*
X57976673Y-83320509D01*
X58146692Y-83305635D01*
X58366496Y-83246739D01*
X58572734Y-83150568D01*
X58759139Y-83020047D01*
X58920047Y-82859139D01*
X59050568Y-82672734D01*
X59077618Y-82614724D01*
X59123790Y-82562285D01*
X59190983Y-82543133D01*
X59257865Y-82563348D01*
X59302382Y-82614725D01*
X59329429Y-82672728D01*
X59329432Y-82672734D01*
X59459954Y-82859141D01*
X59620858Y-83020045D01*
X59620861Y-83020047D01*
X59807266Y-83150568D01*
X60013504Y-83246739D01*
X60233308Y-83305635D01*
X60395230Y-83319801D01*
X60459998Y-83325468D01*
X60460000Y-83325468D01*
X60460002Y-83325468D01*
X60516673Y-83320509D01*
X60686692Y-83305635D01*
X60906496Y-83246739D01*
X61112734Y-83150568D01*
X61299139Y-83020047D01*
X61460047Y-82859139D01*
X61590568Y-82672734D01*
X61617618Y-82614724D01*
X61663790Y-82562285D01*
X61730983Y-82543133D01*
X61797865Y-82563348D01*
X61842382Y-82614725D01*
X61869429Y-82672728D01*
X61869432Y-82672734D01*
X61999954Y-82859141D01*
X62160858Y-83020045D01*
X62160861Y-83020047D01*
X62347266Y-83150568D01*
X62553504Y-83246739D01*
X62773308Y-83305635D01*
X62935230Y-83319801D01*
X62999998Y-83325468D01*
X63000000Y-83325468D01*
X63000002Y-83325468D01*
X63056673Y-83320509D01*
X63226692Y-83305635D01*
X63446496Y-83246739D01*
X63652734Y-83150568D01*
X63839139Y-83020047D01*
X64000047Y-82859139D01*
X64130568Y-82672734D01*
X64157618Y-82614724D01*
X64203790Y-82562285D01*
X64270983Y-82543133D01*
X64337865Y-82563348D01*
X64382382Y-82614725D01*
X64409429Y-82672728D01*
X64409432Y-82672734D01*
X64539954Y-82859141D01*
X64700858Y-83020045D01*
X64700861Y-83020047D01*
X64887266Y-83150568D01*
X65093504Y-83246739D01*
X65313308Y-83305635D01*
X65475230Y-83319801D01*
X65539998Y-83325468D01*
X65540000Y-83325468D01*
X65540002Y-83325468D01*
X65596673Y-83320509D01*
X65766692Y-83305635D01*
X65986496Y-83246739D01*
X66192734Y-83150568D01*
X66379139Y-83020047D01*
X66540047Y-82859139D01*
X66670568Y-82672734D01*
X66697618Y-82614724D01*
X66743790Y-82562285D01*
X66810983Y-82543133D01*
X66877865Y-82563348D01*
X66922382Y-82614725D01*
X66949429Y-82672728D01*
X66949432Y-82672734D01*
X67079954Y-82859141D01*
X67240858Y-83020045D01*
X67240861Y-83020047D01*
X67427266Y-83150568D01*
X67633504Y-83246739D01*
X67853308Y-83305635D01*
X68015230Y-83319801D01*
X68079998Y-83325468D01*
X68080000Y-83325468D01*
X68080002Y-83325468D01*
X68136673Y-83320509D01*
X68306692Y-83305635D01*
X68526496Y-83246739D01*
X68732734Y-83150568D01*
X68919139Y-83020047D01*
X69080047Y-82859139D01*
X69210568Y-82672734D01*
X69237618Y-82614724D01*
X69283790Y-82562285D01*
X69350983Y-82543133D01*
X69417865Y-82563348D01*
X69462382Y-82614725D01*
X69489429Y-82672728D01*
X69489432Y-82672734D01*
X69619954Y-82859141D01*
X69780858Y-83020045D01*
X69780861Y-83020047D01*
X69967266Y-83150568D01*
X70173504Y-83246739D01*
X70393308Y-83305635D01*
X70555230Y-83319801D01*
X70619998Y-83325468D01*
X70620000Y-83325468D01*
X70620002Y-83325468D01*
X70676673Y-83320509D01*
X70846692Y-83305635D01*
X71066496Y-83246739D01*
X71272734Y-83150568D01*
X71459139Y-83020047D01*
X71620047Y-82859139D01*
X71750568Y-82672734D01*
X71777618Y-82614724D01*
X71823790Y-82562285D01*
X71890983Y-82543133D01*
X71957865Y-82563348D01*
X72002382Y-82614725D01*
X72029429Y-82672728D01*
X72029432Y-82672734D01*
X72159954Y-82859141D01*
X72320858Y-83020045D01*
X72320861Y-83020047D01*
X72507266Y-83150568D01*
X72713504Y-83246739D01*
X72933308Y-83305635D01*
X73095230Y-83319801D01*
X73159998Y-83325468D01*
X73160000Y-83325468D01*
X73160002Y-83325468D01*
X73216673Y-83320509D01*
X73386692Y-83305635D01*
X73606496Y-83246739D01*
X73812734Y-83150568D01*
X73999139Y-83020047D01*
X74160047Y-82859139D01*
X74290568Y-82672734D01*
X74317618Y-82614724D01*
X74363790Y-82562285D01*
X74430983Y-82543133D01*
X74497865Y-82563348D01*
X74542382Y-82614725D01*
X74569429Y-82672728D01*
X74569432Y-82672734D01*
X74699954Y-82859141D01*
X74860858Y-83020045D01*
X74860861Y-83020047D01*
X75047266Y-83150568D01*
X75253504Y-83246739D01*
X75473308Y-83305635D01*
X75635230Y-83319801D01*
X75699998Y-83325468D01*
X75700000Y-83325468D01*
X75700002Y-83325468D01*
X75756673Y-83320509D01*
X75926692Y-83305635D01*
X76146496Y-83246739D01*
X76352734Y-83150568D01*
X76539139Y-83020047D01*
X76700047Y-82859139D01*
X76830568Y-82672734D01*
X76857618Y-82614724D01*
X76903790Y-82562285D01*
X76970983Y-82543133D01*
X77037865Y-82563348D01*
X77082382Y-82614725D01*
X77109429Y-82672728D01*
X77109432Y-82672734D01*
X77239954Y-82859141D01*
X77400858Y-83020045D01*
X77400861Y-83020047D01*
X77587266Y-83150568D01*
X77793504Y-83246739D01*
X78013308Y-83305635D01*
X78175230Y-83319801D01*
X78239998Y-83325468D01*
X78240000Y-83325468D01*
X78240002Y-83325468D01*
X78296673Y-83320509D01*
X78466692Y-83305635D01*
X78686496Y-83246739D01*
X78892734Y-83150568D01*
X79079139Y-83020047D01*
X79240047Y-82859139D01*
X79370568Y-82672734D01*
X79397618Y-82614724D01*
X79443790Y-82562285D01*
X79510983Y-82543133D01*
X79577865Y-82563348D01*
X79622382Y-82614725D01*
X79649429Y-82672728D01*
X79649432Y-82672734D01*
X79779954Y-82859141D01*
X79940858Y-83020045D01*
X79940861Y-83020047D01*
X80127266Y-83150568D01*
X80333504Y-83246739D01*
X80553308Y-83305635D01*
X80715230Y-83319801D01*
X80779998Y-83325468D01*
X80780000Y-83325468D01*
X80780002Y-83325468D01*
X80836673Y-83320509D01*
X81006692Y-83305635D01*
X81226496Y-83246739D01*
X81432734Y-83150568D01*
X81619139Y-83020047D01*
X81780047Y-82859139D01*
X81910568Y-82672734D01*
X81937618Y-82614724D01*
X81983790Y-82562285D01*
X82050983Y-82543133D01*
X82117865Y-82563348D01*
X82162382Y-82614725D01*
X82189429Y-82672728D01*
X82189432Y-82672734D01*
X82319954Y-82859141D01*
X82480858Y-83020045D01*
X82480861Y-83020047D01*
X82667266Y-83150568D01*
X82873504Y-83246739D01*
X83093308Y-83305635D01*
X83255230Y-83319801D01*
X83319998Y-83325468D01*
X83320000Y-83325468D01*
X83320002Y-83325468D01*
X83376673Y-83320509D01*
X83546692Y-83305635D01*
X83766496Y-83246739D01*
X83972734Y-83150568D01*
X84159139Y-83020047D01*
X84320047Y-82859139D01*
X84450568Y-82672734D01*
X84477618Y-82614724D01*
X84523790Y-82562285D01*
X84590983Y-82543133D01*
X84657865Y-82563348D01*
X84702382Y-82614725D01*
X84729429Y-82672728D01*
X84729432Y-82672734D01*
X84859954Y-82859141D01*
X85020858Y-83020045D01*
X85020861Y-83020047D01*
X85207266Y-83150568D01*
X85413504Y-83246739D01*
X85633308Y-83305635D01*
X85795230Y-83319801D01*
X85859998Y-83325468D01*
X85860000Y-83325468D01*
X85860002Y-83325468D01*
X85916673Y-83320509D01*
X86086692Y-83305635D01*
X86306496Y-83246739D01*
X86512734Y-83150568D01*
X86699139Y-83020047D01*
X86860047Y-82859139D01*
X86990568Y-82672734D01*
X87017618Y-82614724D01*
X87063790Y-82562285D01*
X87130983Y-82543133D01*
X87197865Y-82563348D01*
X87242382Y-82614725D01*
X87269429Y-82672728D01*
X87269432Y-82672734D01*
X87399954Y-82859141D01*
X87560858Y-83020045D01*
X87560861Y-83020047D01*
X87747266Y-83150568D01*
X87953504Y-83246739D01*
X88173308Y-83305635D01*
X88335230Y-83319801D01*
X88399998Y-83325468D01*
X88400000Y-83325468D01*
X88400002Y-83325468D01*
X88456673Y-83320509D01*
X88626692Y-83305635D01*
X88846496Y-83246739D01*
X89052734Y-83150568D01*
X89239139Y-83020047D01*
X89400047Y-82859139D01*
X89530568Y-82672734D01*
X89557618Y-82614724D01*
X89603790Y-82562285D01*
X89670983Y-82543133D01*
X89737865Y-82563348D01*
X89782382Y-82614725D01*
X89809429Y-82672728D01*
X89809432Y-82672734D01*
X89939954Y-82859141D01*
X90100858Y-83020045D01*
X90100861Y-83020047D01*
X90287266Y-83150568D01*
X90493504Y-83246739D01*
X90713308Y-83305635D01*
X90875230Y-83319801D01*
X90939998Y-83325468D01*
X90940000Y-83325468D01*
X90940002Y-83325468D01*
X90996673Y-83320509D01*
X91166692Y-83305635D01*
X91386496Y-83246739D01*
X91592734Y-83150568D01*
X91779139Y-83020047D01*
X91940047Y-82859139D01*
X92070568Y-82672734D01*
X92097618Y-82614724D01*
X92143790Y-82562285D01*
X92210983Y-82543133D01*
X92277865Y-82563348D01*
X92322382Y-82614725D01*
X92349429Y-82672728D01*
X92349432Y-82672734D01*
X92479954Y-82859141D01*
X92640858Y-83020045D01*
X92640861Y-83020047D01*
X92827266Y-83150568D01*
X93033504Y-83246739D01*
X93253308Y-83305635D01*
X93415230Y-83319801D01*
X93479998Y-83325468D01*
X93480000Y-83325468D01*
X93480002Y-83325468D01*
X93536673Y-83320509D01*
X93706692Y-83305635D01*
X93926496Y-83246739D01*
X94132734Y-83150568D01*
X94319139Y-83020047D01*
X94480047Y-82859139D01*
X94610568Y-82672734D01*
X94691117Y-82499998D01*
X103094532Y-82499998D01*
X103094532Y-82500001D01*
X103114364Y-82726686D01*
X103114366Y-82726697D01*
X103173258Y-82946488D01*
X103173261Y-82946497D01*
X103269431Y-83152732D01*
X103269432Y-83152734D01*
X103399954Y-83339141D01*
X103560858Y-83500045D01*
X103560861Y-83500047D01*
X103747266Y-83630568D01*
X103953504Y-83726739D01*
X104173308Y-83785635D01*
X104335230Y-83799801D01*
X104399998Y-83805468D01*
X104400000Y-83805468D01*
X104400002Y-83805468D01*
X104456673Y-83800509D01*
X104626692Y-83785635D01*
X104846496Y-83726739D01*
X105052734Y-83630568D01*
X105239139Y-83500047D01*
X105400047Y-83339139D01*
X105530568Y-83152734D01*
X105626739Y-82946496D01*
X105685635Y-82726692D01*
X105705468Y-82500000D01*
X105705468Y-82499998D01*
X108094532Y-82499998D01*
X108094532Y-82500001D01*
X108114364Y-82726686D01*
X108114366Y-82726697D01*
X108173258Y-82946488D01*
X108173261Y-82946497D01*
X108269431Y-83152732D01*
X108269432Y-83152734D01*
X108399954Y-83339141D01*
X108560858Y-83500045D01*
X108560861Y-83500047D01*
X108747266Y-83630568D01*
X108953504Y-83726739D01*
X109173308Y-83785635D01*
X109335230Y-83799801D01*
X109399998Y-83805468D01*
X109400000Y-83805468D01*
X109400002Y-83805468D01*
X109456673Y-83800509D01*
X109626692Y-83785635D01*
X109846496Y-83726739D01*
X110052734Y-83630568D01*
X110239139Y-83500047D01*
X110400047Y-83339139D01*
X110530568Y-83152734D01*
X110626739Y-82946496D01*
X110685635Y-82726692D01*
X110705468Y-82500000D01*
X110705468Y-82499998D01*
X129094532Y-82499998D01*
X129094532Y-82500001D01*
X129114364Y-82726686D01*
X129114366Y-82726697D01*
X129173258Y-82946488D01*
X129173261Y-82946497D01*
X129269431Y-83152732D01*
X129269432Y-83152734D01*
X129399954Y-83339141D01*
X129560858Y-83500045D01*
X129560861Y-83500047D01*
X129747266Y-83630568D01*
X129953504Y-83726739D01*
X130173308Y-83785635D01*
X130335230Y-83799801D01*
X130399998Y-83805468D01*
X130400000Y-83805468D01*
X130400002Y-83805468D01*
X130456673Y-83800509D01*
X130626692Y-83785635D01*
X130846496Y-83726739D01*
X131052734Y-83630568D01*
X131239139Y-83500047D01*
X131400047Y-83339139D01*
X131530568Y-83152734D01*
X131626739Y-82946496D01*
X131685635Y-82726692D01*
X131705468Y-82500000D01*
X131705468Y-82499998D01*
X134094532Y-82499998D01*
X134094532Y-82500001D01*
X134114364Y-82726686D01*
X134114366Y-82726697D01*
X134173258Y-82946488D01*
X134173261Y-82946497D01*
X134269431Y-83152732D01*
X134269432Y-83152734D01*
X134399954Y-83339141D01*
X134560858Y-83500045D01*
X134560861Y-83500047D01*
X134747266Y-83630568D01*
X134953504Y-83726739D01*
X135173308Y-83785635D01*
X135335230Y-83799801D01*
X135399998Y-83805468D01*
X135400000Y-83805468D01*
X135400002Y-83805468D01*
X135456673Y-83800509D01*
X135626692Y-83785635D01*
X135846496Y-83726739D01*
X136052734Y-83630568D01*
X136239139Y-83500047D01*
X136400047Y-83339139D01*
X136530568Y-83152734D01*
X136626739Y-82946496D01*
X136685635Y-82726692D01*
X136705468Y-82500000D01*
X136705468Y-82499998D01*
X154994532Y-82499998D01*
X154994532Y-82500001D01*
X155014364Y-82726686D01*
X155014366Y-82726697D01*
X155073258Y-82946488D01*
X155073261Y-82946497D01*
X155169431Y-83152732D01*
X155169432Y-83152734D01*
X155299954Y-83339141D01*
X155460858Y-83500045D01*
X155460861Y-83500047D01*
X155647266Y-83630568D01*
X155853504Y-83726739D01*
X156073308Y-83785635D01*
X156235230Y-83799801D01*
X156299998Y-83805468D01*
X156300000Y-83805468D01*
X156300002Y-83805468D01*
X156356673Y-83800509D01*
X156526692Y-83785635D01*
X156746496Y-83726739D01*
X156952734Y-83630568D01*
X157139139Y-83500047D01*
X157300047Y-83339139D01*
X157430568Y-83152734D01*
X157526739Y-82946496D01*
X157585635Y-82726692D01*
X157605468Y-82500000D01*
X157605468Y-82499998D01*
X159994532Y-82499998D01*
X159994532Y-82500001D01*
X160014364Y-82726686D01*
X160014366Y-82726697D01*
X160073258Y-82946488D01*
X160073261Y-82946497D01*
X160169431Y-83152732D01*
X160169432Y-83152734D01*
X160299954Y-83339141D01*
X160460858Y-83500045D01*
X160460861Y-83500047D01*
X160647266Y-83630568D01*
X160853504Y-83726739D01*
X161073308Y-83785635D01*
X161235230Y-83799801D01*
X161299998Y-83805468D01*
X161300000Y-83805468D01*
X161300002Y-83805468D01*
X161356673Y-83800509D01*
X161526692Y-83785635D01*
X161746496Y-83726739D01*
X161952734Y-83630568D01*
X162139139Y-83500047D01*
X162300047Y-83339139D01*
X162430568Y-83152734D01*
X162526739Y-82946496D01*
X162585635Y-82726692D01*
X162605468Y-82500000D01*
X162605468Y-82499998D01*
X180694532Y-82499998D01*
X180694532Y-82500001D01*
X180714364Y-82726686D01*
X180714366Y-82726697D01*
X180773258Y-82946488D01*
X180773261Y-82946497D01*
X180869431Y-83152732D01*
X180869432Y-83152734D01*
X180999954Y-83339141D01*
X181160858Y-83500045D01*
X181160861Y-83500047D01*
X181347266Y-83630568D01*
X181553504Y-83726739D01*
X181773308Y-83785635D01*
X181935230Y-83799801D01*
X181999998Y-83805468D01*
X182000000Y-83805468D01*
X182000002Y-83805468D01*
X182056673Y-83800509D01*
X182226692Y-83785635D01*
X182446496Y-83726739D01*
X182652734Y-83630568D01*
X182839139Y-83500047D01*
X183000047Y-83339139D01*
X183130568Y-83152734D01*
X183226739Y-82946496D01*
X183285635Y-82726692D01*
X183305468Y-82500000D01*
X183305468Y-82499998D01*
X185694532Y-82499998D01*
X185694532Y-82500001D01*
X185714364Y-82726686D01*
X185714366Y-82726697D01*
X185773258Y-82946488D01*
X185773261Y-82946497D01*
X185869431Y-83152732D01*
X185869432Y-83152734D01*
X185999954Y-83339141D01*
X186160858Y-83500045D01*
X186160861Y-83500047D01*
X186347266Y-83630568D01*
X186553504Y-83726739D01*
X186773308Y-83785635D01*
X186935230Y-83799801D01*
X186999998Y-83805468D01*
X187000000Y-83805468D01*
X187000002Y-83805468D01*
X187056673Y-83800509D01*
X187226692Y-83785635D01*
X187446496Y-83726739D01*
X187652734Y-83630568D01*
X187839139Y-83500047D01*
X188000047Y-83339139D01*
X188130568Y-83152734D01*
X188226739Y-82946496D01*
X188285635Y-82726692D01*
X188305468Y-82500000D01*
X188305468Y-82499998D01*
X206594532Y-82499998D01*
X206594532Y-82500001D01*
X206614364Y-82726686D01*
X206614366Y-82726697D01*
X206673258Y-82946488D01*
X206673261Y-82946497D01*
X206769431Y-83152732D01*
X206769432Y-83152734D01*
X206899954Y-83339141D01*
X207060858Y-83500045D01*
X207060861Y-83500047D01*
X207247266Y-83630568D01*
X207453504Y-83726739D01*
X207673308Y-83785635D01*
X207835230Y-83799801D01*
X207899998Y-83805468D01*
X207900000Y-83805468D01*
X207900002Y-83805468D01*
X207956673Y-83800509D01*
X208126692Y-83785635D01*
X208346496Y-83726739D01*
X208552734Y-83630568D01*
X208739139Y-83500047D01*
X208900047Y-83339139D01*
X209030568Y-83152734D01*
X209126739Y-82946496D01*
X209185635Y-82726692D01*
X209205468Y-82500000D01*
X209205468Y-82499998D01*
X211594532Y-82499998D01*
X211594532Y-82500001D01*
X211614364Y-82726686D01*
X211614366Y-82726697D01*
X211673258Y-82946488D01*
X211673261Y-82946497D01*
X211769431Y-83152732D01*
X211769432Y-83152734D01*
X211899954Y-83339141D01*
X212060858Y-83500045D01*
X212060861Y-83500047D01*
X212247266Y-83630568D01*
X212453504Y-83726739D01*
X212673308Y-83785635D01*
X212835230Y-83799801D01*
X212899998Y-83805468D01*
X212900000Y-83805468D01*
X212900002Y-83805468D01*
X212956673Y-83800509D01*
X213126692Y-83785635D01*
X213346496Y-83726739D01*
X213552734Y-83630568D01*
X213739139Y-83500047D01*
X213900047Y-83339139D01*
X214030568Y-83152734D01*
X214126739Y-82946496D01*
X214185635Y-82726692D01*
X214205468Y-82500000D01*
X214205468Y-82499998D01*
X232594532Y-82499998D01*
X232594532Y-82500001D01*
X232614364Y-82726686D01*
X232614366Y-82726697D01*
X232673258Y-82946488D01*
X232673261Y-82946497D01*
X232769431Y-83152732D01*
X232769432Y-83152734D01*
X232899954Y-83339141D01*
X233060858Y-83500045D01*
X233060861Y-83500047D01*
X233247266Y-83630568D01*
X233453504Y-83726739D01*
X233673308Y-83785635D01*
X233835230Y-83799801D01*
X233899998Y-83805468D01*
X233900000Y-83805468D01*
X233900002Y-83805468D01*
X233956673Y-83800509D01*
X234126692Y-83785635D01*
X234346496Y-83726739D01*
X234552734Y-83630568D01*
X234739139Y-83500047D01*
X234900047Y-83339139D01*
X235030568Y-83152734D01*
X235126739Y-82946496D01*
X235185635Y-82726692D01*
X235205468Y-82500000D01*
X235205468Y-82499998D01*
X237594532Y-82499998D01*
X237594532Y-82500001D01*
X237614364Y-82726686D01*
X237614366Y-82726697D01*
X237673258Y-82946488D01*
X237673261Y-82946497D01*
X237769431Y-83152732D01*
X237769432Y-83152734D01*
X237899954Y-83339141D01*
X238060858Y-83500045D01*
X238060861Y-83500047D01*
X238247266Y-83630568D01*
X238453504Y-83726739D01*
X238673308Y-83785635D01*
X238835230Y-83799801D01*
X238899998Y-83805468D01*
X238900000Y-83805468D01*
X238900002Y-83805468D01*
X238956673Y-83800509D01*
X239126692Y-83785635D01*
X239346496Y-83726739D01*
X239552734Y-83630568D01*
X239739139Y-83500047D01*
X239900047Y-83339139D01*
X240030568Y-83152734D01*
X240126739Y-82946496D01*
X240185635Y-82726692D01*
X240205468Y-82500000D01*
X240185635Y-82273308D01*
X240126739Y-82053504D01*
X240030568Y-81847266D01*
X239900047Y-81660861D01*
X239900045Y-81660858D01*
X239739141Y-81499954D01*
X239552734Y-81369432D01*
X239552732Y-81369431D01*
X239346497Y-81273261D01*
X239346488Y-81273258D01*
X239126697Y-81214366D01*
X239126693Y-81214365D01*
X239126692Y-81214365D01*
X239126691Y-81214364D01*
X239126686Y-81214364D01*
X238900002Y-81194532D01*
X238899998Y-81194532D01*
X238673313Y-81214364D01*
X238673302Y-81214366D01*
X238453511Y-81273258D01*
X238453502Y-81273261D01*
X238247267Y-81369431D01*
X238247265Y-81369432D01*
X238060858Y-81499954D01*
X237899954Y-81660858D01*
X237769432Y-81847265D01*
X237769431Y-81847267D01*
X237673261Y-82053502D01*
X237673258Y-82053511D01*
X237614366Y-82273302D01*
X237614364Y-82273313D01*
X237594532Y-82499998D01*
X235205468Y-82499998D01*
X235185635Y-82273308D01*
X235126739Y-82053504D01*
X235030568Y-81847266D01*
X234900047Y-81660861D01*
X234900045Y-81660858D01*
X234739141Y-81499954D01*
X234552734Y-81369432D01*
X234552732Y-81369431D01*
X234346497Y-81273261D01*
X234346488Y-81273258D01*
X234126697Y-81214366D01*
X234126693Y-81214365D01*
X234126692Y-81214365D01*
X234126691Y-81214364D01*
X234126686Y-81214364D01*
X233900002Y-81194532D01*
X233899998Y-81194532D01*
X233673313Y-81214364D01*
X233673302Y-81214366D01*
X233453511Y-81273258D01*
X233453502Y-81273261D01*
X233247267Y-81369431D01*
X233247265Y-81369432D01*
X233060858Y-81499954D01*
X232899954Y-81660858D01*
X232769432Y-81847265D01*
X232769431Y-81847267D01*
X232673261Y-82053502D01*
X232673258Y-82053511D01*
X232614366Y-82273302D01*
X232614364Y-82273313D01*
X232594532Y-82499998D01*
X214205468Y-82499998D01*
X214185635Y-82273308D01*
X214126739Y-82053504D01*
X214030568Y-81847266D01*
X213900047Y-81660861D01*
X213900045Y-81660858D01*
X213739141Y-81499954D01*
X213552734Y-81369432D01*
X213552732Y-81369431D01*
X213346497Y-81273261D01*
X213346488Y-81273258D01*
X213126697Y-81214366D01*
X213126693Y-81214365D01*
X213126692Y-81214365D01*
X213126691Y-81214364D01*
X213126686Y-81214364D01*
X212900002Y-81194532D01*
X212899998Y-81194532D01*
X212673313Y-81214364D01*
X212673302Y-81214366D01*
X212453511Y-81273258D01*
X212453502Y-81273261D01*
X212247267Y-81369431D01*
X212247265Y-81369432D01*
X212060858Y-81499954D01*
X211899954Y-81660858D01*
X211769432Y-81847265D01*
X211769431Y-81847267D01*
X211673261Y-82053502D01*
X211673258Y-82053511D01*
X211614366Y-82273302D01*
X211614364Y-82273313D01*
X211594532Y-82499998D01*
X209205468Y-82499998D01*
X209185635Y-82273308D01*
X209126739Y-82053504D01*
X209030568Y-81847266D01*
X208900047Y-81660861D01*
X208900045Y-81660858D01*
X208739141Y-81499954D01*
X208552734Y-81369432D01*
X208552732Y-81369431D01*
X208346497Y-81273261D01*
X208346488Y-81273258D01*
X208126697Y-81214366D01*
X208126693Y-81214365D01*
X208126692Y-81214365D01*
X208126691Y-81214364D01*
X208126686Y-81214364D01*
X207900002Y-81194532D01*
X207899998Y-81194532D01*
X207673313Y-81214364D01*
X207673302Y-81214366D01*
X207453511Y-81273258D01*
X207453502Y-81273261D01*
X207247267Y-81369431D01*
X207247265Y-81369432D01*
X207060858Y-81499954D01*
X206899954Y-81660858D01*
X206769432Y-81847265D01*
X206769431Y-81847267D01*
X206673261Y-82053502D01*
X206673258Y-82053511D01*
X206614366Y-82273302D01*
X206614364Y-82273313D01*
X206594532Y-82499998D01*
X188305468Y-82499998D01*
X188285635Y-82273308D01*
X188226739Y-82053504D01*
X188130568Y-81847266D01*
X188000047Y-81660861D01*
X188000045Y-81660858D01*
X187839141Y-81499954D01*
X187652734Y-81369432D01*
X187652732Y-81369431D01*
X187446497Y-81273261D01*
X187446488Y-81273258D01*
X187226697Y-81214366D01*
X187226693Y-81214365D01*
X187226692Y-81214365D01*
X187226691Y-81214364D01*
X187226686Y-81214364D01*
X187000002Y-81194532D01*
X186999998Y-81194532D01*
X186773313Y-81214364D01*
X186773302Y-81214366D01*
X186553511Y-81273258D01*
X186553502Y-81273261D01*
X186347267Y-81369431D01*
X186347265Y-81369432D01*
X186160858Y-81499954D01*
X185999954Y-81660858D01*
X185869432Y-81847265D01*
X185869431Y-81847267D01*
X185773261Y-82053502D01*
X185773258Y-82053511D01*
X185714366Y-82273302D01*
X185714364Y-82273313D01*
X185694532Y-82499998D01*
X183305468Y-82499998D01*
X183285635Y-82273308D01*
X183226739Y-82053504D01*
X183130568Y-81847266D01*
X183000047Y-81660861D01*
X183000045Y-81660858D01*
X182839141Y-81499954D01*
X182652734Y-81369432D01*
X182652732Y-81369431D01*
X182446497Y-81273261D01*
X182446488Y-81273258D01*
X182226697Y-81214366D01*
X182226693Y-81214365D01*
X182226692Y-81214365D01*
X182226691Y-81214364D01*
X182226686Y-81214364D01*
X182000002Y-81194532D01*
X181999998Y-81194532D01*
X181773313Y-81214364D01*
X181773302Y-81214366D01*
X181553511Y-81273258D01*
X181553502Y-81273261D01*
X181347267Y-81369431D01*
X181347265Y-81369432D01*
X181160858Y-81499954D01*
X180999954Y-81660858D01*
X180869432Y-81847265D01*
X180869431Y-81847267D01*
X180773261Y-82053502D01*
X180773258Y-82053511D01*
X180714366Y-82273302D01*
X180714364Y-82273313D01*
X180694532Y-82499998D01*
X162605468Y-82499998D01*
X162585635Y-82273308D01*
X162526739Y-82053504D01*
X162430568Y-81847266D01*
X162300047Y-81660861D01*
X162300045Y-81660858D01*
X162139141Y-81499954D01*
X161952734Y-81369432D01*
X161952732Y-81369431D01*
X161746497Y-81273261D01*
X161746488Y-81273258D01*
X161526697Y-81214366D01*
X161526693Y-81214365D01*
X161526692Y-81214365D01*
X161526691Y-81214364D01*
X161526686Y-81214364D01*
X161300002Y-81194532D01*
X161299998Y-81194532D01*
X161073313Y-81214364D01*
X161073302Y-81214366D01*
X160853511Y-81273258D01*
X160853502Y-81273261D01*
X160647267Y-81369431D01*
X160647265Y-81369432D01*
X160460858Y-81499954D01*
X160299954Y-81660858D01*
X160169432Y-81847265D01*
X160169431Y-81847267D01*
X160073261Y-82053502D01*
X160073258Y-82053511D01*
X160014366Y-82273302D01*
X160014364Y-82273313D01*
X159994532Y-82499998D01*
X157605468Y-82499998D01*
X157585635Y-82273308D01*
X157526739Y-82053504D01*
X157430568Y-81847266D01*
X157300047Y-81660861D01*
X157300045Y-81660858D01*
X157139141Y-81499954D01*
X156952734Y-81369432D01*
X156952732Y-81369431D01*
X156746497Y-81273261D01*
X156746488Y-81273258D01*
X156526697Y-81214366D01*
X156526693Y-81214365D01*
X156526692Y-81214365D01*
X156526691Y-81214364D01*
X156526686Y-81214364D01*
X156300002Y-81194532D01*
X156299998Y-81194532D01*
X156073313Y-81214364D01*
X156073302Y-81214366D01*
X155853511Y-81273258D01*
X155853502Y-81273261D01*
X155647267Y-81369431D01*
X155647265Y-81369432D01*
X155460858Y-81499954D01*
X155299954Y-81660858D01*
X155169432Y-81847265D01*
X155169431Y-81847267D01*
X155073261Y-82053502D01*
X155073258Y-82053511D01*
X155014366Y-82273302D01*
X155014364Y-82273313D01*
X154994532Y-82499998D01*
X136705468Y-82499998D01*
X136685635Y-82273308D01*
X136626739Y-82053504D01*
X136530568Y-81847266D01*
X136400047Y-81660861D01*
X136400045Y-81660858D01*
X136239141Y-81499954D01*
X136052734Y-81369432D01*
X136052732Y-81369431D01*
X135846497Y-81273261D01*
X135846488Y-81273258D01*
X135626697Y-81214366D01*
X135626693Y-81214365D01*
X135626692Y-81214365D01*
X135626691Y-81214364D01*
X135626686Y-81214364D01*
X135400002Y-81194532D01*
X135399998Y-81194532D01*
X135173313Y-81214364D01*
X135173302Y-81214366D01*
X134953511Y-81273258D01*
X134953502Y-81273261D01*
X134747267Y-81369431D01*
X134747265Y-81369432D01*
X134560858Y-81499954D01*
X134399954Y-81660858D01*
X134269432Y-81847265D01*
X134269431Y-81847267D01*
X134173261Y-82053502D01*
X134173258Y-82053511D01*
X134114366Y-82273302D01*
X134114364Y-82273313D01*
X134094532Y-82499998D01*
X131705468Y-82499998D01*
X131685635Y-82273308D01*
X131626739Y-82053504D01*
X131530568Y-81847266D01*
X131400047Y-81660861D01*
X131400045Y-81660858D01*
X131239141Y-81499954D01*
X131052734Y-81369432D01*
X131052732Y-81369431D01*
X130846497Y-81273261D01*
X130846488Y-81273258D01*
X130626697Y-81214366D01*
X130626693Y-81214365D01*
X130626692Y-81214365D01*
X130626691Y-81214364D01*
X130626686Y-81214364D01*
X130400002Y-81194532D01*
X130399998Y-81194532D01*
X130173313Y-81214364D01*
X130173302Y-81214366D01*
X129953511Y-81273258D01*
X129953502Y-81273261D01*
X129747267Y-81369431D01*
X129747265Y-81369432D01*
X129560858Y-81499954D01*
X129399954Y-81660858D01*
X129269432Y-81847265D01*
X129269431Y-81847267D01*
X129173261Y-82053502D01*
X129173258Y-82053511D01*
X129114366Y-82273302D01*
X129114364Y-82273313D01*
X129094532Y-82499998D01*
X110705468Y-82499998D01*
X110685635Y-82273308D01*
X110626739Y-82053504D01*
X110530568Y-81847266D01*
X110400047Y-81660861D01*
X110400045Y-81660858D01*
X110239141Y-81499954D01*
X110052734Y-81369432D01*
X110052732Y-81369431D01*
X109846497Y-81273261D01*
X109846488Y-81273258D01*
X109626697Y-81214366D01*
X109626693Y-81214365D01*
X109626692Y-81214365D01*
X109626691Y-81214364D01*
X109626686Y-81214364D01*
X109400002Y-81194532D01*
X109399998Y-81194532D01*
X109173313Y-81214364D01*
X109173302Y-81214366D01*
X108953511Y-81273258D01*
X108953502Y-81273261D01*
X108747267Y-81369431D01*
X108747265Y-81369432D01*
X108560858Y-81499954D01*
X108399954Y-81660858D01*
X108269432Y-81847265D01*
X108269431Y-81847267D01*
X108173261Y-82053502D01*
X108173258Y-82053511D01*
X108114366Y-82273302D01*
X108114364Y-82273313D01*
X108094532Y-82499998D01*
X105705468Y-82499998D01*
X105685635Y-82273308D01*
X105626739Y-82053504D01*
X105530568Y-81847266D01*
X105400047Y-81660861D01*
X105400045Y-81660858D01*
X105239141Y-81499954D01*
X105052734Y-81369432D01*
X105052732Y-81369431D01*
X104846497Y-81273261D01*
X104846488Y-81273258D01*
X104626697Y-81214366D01*
X104626693Y-81214365D01*
X104626692Y-81214365D01*
X104626691Y-81214364D01*
X104626686Y-81214364D01*
X104400002Y-81194532D01*
X104399998Y-81194532D01*
X104173313Y-81214364D01*
X104173302Y-81214366D01*
X103953511Y-81273258D01*
X103953502Y-81273261D01*
X103747267Y-81369431D01*
X103747265Y-81369432D01*
X103560858Y-81499954D01*
X103399954Y-81660858D01*
X103269432Y-81847265D01*
X103269431Y-81847267D01*
X103173261Y-82053502D01*
X103173258Y-82053511D01*
X103114366Y-82273302D01*
X103114364Y-82273313D01*
X103094532Y-82499998D01*
X94691117Y-82499998D01*
X94706739Y-82466496D01*
X94765635Y-82246692D01*
X94785468Y-82020000D01*
X94765635Y-81793308D01*
X94706739Y-81573504D01*
X94610568Y-81367266D01*
X94503506Y-81214364D01*
X94480045Y-81180858D01*
X94319141Y-81019954D01*
X94132734Y-80889432D01*
X94132732Y-80889431D01*
X93926497Y-80793261D01*
X93926488Y-80793258D01*
X93706697Y-80734366D01*
X93706693Y-80734365D01*
X93706692Y-80734365D01*
X93706691Y-80734364D01*
X93706686Y-80734364D01*
X93480002Y-80714532D01*
X93479998Y-80714532D01*
X93253313Y-80734364D01*
X93253302Y-80734366D01*
X93033511Y-80793258D01*
X93033502Y-80793261D01*
X92827267Y-80889431D01*
X92827265Y-80889432D01*
X92640858Y-81019954D01*
X92479954Y-81180858D01*
X92349432Y-81367265D01*
X92349431Y-81367267D01*
X92322382Y-81425275D01*
X92276209Y-81477714D01*
X92209016Y-81496866D01*
X92142135Y-81476650D01*
X92097618Y-81425275D01*
X92071578Y-81369432D01*
X92070568Y-81367266D01*
X91963506Y-81214364D01*
X91940045Y-81180858D01*
X91779141Y-81019954D01*
X91592734Y-80889432D01*
X91592732Y-80889431D01*
X91386497Y-80793261D01*
X91386488Y-80793258D01*
X91166697Y-80734366D01*
X91166693Y-80734365D01*
X91166692Y-80734365D01*
X91166691Y-80734364D01*
X91166686Y-80734364D01*
X90940002Y-80714532D01*
X90939998Y-80714532D01*
X90713313Y-80734364D01*
X90713302Y-80734366D01*
X90493511Y-80793258D01*
X90493502Y-80793261D01*
X90287267Y-80889431D01*
X90287265Y-80889432D01*
X90100858Y-81019954D01*
X89939954Y-81180858D01*
X89809432Y-81367265D01*
X89809431Y-81367267D01*
X89782382Y-81425275D01*
X89736209Y-81477714D01*
X89669016Y-81496866D01*
X89602135Y-81476650D01*
X89557618Y-81425275D01*
X89531578Y-81369432D01*
X89530568Y-81367266D01*
X89423506Y-81214364D01*
X89400045Y-81180858D01*
X89239141Y-81019954D01*
X89052734Y-80889432D01*
X89052732Y-80889431D01*
X88846497Y-80793261D01*
X88846488Y-80793258D01*
X88626697Y-80734366D01*
X88626693Y-80734365D01*
X88626692Y-80734365D01*
X88626691Y-80734364D01*
X88626686Y-80734364D01*
X88400002Y-80714532D01*
X88399998Y-80714532D01*
X88173313Y-80734364D01*
X88173302Y-80734366D01*
X87953511Y-80793258D01*
X87953502Y-80793261D01*
X87747267Y-80889431D01*
X87747265Y-80889432D01*
X87560858Y-81019954D01*
X87399954Y-81180858D01*
X87269432Y-81367265D01*
X87269431Y-81367267D01*
X87242382Y-81425275D01*
X87196209Y-81477714D01*
X87129016Y-81496866D01*
X87062135Y-81476650D01*
X87017618Y-81425275D01*
X86991578Y-81369432D01*
X86990568Y-81367266D01*
X86883506Y-81214364D01*
X86860045Y-81180858D01*
X86699141Y-81019954D01*
X86512734Y-80889432D01*
X86512732Y-80889431D01*
X86306497Y-80793261D01*
X86306488Y-80793258D01*
X86086697Y-80734366D01*
X86086693Y-80734365D01*
X86086692Y-80734365D01*
X86086691Y-80734364D01*
X86086686Y-80734364D01*
X85860002Y-80714532D01*
X85859998Y-80714532D01*
X85633313Y-80734364D01*
X85633302Y-80734366D01*
X85413511Y-80793258D01*
X85413502Y-80793261D01*
X85207267Y-80889431D01*
X85207265Y-80889432D01*
X85020858Y-81019954D01*
X84859954Y-81180858D01*
X84729432Y-81367265D01*
X84729431Y-81367267D01*
X84702382Y-81425275D01*
X84656209Y-81477714D01*
X84589016Y-81496866D01*
X84522135Y-81476650D01*
X84477618Y-81425275D01*
X84451578Y-81369432D01*
X84450568Y-81367266D01*
X84343506Y-81214364D01*
X84320045Y-81180858D01*
X84159141Y-81019954D01*
X83972734Y-80889432D01*
X83972732Y-80889431D01*
X83766497Y-80793261D01*
X83766488Y-80793258D01*
X83546697Y-80734366D01*
X83546693Y-80734365D01*
X83546692Y-80734365D01*
X83546691Y-80734364D01*
X83546686Y-80734364D01*
X83320002Y-80714532D01*
X83319998Y-80714532D01*
X83093313Y-80734364D01*
X83093302Y-80734366D01*
X82873511Y-80793258D01*
X82873502Y-80793261D01*
X82667267Y-80889431D01*
X82667265Y-80889432D01*
X82480858Y-81019954D01*
X82319954Y-81180858D01*
X82189432Y-81367265D01*
X82189431Y-81367267D01*
X82162382Y-81425275D01*
X82116209Y-81477714D01*
X82049016Y-81496866D01*
X81982135Y-81476650D01*
X81937618Y-81425275D01*
X81911578Y-81369432D01*
X81910568Y-81367266D01*
X81803506Y-81214364D01*
X81780045Y-81180858D01*
X81619141Y-81019954D01*
X81432734Y-80889432D01*
X81432732Y-80889431D01*
X81226497Y-80793261D01*
X81226488Y-80793258D01*
X81006697Y-80734366D01*
X81006693Y-80734365D01*
X81006692Y-80734365D01*
X81006691Y-80734364D01*
X81006686Y-80734364D01*
X80780002Y-80714532D01*
X80779998Y-80714532D01*
X80553313Y-80734364D01*
X80553302Y-80734366D01*
X80333511Y-80793258D01*
X80333502Y-80793261D01*
X80127267Y-80889431D01*
X80127265Y-80889432D01*
X79940858Y-81019954D01*
X79779954Y-81180858D01*
X79649432Y-81367265D01*
X79649431Y-81367267D01*
X79622382Y-81425275D01*
X79576209Y-81477714D01*
X79509016Y-81496866D01*
X79442135Y-81476650D01*
X79397618Y-81425275D01*
X79371578Y-81369432D01*
X79370568Y-81367266D01*
X79263506Y-81214364D01*
X79240045Y-81180858D01*
X79079141Y-81019954D01*
X78892734Y-80889432D01*
X78892732Y-80889431D01*
X78686497Y-80793261D01*
X78686488Y-80793258D01*
X78466697Y-80734366D01*
X78466693Y-80734365D01*
X78466692Y-80734365D01*
X78466691Y-80734364D01*
X78466686Y-80734364D01*
X78240002Y-80714532D01*
X78239998Y-80714532D01*
X78013313Y-80734364D01*
X78013302Y-80734366D01*
X77793511Y-80793258D01*
X77793502Y-80793261D01*
X77587267Y-80889431D01*
X77587265Y-80889432D01*
X77400858Y-81019954D01*
X77239954Y-81180858D01*
X77109432Y-81367265D01*
X77109431Y-81367267D01*
X77082382Y-81425275D01*
X77036209Y-81477714D01*
X76969016Y-81496866D01*
X76902135Y-81476650D01*
X76857618Y-81425275D01*
X76831578Y-81369432D01*
X76830568Y-81367266D01*
X76723506Y-81214364D01*
X76700045Y-81180858D01*
X76539141Y-81019954D01*
X76352734Y-80889432D01*
X76352732Y-80889431D01*
X76146497Y-80793261D01*
X76146488Y-80793258D01*
X75926697Y-80734366D01*
X75926693Y-80734365D01*
X75926692Y-80734365D01*
X75926691Y-80734364D01*
X75926686Y-80734364D01*
X75700002Y-80714532D01*
X75699998Y-80714532D01*
X75473313Y-80734364D01*
X75473302Y-80734366D01*
X75253511Y-80793258D01*
X75253502Y-80793261D01*
X75047267Y-80889431D01*
X75047265Y-80889432D01*
X74860858Y-81019954D01*
X74699954Y-81180858D01*
X74569432Y-81367265D01*
X74569431Y-81367267D01*
X74542382Y-81425275D01*
X74496209Y-81477714D01*
X74429016Y-81496866D01*
X74362135Y-81476650D01*
X74317618Y-81425275D01*
X74291578Y-81369432D01*
X74290568Y-81367266D01*
X74183506Y-81214364D01*
X74160045Y-81180858D01*
X73999141Y-81019954D01*
X73812734Y-80889432D01*
X73812732Y-80889431D01*
X73606497Y-80793261D01*
X73606488Y-80793258D01*
X73386697Y-80734366D01*
X73386693Y-80734365D01*
X73386692Y-80734365D01*
X73386691Y-80734364D01*
X73386686Y-80734364D01*
X73160002Y-80714532D01*
X73159998Y-80714532D01*
X72933313Y-80734364D01*
X72933302Y-80734366D01*
X72713511Y-80793258D01*
X72713502Y-80793261D01*
X72507267Y-80889431D01*
X72507265Y-80889432D01*
X72320858Y-81019954D01*
X72159954Y-81180858D01*
X72029432Y-81367265D01*
X72029431Y-81367267D01*
X72002382Y-81425275D01*
X71956209Y-81477714D01*
X71889016Y-81496866D01*
X71822135Y-81476650D01*
X71777618Y-81425275D01*
X71751578Y-81369432D01*
X71750568Y-81367266D01*
X71643506Y-81214364D01*
X71620045Y-81180858D01*
X71459141Y-81019954D01*
X71272734Y-80889432D01*
X71272732Y-80889431D01*
X71066497Y-80793261D01*
X71066488Y-80793258D01*
X70846697Y-80734366D01*
X70846693Y-80734365D01*
X70846692Y-80734365D01*
X70846691Y-80734364D01*
X70846686Y-80734364D01*
X70620002Y-80714532D01*
X70619998Y-80714532D01*
X70393313Y-80734364D01*
X70393302Y-80734366D01*
X70173511Y-80793258D01*
X70173502Y-80793261D01*
X69967267Y-80889431D01*
X69967265Y-80889432D01*
X69780858Y-81019954D01*
X69619954Y-81180858D01*
X69489432Y-81367265D01*
X69489431Y-81367267D01*
X69462382Y-81425275D01*
X69416209Y-81477714D01*
X69349016Y-81496866D01*
X69282135Y-81476650D01*
X69237618Y-81425275D01*
X69211578Y-81369432D01*
X69210568Y-81367266D01*
X69103506Y-81214364D01*
X69080045Y-81180858D01*
X68919141Y-81019954D01*
X68732734Y-80889432D01*
X68732732Y-80889431D01*
X68526497Y-80793261D01*
X68526488Y-80793258D01*
X68306697Y-80734366D01*
X68306693Y-80734365D01*
X68306692Y-80734365D01*
X68306691Y-80734364D01*
X68306686Y-80734364D01*
X68080002Y-80714532D01*
X68079998Y-80714532D01*
X67853313Y-80734364D01*
X67853302Y-80734366D01*
X67633511Y-80793258D01*
X67633502Y-80793261D01*
X67427267Y-80889431D01*
X67427265Y-80889432D01*
X67240858Y-81019954D01*
X67079954Y-81180858D01*
X66949432Y-81367265D01*
X66949431Y-81367267D01*
X66922382Y-81425275D01*
X66876209Y-81477714D01*
X66809016Y-81496866D01*
X66742135Y-81476650D01*
X66697618Y-81425275D01*
X66671578Y-81369432D01*
X66670568Y-81367266D01*
X66563506Y-81214364D01*
X66540045Y-81180858D01*
X66379141Y-81019954D01*
X66192734Y-80889432D01*
X66192732Y-80889431D01*
X65986497Y-80793261D01*
X65986488Y-80793258D01*
X65766697Y-80734366D01*
X65766693Y-80734365D01*
X65766692Y-80734365D01*
X65766691Y-80734364D01*
X65766686Y-80734364D01*
X65540002Y-80714532D01*
X65539998Y-80714532D01*
X65313313Y-80734364D01*
X65313302Y-80734366D01*
X65093511Y-80793258D01*
X65093502Y-80793261D01*
X64887267Y-80889431D01*
X64887265Y-80889432D01*
X64700858Y-81019954D01*
X64539954Y-81180858D01*
X64409432Y-81367265D01*
X64409431Y-81367267D01*
X64382382Y-81425275D01*
X64336209Y-81477714D01*
X64269016Y-81496866D01*
X64202135Y-81476650D01*
X64157618Y-81425275D01*
X64131578Y-81369432D01*
X64130568Y-81367266D01*
X64023506Y-81214364D01*
X64000045Y-81180858D01*
X63839141Y-81019954D01*
X63652734Y-80889432D01*
X63652732Y-80889431D01*
X63446497Y-80793261D01*
X63446488Y-80793258D01*
X63226697Y-80734366D01*
X63226693Y-80734365D01*
X63226692Y-80734365D01*
X63226691Y-80734364D01*
X63226686Y-80734364D01*
X63000002Y-80714532D01*
X62999998Y-80714532D01*
X62773313Y-80734364D01*
X62773302Y-80734366D01*
X62553511Y-80793258D01*
X62553502Y-80793261D01*
X62347267Y-80889431D01*
X62347265Y-80889432D01*
X62160858Y-81019954D01*
X61999954Y-81180858D01*
X61869432Y-81367265D01*
X61869431Y-81367267D01*
X61842382Y-81425275D01*
X61796209Y-81477714D01*
X61729016Y-81496866D01*
X61662135Y-81476650D01*
X61617618Y-81425275D01*
X61591578Y-81369432D01*
X61590568Y-81367266D01*
X61483506Y-81214364D01*
X61460045Y-81180858D01*
X61299141Y-81019954D01*
X61112734Y-80889432D01*
X61112732Y-80889431D01*
X60906497Y-80793261D01*
X60906488Y-80793258D01*
X60686697Y-80734366D01*
X60686693Y-80734365D01*
X60686692Y-80734365D01*
X60686691Y-80734364D01*
X60686686Y-80734364D01*
X60460002Y-80714532D01*
X60459998Y-80714532D01*
X60233313Y-80734364D01*
X60233302Y-80734366D01*
X60013511Y-80793258D01*
X60013502Y-80793261D01*
X59807267Y-80889431D01*
X59807265Y-80889432D01*
X59620858Y-81019954D01*
X59459954Y-81180858D01*
X59329432Y-81367265D01*
X59329431Y-81367267D01*
X59302382Y-81425275D01*
X59256209Y-81477714D01*
X59189016Y-81496866D01*
X59122135Y-81476650D01*
X59077618Y-81425275D01*
X59051578Y-81369432D01*
X59050568Y-81367266D01*
X58943506Y-81214364D01*
X58920045Y-81180858D01*
X58759141Y-81019954D01*
X58572734Y-80889432D01*
X58572732Y-80889431D01*
X58366497Y-80793261D01*
X58366488Y-80793258D01*
X58146697Y-80734366D01*
X58146693Y-80734365D01*
X58146692Y-80734365D01*
X58146691Y-80734364D01*
X58146686Y-80734364D01*
X57920002Y-80714532D01*
X57919998Y-80714532D01*
X57693313Y-80734364D01*
X57693302Y-80734366D01*
X57473511Y-80793258D01*
X57473502Y-80793261D01*
X57267267Y-80889431D01*
X57267265Y-80889432D01*
X57080858Y-81019954D01*
X56919954Y-81180858D01*
X56789432Y-81367265D01*
X56789431Y-81367267D01*
X56762382Y-81425275D01*
X56716209Y-81477714D01*
X56649016Y-81496866D01*
X56582135Y-81476650D01*
X56537618Y-81425275D01*
X56511578Y-81369432D01*
X56510568Y-81367266D01*
X56403506Y-81214364D01*
X56380045Y-81180858D01*
X56219141Y-81019954D01*
X56032734Y-80889432D01*
X56032732Y-80889431D01*
X55826497Y-80793261D01*
X55826488Y-80793258D01*
X55606697Y-80734366D01*
X55606693Y-80734365D01*
X55606692Y-80734365D01*
X55606691Y-80734364D01*
X55606686Y-80734364D01*
X55380002Y-80714532D01*
X55379998Y-80714532D01*
X55153313Y-80734364D01*
X55153302Y-80734366D01*
X54933511Y-80793258D01*
X54933502Y-80793261D01*
X54727267Y-80889431D01*
X54727265Y-80889432D01*
X54540858Y-81019954D01*
X54379954Y-81180858D01*
X54249432Y-81367265D01*
X54249431Y-81367267D01*
X54222382Y-81425275D01*
X54176209Y-81477714D01*
X54109016Y-81496866D01*
X54042135Y-81476650D01*
X53997618Y-81425275D01*
X53971578Y-81369432D01*
X53970568Y-81367266D01*
X53863506Y-81214364D01*
X53840045Y-81180858D01*
X53679141Y-81019954D01*
X53492734Y-80889432D01*
X53492732Y-80889431D01*
X53286497Y-80793261D01*
X53286488Y-80793258D01*
X53066697Y-80734366D01*
X53066693Y-80734365D01*
X53066692Y-80734365D01*
X53066691Y-80734364D01*
X53066686Y-80734364D01*
X52840002Y-80714532D01*
X52839998Y-80714532D01*
X52613313Y-80734364D01*
X52613302Y-80734366D01*
X52393511Y-80793258D01*
X52393502Y-80793261D01*
X52187267Y-80889431D01*
X52187265Y-80889432D01*
X52000858Y-81019954D01*
X51839954Y-81180858D01*
X51709432Y-81367265D01*
X51709431Y-81367267D01*
X51613261Y-81573502D01*
X51613258Y-81573511D01*
X51554366Y-81793302D01*
X51554364Y-81793313D01*
X51534532Y-82019998D01*
X48000500Y-82019998D01*
X48000500Y-77393713D01*
X49149500Y-77393713D01*
X49149500Y-77606286D01*
X49182753Y-77816239D01*
X49248444Y-78018414D01*
X49344951Y-78207820D01*
X49469890Y-78379786D01*
X49620213Y-78530109D01*
X49792179Y-78655048D01*
X49792181Y-78655049D01*
X49792184Y-78655051D01*
X49981588Y-78751557D01*
X50183757Y-78817246D01*
X50393713Y-78850500D01*
X50393714Y-78850500D01*
X50606286Y-78850500D01*
X50606287Y-78850500D01*
X50816243Y-78817246D01*
X51018412Y-78751557D01*
X51207816Y-78655051D01*
X51229789Y-78639086D01*
X51379786Y-78530109D01*
X51379788Y-78530106D01*
X51379792Y-78530104D01*
X51530104Y-78379792D01*
X51530106Y-78379788D01*
X51530109Y-78379786D01*
X51655048Y-78207820D01*
X51655047Y-78207820D01*
X51655051Y-78207816D01*
X51751557Y-78018412D01*
X51817246Y-77816243D01*
X51850500Y-77606287D01*
X51850500Y-77393713D01*
X243149500Y-77393713D01*
X243149500Y-77606286D01*
X243182753Y-77816239D01*
X243248444Y-78018414D01*
X243344951Y-78207820D01*
X243469890Y-78379786D01*
X243620213Y-78530109D01*
X243792179Y-78655048D01*
X243792181Y-78655049D01*
X243792184Y-78655051D01*
X243981588Y-78751557D01*
X244183757Y-78817246D01*
X244393713Y-78850500D01*
X244393714Y-78850500D01*
X244606286Y-78850500D01*
X244606287Y-78850500D01*
X244816243Y-78817246D01*
X245018412Y-78751557D01*
X245207816Y-78655051D01*
X245229789Y-78639086D01*
X245379786Y-78530109D01*
X245379788Y-78530106D01*
X245379792Y-78530104D01*
X245530104Y-78379792D01*
X245530106Y-78379788D01*
X245530109Y-78379786D01*
X245655048Y-78207820D01*
X245655047Y-78207820D01*
X245655051Y-78207816D01*
X245751557Y-78018412D01*
X245817246Y-77816243D01*
X245850500Y-77606287D01*
X245850500Y-77393713D01*
X245817246Y-77183757D01*
X245751557Y-76981588D01*
X245655051Y-76792184D01*
X245655049Y-76792181D01*
X245655048Y-76792179D01*
X245530109Y-76620213D01*
X245379786Y-76469890D01*
X245207820Y-76344951D01*
X245018414Y-76248444D01*
X245018413Y-76248443D01*
X245018412Y-76248443D01*
X244816243Y-76182754D01*
X244816241Y-76182753D01*
X244816240Y-76182753D01*
X244654957Y-76157208D01*
X244606287Y-76149500D01*
X244393713Y-76149500D01*
X244345042Y-76157208D01*
X244183760Y-76182753D01*
X243981585Y-76248444D01*
X243792179Y-76344951D01*
X243620213Y-76469890D01*
X243469890Y-76620213D01*
X243344951Y-76792179D01*
X243248444Y-76981585D01*
X243182753Y-77183760D01*
X243149500Y-77393713D01*
X51850500Y-77393713D01*
X51817246Y-77183757D01*
X51751557Y-76981588D01*
X51655051Y-76792184D01*
X51655049Y-76792181D01*
X51655048Y-76792179D01*
X51530109Y-76620213D01*
X51379786Y-76469890D01*
X51207820Y-76344951D01*
X51018414Y-76248444D01*
X51018413Y-76248443D01*
X51018412Y-76248443D01*
X50816243Y-76182754D01*
X50816241Y-76182753D01*
X50816240Y-76182753D01*
X50654957Y-76157208D01*
X50606287Y-76149500D01*
X50393713Y-76149500D01*
X50345042Y-76157208D01*
X50183760Y-76182753D01*
X49981585Y-76248444D01*
X49792179Y-76344951D01*
X49620213Y-76469890D01*
X49469890Y-76620213D01*
X49344951Y-76792179D01*
X49248444Y-76981585D01*
X49182753Y-77183760D01*
X49149500Y-77393713D01*
X48000500Y-77393713D01*
X48000500Y-75124500D01*
X48020185Y-75057461D01*
X48072989Y-75011706D01*
X48124500Y-75000500D01*
X246875500Y-75000500D01*
X246942539Y-75020185D01*
G37*
%TD.AperFunction*%
M02*
