M48
; DRILL file {KiCad 8.0.5-dirty} date 2024-11-08T09:41:07-0600
; FORMAT={-:-/ absolute / inch / decimal}
; #@! TF.CreationDate,2024-11-08T09:41:07-06:00
; #@! TF.GenerationSoftware,Kicad,Pcbnew,8.0.5-dirty
; #@! TF.FileFunction,Plated,1,2,PTH
FMAT,2
INCH
; #@! TA.AperFunction,Plated,PTH,ComponentDrill
T1C0.0315
; #@! TA.AperFunction,Plated,PTH,ComponentDrill
T2C0.0394
; #@! TA.AperFunction,Plated,PTH,ComponentDrill
T3C0.0787
%
G90
G05
T1
X2.0803Y-3.2291
X2.0803Y-3.8291
X2.1803Y-3.2291
X2.1803Y-3.8291
X2.2803Y-3.2291
X2.2803Y-3.8291
X2.3803Y-3.2291
X2.3803Y-3.8291
X2.4803Y-3.2291
X2.4803Y-3.8291
X2.5803Y-3.2291
X2.5803Y-3.8291
X2.6803Y-3.2291
X2.6803Y-3.8291
X2.7803Y-3.2291
X2.7803Y-3.8291
X2.8803Y-3.2291
X2.8803Y-3.8291
X2.9803Y-3.2291
X2.9803Y-3.8291
X3.0803Y-3.2291
X3.0803Y-3.8291
X3.1803Y-3.2291
X3.1803Y-3.8291
X3.2803Y-3.2291
X3.2803Y-3.8291
X3.3803Y-3.2291
X3.3803Y-3.8291
X3.4803Y-3.2291
X3.4803Y-3.8291
X3.5803Y-3.2291
X3.5803Y-3.8291
X3.6803Y-3.2291
X3.6803Y-3.8291
T2
X4.1102Y-3.248
X4.1102Y-3.8189
X4.2087Y-3.8189
X4.3071Y-3.248
X4.3071Y-3.8189
X5.1339Y-3.248
X5.1339Y-3.8189
X5.2323Y-3.8189
X5.3307Y-3.248
X5.3307Y-3.8189
X6.1535Y-3.248
X6.1535Y-3.8189
X6.252Y-3.8189
X6.3504Y-3.248
X6.3504Y-3.8189
X7.1654Y-3.248
X7.1654Y-3.8189
X7.2638Y-3.8189
X7.3622Y-3.248
X7.3622Y-3.8189
X8.185Y-3.248
X8.185Y-3.8189
X8.2835Y-3.8189
X8.3819Y-3.248
X8.3819Y-3.8189
X9.2087Y-3.248
X9.2087Y-3.8189
X9.3071Y-3.8189
X9.4055Y-3.248
X9.4055Y-3.8189
T3
G00X3.9882Y-3.5453
M15
G01X3.9882Y-3.502
M16
G05
G00X4.4291Y-3.5453
M15
G01X4.4291Y-3.502
M16
G05
G00X5.0118Y-3.5453
M15
G01X5.0118Y-3.502
M16
G05
G00X5.4528Y-3.5453
M15
G01X5.4528Y-3.502
M16
G05
G00X6.0315Y-3.5453
M15
G01X6.0315Y-3.502
M16
G05
G00X6.4724Y-3.5453
M15
G01X6.4724Y-3.502
M16
G05
G00X7.0433Y-3.5453
M15
G01X7.0433Y-3.502
M16
G05
G00X7.4843Y-3.5453
M15
G01X7.4843Y-3.502
M16
G05
G00X8.063Y-3.5453
M15
G01X8.063Y-3.502
M16
G05
G00X8.5039Y-3.5453
M15
G01X8.5039Y-3.502
M16
G05
G00X9.0866Y-3.5453
M15
G01X9.0866Y-3.502
M16
G05
G00X9.5276Y-3.5453
M15
G01X9.5276Y-3.502
M16
G05
M30
