%TF.GenerationSoftware,KiCad,Pcbnew,8.0.5-dirty*%
%TF.CreationDate,2024-11-08T09:40:44-06:00*%
%TF.ProjectId,buttonbox,62757474-6f6e-4626-9f78-2e6b69636164,rev?*%
%TF.SameCoordinates,Original*%
%TF.FileFunction,Legend,Bot*%
%TF.FilePolarity,Positive*%
%FSLAX46Y46*%
G04 Gerber Fmt 4.6, Leading zero omitted, Abs format (unit mm)*
G04 Created by KiCad (PCBNEW 8.0.5-dirty) date 2024-11-08 09:40:44*
%MOMM*%
%LPD*%
G01*
G04 APERTURE LIST*
%ADD10C,0.100000*%
%ADD11C,0.150000*%
%ADD12C,0.120000*%
G04 APERTURE END LIST*
D10*
X239791353Y-101872419D02*
X239553258Y-102872419D01*
X239553258Y-102872419D02*
X239362782Y-102158133D01*
X239362782Y-102158133D02*
X239172306Y-102872419D01*
X239172306Y-102872419D02*
X238934211Y-101872419D01*
X238124687Y-102872419D02*
X238124687Y-102348609D01*
X238124687Y-102348609D02*
X238172306Y-102253371D01*
X238172306Y-102253371D02*
X238267544Y-102205752D01*
X238267544Y-102205752D02*
X238458020Y-102205752D01*
X238458020Y-102205752D02*
X238553258Y-102253371D01*
X238124687Y-102824800D02*
X238219925Y-102872419D01*
X238219925Y-102872419D02*
X238458020Y-102872419D01*
X238458020Y-102872419D02*
X238553258Y-102824800D01*
X238553258Y-102824800D02*
X238600877Y-102729561D01*
X238600877Y-102729561D02*
X238600877Y-102634323D01*
X238600877Y-102634323D02*
X238553258Y-102539085D01*
X238553258Y-102539085D02*
X238458020Y-102491466D01*
X238458020Y-102491466D02*
X238219925Y-102491466D01*
X238219925Y-102491466D02*
X238124687Y-102443847D01*
X237743734Y-102205752D02*
X237505639Y-102872419D01*
X237267544Y-102205752D02*
X237505639Y-102872419D01*
X237505639Y-102872419D02*
X237600877Y-103110514D01*
X237600877Y-103110514D02*
X237648496Y-103158133D01*
X237648496Y-103158133D02*
X237743734Y-103205752D01*
X236981829Y-101872419D02*
X236743734Y-102872419D01*
X236743734Y-102872419D02*
X236553258Y-102158133D01*
X236553258Y-102158133D02*
X236362782Y-102872419D01*
X236362782Y-102872419D02*
X236124687Y-101872419D01*
X235315163Y-102872419D02*
X235315163Y-102348609D01*
X235315163Y-102348609D02*
X235362782Y-102253371D01*
X235362782Y-102253371D02*
X235458020Y-102205752D01*
X235458020Y-102205752D02*
X235648496Y-102205752D01*
X235648496Y-102205752D02*
X235743734Y-102253371D01*
X235315163Y-102824800D02*
X235410401Y-102872419D01*
X235410401Y-102872419D02*
X235648496Y-102872419D01*
X235648496Y-102872419D02*
X235743734Y-102824800D01*
X235743734Y-102824800D02*
X235791353Y-102729561D01*
X235791353Y-102729561D02*
X235791353Y-102634323D01*
X235791353Y-102634323D02*
X235743734Y-102539085D01*
X235743734Y-102539085D02*
X235648496Y-102491466D01*
X235648496Y-102491466D02*
X235410401Y-102491466D01*
X235410401Y-102491466D02*
X235315163Y-102443847D01*
X234934210Y-102205752D02*
X234696115Y-102872419D01*
X234458020Y-102205752D02*
X234696115Y-102872419D01*
X234696115Y-102872419D02*
X234791353Y-103110514D01*
X234791353Y-103110514D02*
X234838972Y-103158133D01*
X234838972Y-103158133D02*
X234934210Y-103205752D01*
X234172305Y-101872419D02*
X233934210Y-102872419D01*
X233934210Y-102872419D02*
X233743734Y-102158133D01*
X233743734Y-102158133D02*
X233553258Y-102872419D01*
X233553258Y-102872419D02*
X233315163Y-101872419D01*
X232505639Y-102872419D02*
X232505639Y-102348609D01*
X232505639Y-102348609D02*
X232553258Y-102253371D01*
X232553258Y-102253371D02*
X232648496Y-102205752D01*
X232648496Y-102205752D02*
X232838972Y-102205752D01*
X232838972Y-102205752D02*
X232934210Y-102253371D01*
X232505639Y-102824800D02*
X232600877Y-102872419D01*
X232600877Y-102872419D02*
X232838972Y-102872419D01*
X232838972Y-102872419D02*
X232934210Y-102824800D01*
X232934210Y-102824800D02*
X232981829Y-102729561D01*
X232981829Y-102729561D02*
X232981829Y-102634323D01*
X232981829Y-102634323D02*
X232934210Y-102539085D01*
X232934210Y-102539085D02*
X232838972Y-102491466D01*
X232838972Y-102491466D02*
X232600877Y-102491466D01*
X232600877Y-102491466D02*
X232505639Y-102443847D01*
X232124686Y-102205752D02*
X231886591Y-102872419D01*
X231648496Y-102205752D02*
X231886591Y-102872419D01*
X231886591Y-102872419D02*
X231981829Y-103110514D01*
X231981829Y-103110514D02*
X232029448Y-103158133D01*
X232029448Y-103158133D02*
X232124686Y-103205752D01*
D11*
X98729104Y-87044762D02*
X98729104Y-87520952D01*
X99014819Y-86949524D02*
X98014819Y-87282857D01*
X98014819Y-87282857D02*
X99014819Y-87616190D01*
X99014819Y-87949524D02*
X98348152Y-87949524D01*
X98538628Y-87949524D02*
X98443390Y-87997143D01*
X98443390Y-87997143D02*
X98395771Y-88044762D01*
X98395771Y-88044762D02*
X98348152Y-88140000D01*
X98348152Y-88140000D02*
X98348152Y-88235238D01*
X99014819Y-88997143D02*
X98014819Y-88997143D01*
X98967200Y-88997143D02*
X99014819Y-88901905D01*
X99014819Y-88901905D02*
X99014819Y-88711429D01*
X99014819Y-88711429D02*
X98967200Y-88616191D01*
X98967200Y-88616191D02*
X98919580Y-88568572D01*
X98919580Y-88568572D02*
X98824342Y-88520953D01*
X98824342Y-88520953D02*
X98538628Y-88520953D01*
X98538628Y-88520953D02*
X98443390Y-88568572D01*
X98443390Y-88568572D02*
X98395771Y-88616191D01*
X98395771Y-88616191D02*
X98348152Y-88711429D01*
X98348152Y-88711429D02*
X98348152Y-88901905D01*
X98348152Y-88901905D02*
X98395771Y-88997143D01*
X98348152Y-89901905D02*
X99014819Y-89901905D01*
X98348152Y-89473334D02*
X98871961Y-89473334D01*
X98871961Y-89473334D02*
X98967200Y-89520953D01*
X98967200Y-89520953D02*
X99014819Y-89616191D01*
X99014819Y-89616191D02*
X99014819Y-89759048D01*
X99014819Y-89759048D02*
X98967200Y-89854286D01*
X98967200Y-89854286D02*
X98919580Y-89901905D01*
X99014819Y-90378096D02*
X98348152Y-90378096D01*
X98014819Y-90378096D02*
X98062438Y-90330477D01*
X98062438Y-90330477D02*
X98110057Y-90378096D01*
X98110057Y-90378096D02*
X98062438Y-90425715D01*
X98062438Y-90425715D02*
X98014819Y-90378096D01*
X98014819Y-90378096D02*
X98110057Y-90378096D01*
X98348152Y-90854286D02*
X99014819Y-90854286D01*
X98443390Y-90854286D02*
X98395771Y-90901905D01*
X98395771Y-90901905D02*
X98348152Y-90997143D01*
X98348152Y-90997143D02*
X98348152Y-91140000D01*
X98348152Y-91140000D02*
X98395771Y-91235238D01*
X98395771Y-91235238D02*
X98491009Y-91282857D01*
X98491009Y-91282857D02*
X99014819Y-91282857D01*
X99014819Y-91901905D02*
X98967200Y-91806667D01*
X98967200Y-91806667D02*
X98919580Y-91759048D01*
X98919580Y-91759048D02*
X98824342Y-91711429D01*
X98824342Y-91711429D02*
X98538628Y-91711429D01*
X98538628Y-91711429D02*
X98443390Y-91759048D01*
X98443390Y-91759048D02*
X98395771Y-91806667D01*
X98395771Y-91806667D02*
X98348152Y-91901905D01*
X98348152Y-91901905D02*
X98348152Y-92044762D01*
X98348152Y-92044762D02*
X98395771Y-92140000D01*
X98395771Y-92140000D02*
X98443390Y-92187619D01*
X98443390Y-92187619D02*
X98538628Y-92235238D01*
X98538628Y-92235238D02*
X98824342Y-92235238D01*
X98824342Y-92235238D02*
X98919580Y-92187619D01*
X98919580Y-92187619D02*
X98967200Y-92140000D01*
X98967200Y-92140000D02*
X99014819Y-92044762D01*
X99014819Y-92044762D02*
X99014819Y-91901905D01*
D12*
%TO.C,Arduino*%
X94750000Y-95990000D02*
X92210000Y-95990000D01*
X94750000Y-98657000D02*
X94750000Y-95990000D01*
X48903000Y-98657000D02*
X92210000Y-98657000D01*
X94750000Y-98657000D02*
X97417000Y-98657000D01*
X94750000Y-80623000D02*
X94750000Y-83290000D01*
X51570000Y-83290000D02*
X94750000Y-83290000D01*
X51570000Y-80623000D02*
X51570000Y-83290000D01*
X92210000Y-98657000D02*
X92210000Y-95990000D01*
X51570000Y-95990000D02*
X92210000Y-95990000D01*
X51570000Y-98657000D02*
X51570000Y-95990000D01*
X48903000Y-93577000D02*
X48903000Y-98657000D01*
X97417000Y-80623000D02*
X48903000Y-80623000D01*
X97417000Y-98657000D02*
X97417000Y-80623000D01*
X48903000Y-80623000D02*
X48903000Y-85703000D01*
X47633000Y-85703000D02*
X47633000Y-93577000D01*
X47633000Y-93577000D02*
X48903000Y-93577000D01*
X47633000Y-85703000D02*
X48903000Y-85703000D01*
%TD*%
M02*
