%TF.GenerationSoftware,KiCad,Pcbnew,8.0.5-dirty*%
%TF.CreationDate,2024-11-08T09:40:45-06:00*%
%TF.ProjectId,buttonbox,62757474-6f6e-4626-9f78-2e6b69636164,rev?*%
%TF.SameCoordinates,Original*%
%TF.FileFunction,Soldermask,Bot*%
%TF.FilePolarity,Negative*%
%FSLAX46Y46*%
G04 Gerber Fmt 4.6, Leading zero omitted, Abs format (unit mm)*
G04 Created by KiCad (PCBNEW 8.0.5-dirty) date 2024-11-08 09:40:45*
%MOMM*%
%LPD*%
G01*
G04 APERTURE LIST*
G04 Aperture macros list*
%AMRoundRect*
0 Rectangle with rounded corners*
0 $1 Rounding radius*
0 $2 $3 $4 $5 $6 $7 $8 $9 X,Y pos of 4 corners*
0 Add a 4 corners polygon primitive as box body*
4,1,4,$2,$3,$4,$5,$6,$7,$8,$9,$2,$3,0*
0 Add four circle primitives for the rounded corners*
1,1,$1+$1,$2,$3*
1,1,$1+$1,$4,$5*
1,1,$1+$1,$6,$7*
1,1,$1+$1,$8,$9*
0 Add four rect primitives between the rounded corners*
20,1,$1+$1,$2,$3,$4,$5,0*
20,1,$1+$1,$4,$5,$6,$7,0*
20,1,$1+$1,$6,$7,$8,$9,0*
20,1,$1+$1,$8,$9,$2,$3,0*%
G04 Aperture macros list end*
%ADD10C,2.200000*%
%ADD11R,1.600000X1.600000*%
%ADD12O,1.600000X1.600000*%
%ADD13RoundRect,0.250000X0.550000X-0.550000X0.550000X0.550000X-0.550000X0.550000X-0.550000X-0.550000X0*%
%ADD14C,1.600000*%
%ADD15O,3.000000X4.100000*%
G04 APERTURE END LIST*
D10*
%TO.C,H4*%
X244500000Y-77500000D03*
%TD*%
%TO.C,H3*%
X244500000Y-101500000D03*
%TD*%
%TO.C,H2*%
X50500000Y-101500000D03*
%TD*%
%TO.C,H1*%
X50500000Y-77500000D03*
%TD*%
D11*
%TO.C,Arduino*%
X93480000Y-97260000D03*
D12*
X52840000Y-97260000D03*
X90940000Y-97260000D03*
X52840000Y-82020000D03*
X88400000Y-97260000D03*
X55380000Y-82020000D03*
X85860000Y-97260000D03*
X57920000Y-82020000D03*
X83320000Y-97260000D03*
X60460000Y-82020000D03*
X80780000Y-97260000D03*
X63000000Y-82020000D03*
X78240000Y-97260000D03*
X65540000Y-82020000D03*
X75700000Y-97260000D03*
X68080000Y-82020000D03*
X73160000Y-97260000D03*
X70620000Y-82020000D03*
X70620000Y-97260000D03*
X73160000Y-82020000D03*
X68080000Y-97260000D03*
X75700000Y-82020000D03*
X65540000Y-97260000D03*
X78240000Y-82020000D03*
X63000000Y-97260000D03*
X80780000Y-82020000D03*
X60460000Y-97260000D03*
X83320000Y-82020000D03*
X57920000Y-97260000D03*
X55380000Y-97260000D03*
X85860000Y-82020000D03*
X88400000Y-82020000D03*
X90940000Y-82020000D03*
X93480000Y-82020000D03*
%TD*%
D13*
%TO.C,SW6*%
X233900000Y-97000000D03*
D14*
X238900000Y-97000000D03*
X236400000Y-97000000D03*
X233900000Y-82500000D03*
X238900000Y-82500000D03*
D15*
X230800000Y-89500000D03*
X242000000Y-89500000D03*
%TD*%
D13*
%TO.C,SW5*%
X207900000Y-97000000D03*
D14*
X212900000Y-97000000D03*
X210400000Y-97000000D03*
X207900000Y-82500000D03*
X212900000Y-82500000D03*
D15*
X204800000Y-89500000D03*
X216000000Y-89500000D03*
%TD*%
D13*
%TO.C,SW4*%
X182000000Y-97000000D03*
D14*
X187000000Y-97000000D03*
X184500000Y-97000000D03*
X182000000Y-82500000D03*
X187000000Y-82500000D03*
D15*
X178900000Y-89500000D03*
X190100000Y-89500000D03*
%TD*%
D13*
%TO.C,SW3*%
X156300000Y-97000000D03*
D14*
X161300000Y-97000000D03*
X158800000Y-97000000D03*
X156300000Y-82500000D03*
X161300000Y-82500000D03*
D15*
X153200000Y-89500000D03*
X164400000Y-89500000D03*
%TD*%
D13*
%TO.C,SW2*%
X130400000Y-97000000D03*
D14*
X135400000Y-97000000D03*
X132900000Y-97000000D03*
X130400000Y-82500000D03*
X135400000Y-82500000D03*
D15*
X127300000Y-89500000D03*
X138500000Y-89500000D03*
%TD*%
D13*
%TO.C,SW1*%
X104400000Y-97000000D03*
D14*
X109400000Y-97000000D03*
X106900000Y-97000000D03*
X104400000Y-82500000D03*
X109400000Y-82500000D03*
D15*
X101300000Y-89500000D03*
X112500000Y-89500000D03*
%TD*%
M02*
